 <!DOCTYPE svg PUBLIC "-//W3C//DTD SVG 1.1//EN" "http://www.w3.org/Graphics/SVG/1.1/DTD/svg11.dtd">
<svg id="a54bd49b-cb1f-4f74-84e7-c354bfba8fb0" data-name="Layer 1" xmlns="http://www.w3.org/2000/svg" width="865.76" height="682.89" viewBox="0 0 865.76 682.89">
<defs>
<style xmlns="http://www.w3.org/1999/xhtml">*, ::after, ::before { box-sizing: border-box; }
img, svg { vertical-align: middle; }
</style>
<style xmlns="http://www.w3.org/1999/xhtml">*, body, html { -webkit-font-smoothing: antialiased; }
img, svg { max-width: 100%; }
</style>
</defs>
<path d="M753.28,589.07c.15-115-18-177-18-177C713,311.81,640.11,224.38,640.11,224.38l-45.85-55.29-9.86-27.86c-3.43-10.71-13.29-18.85-13.29-18.85-12,5.57,1.29,18,1.29,18L575,160.52S563,146.81,561.68,146s-22.28-15.43-22.28-15.43c-14.57,9,9.86,20.57,9.86,20.57C560.4,162.66,560,173.81,560,173.81c-8.14-9-38.57-27-38.57-27-13.72,12.42,15.86,24.85,15.86,24.85,5.14,3.86,12.85,18,12.85,18l-38.57-13.28C504.68,184.52,515,188,515,188l34.57,17.57c25.14,16.57,9.72,22.86,9.72,22.86l-11.43,3.43c-22.29-6.29-21.72,8-21.72,8L549,245,595.56,241a17.57,17.57,0,0,1,14,5.23c25.64,26.12,52,79.26,52,79.26,50,101.62,35.78,228.11,32.36,252.82q-6-.83-12.32-1.62c-1-18.48-6.6-95.75-30.51-138.42a8.3,8.3,0,0,1-.71-6.72c1.57-4.62,2.36-15.72-9-39.43a19.47,19.47,0,0,1-1.87-7.14l-2-30.47a13.64,13.64,0,0,0-1.54-5.48L620.61,319.7a3.8,3.8,0,0,0-5.84-1.1c-4.49,3.85-9,13.15,8.82,33l-1.2,13.2-4.8-9.6-29.47-25.72a4.27,4.27,0,0,0-6.83,1.78c-1.2,3.32-1.11,8.13,4.51,13.75l21.59,17.39,1.8,16.8-18.59-3-31.5,1.08a3.85,3.85,0,0,0-3.71,4.06c.34,5.39,4.83,13.66,31.61,6.85l13.8,7.2-16.8,4.8-16,9a3.22,3.22,0,0,0-.68,5.12c3,2.83,8.9,5.42,18.58-1.61a8.67,8.67,0,0,1,6.93-1.44l5.41,1.18a6.64,6.64,0,0,1,5.12,5.25c1.8,9.35,6.79,31.28,15.2,38.42a18,18,0,0,1,5,7.18c5.89,14.89,19.66,58.13,5.11,107.85-55-4.73-119.53-7.46-188.6-7.46-62.38,0-121.08,2.22-172.36,6.14-36.56-138.3-6.6-346.07.93-392.88a14.42,14.42,0,0,1,9.72-11.38c19.15-6.36,33.94-26.15,38.92-33.54a4.1,4.1,0,0,1,5-1.48L332.75,135a15.74,15.74,0,0,1,7.89,7.5c6.13,12.22,12.87,12.58,17.1,11.1a4.12,4.12,0,0,0,2.14-6l-8.62-14.5c-2.13-5.46-10-13.28-14.49-17.38a1.54,1.54,0,0,1,1.08-2.68l10.48.21a15.62,15.62,0,0,1,10.56,4.34,141.73,141.73,0,0,0,13.79,11.23c9.92,6.91,16.26-.09,19.16-4.89a4.13,4.13,0,0,0-1.37-5.66L356.83,97.52l-19.26-7.17a2,2,0,0,1-.8-3.09L346.34,76a11.94,11.94,0,0,1,8-4.16C394,68.18,397,56.64,395.67,50.64A4,4,0,0,0,391,47.55L343.07,56.6a11.88,11.88,0,0,0-5.91,3L332.4,64a1.16,1.16,0,0,1-1.84-1.33l3.13-6.79a11.87,11.87,0,0,1,6.61-6.11c6-2.26,16.61-7.25,23.38-16.09,7.05-9.18,3.15-14.21.35-16.33a3.31,3.31,0,0,0-3.81-.1l-35.42,23a15.92,15.92,0,0,0-5,5.22L313.54,56C307.54,66.66,296,80.38,296,80.38L275,95c-14.57,11.43-17.2,20.81-17.34,25.79a14.09,14.09,0,0,1-2.7,8c-96.51,130-47.84,411.89-41.47,446.15q-10,1.14-19.46,2.37c-39.85-63.3-35.6-201.22-35.6-201.22,4.36-15.1,1.63-42.82.24-54.13a18.25,18.25,0,0,1,1.51-9.8l6.39-14.07c6.86-16.28-.43-17.14-.43-17.14-6.85-2.66-18.09,25.07-20.52,31.33a.33.33,0,0,1-.63-.09l-2.55-22.66a88.26,88.26,0,0,1-.58-10.9c.21-19.48-6.15-16.11-6.15-16.11-7.89-3.76-8.2,34.39-8.16,43.79a.41.41,0,0,1-.8.14c-3-8.18-7.54-31.6-9-39.3A7.19,7.19,0,0,0,114,262a5.29,5.29,0,0,0-5.12,0,6.17,6.17,0,0,0-3.15,5.65l.33,12.24A139.39,139.39,0,0,0,111.26,314L104,299c-12-30.86-18.86-24-18.86-24-11.07,3.56,12.53,53.11,16.24,60.73a2.91,2.91,0,0,1,.18,2.05L99.78,344a2.9,2.9,0,0,1-4.12,1.8L80.4,338c-11-6.51-15.34-2.56-17,.88a3.31,3.31,0,0,0,1.52,4.39c6.91,3.49,16.34,13.59,16.34,13.59C85.54,365,95.4,370.09,95.4,370.09c5.31,2.8,13.46,10.27,18.5,15.13a11.34,11.34,0,0,1,3.24,10.35c-15.35,77.72,7.66,172.47,13,192.73-33.7,7.8-53.13,17-53.13,26.77,0,28.36,162.55,51.35,363.06,51.35s363.07-23,363.07-51.35C803.15,605.58,785,596.7,753.28,589.07Z" fill="#99b1b8" data-primary="true"/>
<path d="M753.28,589.07c.15-115-18-177-18-177C713,311.81,640.11,224.38,640.11,224.38l-45.85-55.29-9.86-27.86c-3.43-10.71-13.29-18.85-13.29-18.85-12,5.57,1.29,18,1.29,18L575,160.52S563,146.81,561.68,146s-22.28-15.43-22.28-15.43c-14.57,9,9.86,20.57,9.86,20.57C560.4,162.66,560,173.81,560,173.81c-8.14-9-38.57-27-38.57-27-13.72,12.42,15.86,24.85,15.86,24.85,5.14,3.86,12.85,18,12.85,18l-38.57-13.28C504.68,184.52,515,188,515,188l34.57,17.57c25.14,16.57,9.72,22.86,9.72,22.86l-11.43,3.43c-22.29-6.29-21.72,8-21.72,8L549,245,595.56,241a17.57,17.57,0,0,1,14,5.23c25.64,26.12,52,79.26,52,79.26,50,101.62,35.78,228.11,32.36,252.82q-6-.83-12.32-1.62c-1-18.48-6.6-95.75-30.51-138.42a8.3,8.3,0,0,1-.71-6.72c1.57-4.62,2.36-15.72-9-39.43a19.47,19.47,0,0,1-1.87-7.14l-2-30.47a13.64,13.64,0,0,0-1.54-5.48L620.61,319.7a3.8,3.8,0,0,0-5.84-1.1c-4.49,3.85-9,13.15,8.82,33l-1.2,13.2-4.8-9.6-29.47-25.72a4.27,4.27,0,0,0-6.83,1.78c-1.2,3.32-1.11,8.13,4.51,13.75l21.59,17.39,1.8,16.8-18.59-3-31.5,1.08a3.85,3.85,0,0,0-3.71,4.06c.34,5.39,4.83,13.66,31.61,6.85l13.8,7.2-16.8,4.8-16,9a3.22,3.22,0,0,0-.68,5.12c3,2.83,8.9,5.42,18.58-1.61a8.67,8.67,0,0,1,6.93-1.44l5.41,1.18a6.64,6.64,0,0,1,5.12,5.25c1.8,9.35,6.79,31.28,15.2,38.42a18,18,0,0,1,5,7.18c5.89,14.89,19.66,58.13,5.11,107.85-55-4.73-119.53-7.46-188.6-7.46-62.38,0-121.08,2.22-172.36,6.14-36.56-138.3-6.6-346.07.93-392.88a14.42,14.42,0,0,1,9.72-11.38c19.15-6.36,33.94-26.15,38.92-33.54a4.1,4.1,0,0,1,5-1.48L332.75,135a15.74,15.74,0,0,1,7.89,7.5c6.13,12.22,12.87,12.58,17.1,11.1a4.12,4.12,0,0,0,2.14-6l-8.62-14.5c-2.13-5.46-10-13.28-14.49-17.38a1.54,1.54,0,0,1,1.08-2.68l10.48.21a15.62,15.62,0,0,1,10.56,4.34,141.73,141.73,0,0,0,13.79,11.23c9.92,6.91,16.26-.09,19.16-4.89a4.13,4.13,0,0,0-1.37-5.66L356.83,97.52l-19.26-7.17a2,2,0,0,1-.8-3.09L346.34,76a11.94,11.94,0,0,1,8-4.16C394,68.18,397,56.64,395.67,50.64A4,4,0,0,0,391,47.55L343.07,56.6a11.88,11.88,0,0,0-5.91,3L332.4,64a1.16,1.16,0,0,1-1.84-1.33l3.13-6.79a11.87,11.87,0,0,1,6.61-6.11c6-2.26,16.61-7.25,23.38-16.09,7.05-9.18,3.15-14.21.35-16.33a3.31,3.31,0,0,0-3.81-.1l-35.42,23a15.92,15.92,0,0,0-5,5.22L313.54,56C307.54,66.66,296,80.38,296,80.38L275,95c-14.57,11.43-17.2,20.81-17.34,25.79a14.09,14.09,0,0,1-2.7,8c-96.51,130-47.84,411.89-41.47,446.15q-10,1.14-19.46,2.37c-39.85-63.3-35.6-201.22-35.6-201.22,4.36-15.1,1.63-42.82.24-54.13a18.25,18.25,0,0,1,1.51-9.8l6.39-14.07c6.86-16.28-.43-17.14-.43-17.14-6.85-2.66-18.09,25.07-20.52,31.33a.33.33,0,0,1-.63-.09l-2.55-22.66a88.26,88.26,0,0,1-.58-10.9c.21-19.48-6.15-16.11-6.15-16.11-7.89-3.76-8.2,34.39-8.16,43.79a.41.41,0,0,1-.8.14c-3-8.18-7.54-31.6-9-39.3A7.19,7.19,0,0,0,114,262a5.29,5.29,0,0,0-5.12,0,6.17,6.17,0,0,0-3.15,5.65l.33,12.24A139.39,139.39,0,0,0,111.26,314L104,299c-12-30.86-18.86-24-18.86-24-11.07,3.56,12.53,53.11,16.24,60.73a2.91,2.91,0,0,1,.18,2.05L99.78,344a2.9,2.9,0,0,1-4.12,1.8L80.4,338c-11-6.51-15.34-2.56-17,.88a3.31,3.31,0,0,0,1.52,4.39c6.91,3.49,16.34,13.59,16.34,13.59C85.54,365,95.4,370.09,95.4,370.09c5.31,2.8,13.46,10.27,18.5,15.13a11.34,11.34,0,0,1,3.24,10.35c-15.35,77.72,7.66,172.47,13,192.73-33.7,7.8-53.13,17-53.13,26.77,0,28.36,162.55,51.35,363.06,51.35s363.07-23,363.07-51.35C803.15,605.58,785,596.7,753.28,589.07Z" fill="#fff" opacity="0.63"/>
<path d="M440.87,646.32s-5.75,6.08-.34,7.09a140.7,140.7,0,0,0,19.6,1s4.89.51,7.48-5.64a13.27,13.27,0,0,1,3.19-4.67c2.05-1.87,4.3-5.58.82-11.66Z" fill="#000000" data-secondary="true"/>
<path d="M454.05,619.28s-1.69,13.86-8.45,19.6c0,0-12.17,11.83-3,12.17,0,0,18.92,3.38,23.32-4.06,0,0,.67-5.41,4.39-6.42,0,0,3-1.69,1.35-8.11l-2-12.84-6.76-3.38-5.07-2.37Z" fill="#99b1b8" data-primary="true"/>
<path d="M425.58,614.62s-2.29,5.67,2.78,5c0,0,14.87-.68,17.91-18.59,0,0,.29-14.75,4.35-19.9a17,17,0,0,0,2.43-4c1.56-3.78,3.23-9.94-2.38-9.94l-12.17,24Z" fill="#000000" data-secondary="true"/>
<path d="M425.58,614.62s-2.29,5.67,2.78,5c0,0,14.87-.68,17.91-18.59,0,0,.29-14.75,4.35-19.9a17,17,0,0,0,2.43-4c1.56-3.78,3.23-9.94-2.38-9.94l-12.17,24Z" opacity="0.2"/>
<path d="M455.06,609.48l-1,9.8s4.16-3.86,6.35-1.56a6.23,6.23,0,0,0,1.33,1.12c1.86,1.08,6,3.11,7.86.78l.68-14.87Z" fill="#f9b499"/>
<path d="M420.93,561.83,427.69,575s10.47,0,17.23-11.16c0,0-5.41.34-12.84-13.18Z" fill="#f9b499"/>
<path d="M425.58,614.63c-.09-1.11,0-3.9,1.43-9.54,0,0,1.69-22-1-28.73,0,0-4.73-6.76,4.05-6.76,0,0,10.14.68,9.13-8.45l11.49,6.08s2.63,4.39-2.18,11.54a22,22,0,0,0-2.49,4.94,50.94,50.94,0,0,0-3.11,16s-3.28,16.1-16.66,15.58A.68.68,0,0,1,425.58,614.63Z" fill="#99b1b8" data-primary="true"/>
<ellipse cx="383.95" cy="248.3" rx="21.12" ry="30.11" transform="translate(-62.52 149.63) rotate(-20.43)" fill="#f9b499"/>
<path d="M354.49,314.06s-11.79-1.91-10-12.29a12,12,0,0,1,1.6-4.1c1.31-2.18,3.23-7.12-2.38-11.85,0,0-12.59-7.48-1.57-20.07a42.86,42.86,0,0,0,8.47-9.61,20.88,20.88,0,0,0,2.74-14.79c-1.54-8.67-1.59-29.37,29.73-38.58,0,0,29.52-7.48,42.11,17.32,0,0,4.33-2.76,7.88,8.66a7.12,7.12,0,0,0,8.26,4.33s13.78-1.58,14.17,11.41c0,0-14.56-8.26-18.89-.78l-16.93,16.53s.79-5.91-6.69-6.69l-10.23-.4s3.23-6.73,1-12.22c0,0-11.26,8.68-20.7-7.85,0,0-9.06-15.75-16.14-8.27,0,0-8.19,8.1-4.25,25.81Z" fill="#000000" data-secondary="true"/>
<path d="M387.76,302.36s-8.84,20.6-25.84,18.82a8.68,8.68,0,0,1-6.95-4.76c-2.48-5.09-4.66-16.22.64-39.7,0,0,3.91-18,7-26.1,0,0,4.48,18.61,18,24.66a16.84,16.84,0,0,0,9.3,2.18S386.49,297.44,387.76,302.36Z" fill="#99b1b8" data-primary="true"/>
<path d="M387.76,302.36s-8.84,20.6-25.84,18.82a8.68,8.68,0,0,1-6.95-4.76c-2.48-5.09-4.66-16.22.64-39.7,0,0,3.91-18,7-26.1,0,0,4.48,18.61,18,24.66a16.84,16.84,0,0,0,9.3,2.18S386.49,297.44,387.76,302.36Z" opacity="0.2"/>
<g opacity="0.2">
<path d="M380.68,275.28c.11,2.12.11,4.24.09,6.36s-.09,4.23-.17,6.34-.22,4.23-.4,6.34l-.29,3.16c-.13,1-.23,2.11-.39,3.16-.06-1.06-.06-2.12-.1-3.18v-3.18c0-2.12.09-4.23.17-6.34s.22-4.23.4-6.34S380.37,277.38,380.68,275.28Z"/>
</g>
<path d="M485.76,452C468.13,487.79,474,523,474,523c7.84,19.59-1.46,83.24-1.46,83.24,0,8.82-17.63,6.37-17.63,6.37-6.37-.49-4.9-5.38-4.9-5.38,6.36-31.34-10.29-86.68-10.29-86.68-4.89-18.6-2-29.87-2-29.87.49-15.67,5.38-53.37,5.38-53.37-6.36,4.9-14.69,28.4-14.69,28.4-2.79,10-9.48,27.4-11.86,33.54a5,5,0,0,0,.25,4.18,73.92,73.92,0,0,1,7.21,20.06c.42,8.78,8,22.18,10.17,25.93a6.54,6.54,0,0,1,.84,2.46c1.52,12.06-9.94,14.26-15.26,14.64a4.3,4.3,0,0,1-3.92-2l-29.54-46.43c-15-27,19.57-127.86,20.55-130.68a10.45,10.45,0,0,0,5.18,3.09S447.82,407,489.89,373C506.75,399.17,485.76,452,485.76,452Z" fill="#000000" data-secondary="true"/>
<path d="M440.22,418.74s4.4,12.74,2.93,18.61" fill="none" stroke="#000" stroke-miterlimit="10" opacity="0.2"/>
<path d="M402.72,253.15s4.34-27.81-3.68-36.51c0,0-16.39-10-11.71-13.38,0,0,.33-2,7.36,4.35,0,0,4.35,4.68,7,3.34,0,0,3.68-2-4.68-6,0,0-12.71-7-4.68-7.69a13.1,13.1,0,0,1,9.36,1.34s7-4,12.71,3.68c1.34.67,3.68,4.35,3.68,4.35s8.36.33,5.69,16l-7,32.11S414.09,252.88,402.72,253.15Z" fill="#f9b499"/>
<path d="M392.35,197.24a38.23,38.23,0,0,1,9.4,3.83,24.33,24.33,0,0,1,4.18,3,8.16,8.16,0,0,1,2.8,4.25,10.24,10.24,0,0,0-3.3-3.65,38.65,38.65,0,0,0-4.18-2.69C398.36,200.27,395.35,198.8,392.35,197.24Z" fill="#f7a48b"/>
<path d="M401.71,198.58a21.65,21.65,0,0,1,8.37,3.35,13.87,13.87,0,0,1,3.36,3.13,8.15,8.15,0,0,1,1.65,4.22,11,11,0,0,0-2.26-3.73,17.74,17.74,0,0,0-3.31-2.79,33.39,33.39,0,0,0-3.79-2.24C404.42,199.85,403.09,199.19,401.71,198.58Z" fill="#f7a48b"/>
<path d="M418.1,206.61a8.26,8.26,0,0,1,1.5,2.11,11.75,11.75,0,0,1,.94,2.43,10.23,10.23,0,0,1,.34,2.59,7.41,7.41,0,0,1-.44,2.56c-.12-.86-.19-1.68-.34-2.5a24.44,24.44,0,0,0-.53-2.4C419.17,209.8,418.63,208.25,418.1,206.61Z" fill="#f7a48b"/>
<path d="M489.89,373c-42.07,34-77.81,17.59-77.81,17.59a10.45,10.45,0,0,1-5.18-3.09h0c-3.07-3.69-.29-8.43-.29-8.43,1.68-3.62,2.84-10,3.6-16a55.65,55.65,0,0,0-1.83-22.88A111.34,111.34,0,0,1,405.17,326c-8.07,3.17-13.26-1.45-13.26-1.45-10.66-19.59.58-58.49.58-58.49,1.15-15.27,10.23-12.91,10.23-12.91l9.36.23c7.78-.29,7.57,6.86,7.57,6.86l16.92-16.53c4.89-7.09,18.89.78,18.89.78,21.77,13.3,26.93,69.41,26.93,69.41.87,21.9,7.21,44.94,7.21,44.94C492.77,371.24,489.89,373,489.89,373Z" fill="#99b1b8" data-primary="true"/>
<path d="M418.42,306.11s1.16-8.64-.57-15.85a108.55,108.55,0,0,1-.29-16.71s2.15-7.9,2.08-13.31" fill="none" stroke="#000" stroke-miterlimit="10" opacity="0.2"/>
<path d="M405.17,325.13s13-4.32,27.66-22.47l21-21.9" fill="none" stroke="#000" stroke-miterlimit="10" opacity="0.2"/>
<path d="M416.37,347s-5.34-6.4-10.68-19.57" fill="none" stroke="#000" stroke-miterlimit="10" opacity="0.2"/>
<path d="M418.51,350.93s13.17,10.32,35.24,4.63" fill="none" stroke="#000" stroke-miterlimit="10" opacity="0.2"/>
</svg>