<svg xmlns="http://www.w3.org/2000/svg" data-name="Layer 1" width="382.36137" height="474.41006" viewBox="0 0 382.36137 474.41006" xmlns:xlink="http://www.w3.org/1999/xlink"><path d="M441.82522,394.42328c-10.69953,32.60606-2.29363,70.71713,21.05665,95.85043C474.91567,457.90114,466.44221,418.72437,441.82522,394.42328Z" transform="translate(-407.2455 -210.34375)" fill="#fbe427"/><path d="M545.00632,479.46265c-10.69952,32.60606-2.29363,70.71713,21.05666,95.85043C578.09677,542.94051,569.62331,503.76374,545.00632,479.46265Z" transform="translate(-407.2455 -210.34375)" fill="#fbe427"/><path d="M746.34948,246.48734c7.43022,30.7188-2.33723,65.0184-24.83543,87.21466l10.70467-1.1936a55.27224,55.27224,0,0,0,14.13076-86.02106Z" transform="translate(-407.2455 -210.34375)" fill="#fbe427"/><path d="M655.20932,210.34375c-8.84406.2192-8.82113,13.1761,0,13.41926C664.05379,223.54381,664.03066,210.587,655.20932,210.34375Z" transform="translate(-407.2455 -210.34375)"/><path d="M782.98219,382.58093c-8.84407.2192-8.82113,13.17611,0,13.41926C791.82666,395.781,791.80352,382.82419,782.98219,382.58093Z" transform="translate(-407.2455 -210.34375)"/><path d="M476.79815,334.40862c-8.84406.2192-8.82113,13.17611,0,13.41926C485.64263,347.60868,485.61949,334.65188,476.79815,334.40862Z" transform="translate(-407.2455 -210.34375)"/><path d="M723.49694,333.7778c-12.73315,5.022-25.16972,10.75841-37.48627,16.72091-15.566,7.69938-30.9554,15.83064-45.99174,24.55736C654.46564,364.20939,668.91642,350.35,669.421,331.2446a93.96842,93.96842,0,0,0-11.25672-44.13645c-4.903-9.09961-12.274-16.57132-20.34949-22.91313-7.06866-5.8955-16.35195-11.22117-25.83976-9.07733A9.15308,9.15308,0,0,0,605.4925,266.066c1.67162,5.4205,5.70353,9.77709,8.52178,14.63461a187.40214,187.40214,0,0,1,13.31754,25.52484c7.663,18.61918,18.305,44.81523,4.18107,73.85605-9.11259,5.48867-18.08533,11.20326-26.846,17.2332-20.93738,14.66491-40.56031,31.04221-59.80685,47.843-6.96845-6.23926-14.95011-12.10928-17.86218-21.32834-4.001-12.49746-5.1267-19.96552-4.23525-32.84127,1.14956-16.8539,2.87128-26.94562,6.574-44.59571a367.02776,367.02776,0,0,0,5.47862-38.51872,126.86669,126.86669,0,0,1,5.85792,13.45082c4.27254,12.07941,6.48077,24.74672,8.78455,37.31541,2.54151,14.20155,4.35237,23.67989,4.57086,37.98705.3863,11.89588-1.23463,22.02314-4.49336,33.65989-1.068,3.33914.86406-1.39049,1.46069-2.63575,10.43111-22.78946,10.03141-48.44015,7.55342-72.87749-1.56266-20.68043-5.323-41.435-15.24085-59.87341-2.5147-4.53663-5.29159-9.26538-9.71912-12.16871-4.32556-2.50785-10.30059-.58119-11.91569,4.26453-1.53818,4.48958-1.12742,9.47353-1.79455,14.1532-1.11052,18.62355-3.33506,37.18373-5.24148,50.77642-2.93653,26.37463-5.00609,55.96343,10.684,78.91472,4.93792,6.51908,12.28917,10.40081,19.14866,14.65529q-9.86187,8.61384-19.63226,17.32148c-17.09657,16.16886-33.99389,32.85526-49.90128,50.39741-9.36137-2.86181-18.94473-5.88953-25.74421-13.32511a44.6923,44.6923,0,0,1-10.36119-19.18463c-4.37276-14.135-4.3075-21.50386-6.24538-36.04364-3.25525-21.171-4.22535-29.53563-6.52972-45.1804,2.09229,1.78654,4.42229,3.89732,7.88146,6.72228,9.71037,7.83105,15.06605,14.69491,20.87154,25.63685,8.065,15.75766,13.73412,28.768,18.44889,47.55031,1.1484,5.19516,2.58112,10.52448,3.03326,15.08616a88.23674,88.23674,0,0,1,.18237,10.12216c.12934-.53836.26219-1.07644.39328-1.615,4.191-19.46794-.5238-39.68517-5.70993-58.531-5.4-18.06581-13.41542-35.94051-28.17326-48.26755-4.94433-4.62985-9.73834-9.4846-15.32009-13.35657-3.525-2.44376-7.65247-5.15059-12.12952-4.03861a8.40768,8.40768,0,0,0-6.34967,7.303c1.69317,18.87132,5.62836,37.75443,9.757,56.29582,4.84,21.969,8.14014,47.59766,27.04816,62.34952,8.1786,6.387,18.379,8.0258,28.425,9.06189-26.335,29.1135-49.92984,60.58643-67.16917,95.97168,19.18362-27.97851,43.32555-53.55739,68.694-78.22982-2.50072,8.54712-4.87325,17.14-6.53379,25.88856-1.57548,10.52855-2.34806,21.1665-3.21388,31.7724,6.51865-19.08937,9.993-39.18876,11.44433-59.30125,7.74686-7.50667,15.5951-14.936,23.44917-22.32248a1229.11123,1229.11123,0,0,1,107.88329-94.68592c14.66694-11.27711,48.31183-35.10092,69.82661-49.72038,15.18317-10.15144,30.452-20.20135,46.23178-29.407q1.53383-.89974,3.08511-1.76746C726.56573,332.57,725.02988,333.17082,723.49694,333.7778Zm-91.81509,46.2009c3.98239-6.425,7.96536-12.90823,10.06055-20.23427a80.16244,80.16244,0,0,0,1.82834-32.86123c-2.59044-17.45578-6.80414-31.53541-15.10626-49.33015-.84425-1.738-1.75959-3.43557-2.70056-5.11883.43465.28724.90077.59415,1.44438.948,2.37137,1.63476,11.95007,9.0616,17.19679,15.73974.46029.71229,4.001,5.74256,4.55571,6.9147a100.53936,100.53936,0,0,1,5.50659,11.14092l.02155.05389c4.2574,11.52313,7.04536,20.18431,6.37706,30.62576-1.94312,15.39088-12.517,27.0773-23.20212,38.56955Q634.66266,378.18627,631.68185,379.9787Z" transform="translate(-407.2455 -210.34375)"/><path d="M765.52143,250.44953c-5.27527-10.05719-13.55817-18.277-23.05121-24.40179a60.98745,60.98745,0,0,0-17.60931-7.681c-5.83753-3.21708-13.67761-.41208-12.80714,7.18825,1.10178,5.03085,5.12146,9.36239,7.06225,14.19733,9.00712,16.88056,12.29383,30.57085,12.23556,51.905.0169,6.63823.19461,13.37405-1.29813,19.88555-1.90409,7.19437-4.907,14.04512-7.4468,21.02813,3.68757-6.65309,7.80338-13.11026,10.86751-20.08511,2.70465-6.57283,3.65494-13.67266,4.63845-20.663,1.565-11.56188,2.51761-23.39366.56633-34.9669a134.7736,134.7736,0,0,0-5.89288-20.6213c17.04006,9.76515,30.38731,29.50606,33.66236,55.52571.74929,5.9009.53662,23.45674-5.39064,34.22433-3.56521,6.58958-9.42662,10.44888-16.56,15.14544a57.75732,57.75732,0,0,1-10.0821,5.20959,45.24318,45.24318,0,0,0,4.45607-1.038c10.17067-3.4481,21.07605-7.89368,27.38727-17.03554C780.86716,304.83661,778.7539,274.01639,765.52143,250.44953Z" transform="translate(-407.2455 -210.34375)"/><path d="M625.40617,403.13115c6.45747,24.06269,6.92941,49.38638,14.1618,73.322C639.3384,451.5499,638.4691,425.11234,625.40617,403.13115Z" transform="translate(-407.2455 -210.34375)"/><path d="M649.90352,478.85326a32.24111,32.24111,0,0,0-6.99466-.55584q.88358.17546,1.752.4128c6.41144,1.57067,13.793,6.2011,16.47082,9.86915,4.80391,6.57691,4.96006,10.12027,5.32363,18.019.321,9.53151-.60129,16.20353-4.53531,22.31971-9.66726,15.577-25.45172,24.63354-35.74241,22.9915-6.34035-.69408-13.17421-13.62372-14.28065-17.02069a168.88243,168.88243,0,0,1-7.00282-21.80086c-1.872-6.60123-3.11191-11.20763-2.43313-15.0161a17.83691,17.83691,0,0,1,6.34967-11.82115,36.66333,36.66333,0,0,1,5.51882-2.60079c8.51654-3.67023,16.30477-4.21748,25.47678-4.19884-11.18564-2.84374-23.025-3.1272-33.95311.95205-7.8931,3.95456-12.253,12.72935-12.80189,21.29672-.29657,5.88881,1.13091,11.68438,2.00139,17.47574,4.17058,27.834,18.21234,58.8146,51.04851,41.03443,15.33874-9.57971,28.93711-28.92064,28.25716-45.62743C674.00816,497.15475,669.02945,482.24383,649.90352,478.85326Z" transform="translate(-407.2455 -210.34375)"/><path d="M680.12653,364.97105c1.06274,16.40629,5.59689,32.20808,10.63212,47.77332C690.31176,396.294,685.361,380.43782,680.12653,364.97105Z" transform="translate(-407.2455 -210.34375)"/><path d="M744.08356,415.63794c-3.15386-3.34308-7.6851-4.8769-12.00949-6.078a51.29739,51.29739,0,0,0-20.2854-.7857,55.49533,55.49533,0,0,0-11.70652,3.51234,59.41115,59.41115,0,0,1,13.75044-.52409c8.07722.36036,21.71055,5.80111,23.95024,9.19794,2.30611,2.88686.67878,8.739-1.72347,15.52824-2.72678,7.47068-3.0653,9.09233-7.73112,16.67925-5.43318,8.65463-20.95486,19.13191-23.86693,21.44254-7.0034,2.56378-6.30772,2.69007-12.59447,2.58622-.49408-.0523-.8932-.089-1.16937-.11056-3.472-.62736-4.25506-1.55246-4.7206-1.80766-.61818-.93223-.82852-.228-2.69182-3.60541-2.619-4.393-4.392-13.80623-6.38172-22.0163-1.54867-5.15918-1.67977-9.982-1.33309-15.49838.45737-5.2792.13983-7.60542,1.98332-12.54014.63509-1.61072,3.15794-2.49445,4.17582-2.98912,3.42247-1.28517,8.178-2.72605,12.07709-3.97816-6.27451.88242-14.1548-.38236-19.14283,4.18093-3.7569,5.06741-4.58775,11.70389-5.75246,17.75525-1.63316,8.34684.40435,16.74277,1.33076,25.05975,1.188,8.19112,2.80136,17.47937,9.57112,22.993,9.92829,8.04153,27.44321,4.76692,35.2629-2.21449,16.4982-12.27591,27.06156-24.53653,31.24263-46.93343C747.68431,428.94848,749.353,420.90972,744.08356,415.63794Z" transform="translate(-407.2455 -210.34375)"/><path d="M519.36987,529.08812a106.02035,106.02035,0,0,0-2.03926,16.31044c1.015-2.96523,2.04276-5.92638,3.13114-8.86554,2.15113-6.09069,4.90588-11.33742,8.48449-18.38539a129.813,129.813,0,0,0,14.3797-45.17647C536.10812,491.50047,524.44355,509.29855,519.36987,529.08812Z" transform="translate(-407.2455 -210.34375)"/><path d="M589.32466,630.54642c-.82327-3.144-1.431-6.34137-2.08587-9.52392a487.854,487.854,0,0,1-6.77267-48.99134c-.74812-11.26721-.25054-22.60142-1.57723-33.82973-.88678-8.903-4.42869-16.82259-7.3862-23.558-5.25779-11.49342-9.83389-24.61883-20.17761-32.54907a31.08629,31.08629,0,0,1,6.052,10.08531,126.966,126.966,0,0,1,4.77769,14.02836c2.29854,9.44833,5.60273,18.69274,6.877,28.358.93923,11.7291-2.46051,36.627-.60537,52.81189a262.67832,262.67832,0,0,0,3.99928,31.66156c-3.72543-2.064-7.57031-3.93009-11.44782-5.70381-7.39494-3.57147-20.18752-11.66006-24.21709-14.06027-7.381-5.6336-10.99045-10.464-15.45993-18.08489-3.34672-5.81276-4.19039-14.3207-6.05486-21.81892.35542,9.24834-.47194,18.96658,3.85829,27.46462,5.60621,15.021,18.8515,23.88236,31.19835,33.03106,11.67972,7.87883,19.37065,11.08105,27.31852,19.50509a7.27392,7.27392,0,0,0,12.12952-3.17279C590.335,634.27274,589.76981,632.40943,589.32466,630.54642Z" transform="translate(-407.2455 -210.34375)"/><path d="M651.24128,489.62231c-6.65382,2.39278-13.52671,4.26584-19.91426,1.3293-2.86953-2.38447-3.85187-6.45265-5.827-9.55408,1.16821,3.79652,1.38029,8.40074,4.212,11.39044,7.917,5.78232,19.2949,1.73512,25.91492-4.29017a30.01937,30.01937,0,0,0,2.43954-2.804A32.31567,32.31567,0,0,1,651.24128,489.62231Z" transform="translate(-407.2455 -210.34375)"/><path d="M710.80866,423.04337c-9.16327,11.53653-15.84214,4.57872-26.57972-1.09931,4.66408,3.93723,8.99721,9.44163,15.3498,10.4113,6.79249.75642,12.00833-5.33981,13.804-11.32839a25.23538,25.23538,0,0,0,.89785-3.71509A35.45179,35.45179,0,0,1,710.80866,423.04337Z" transform="translate(-407.2455 -210.34375)"/><path d="M505.85365,621.85917c-2.02586-13.90367-3.4883-30.496-19.0263-35.723a53.727,53.727,0,0,0-6.24363-1.6971,54.04055,54.04055,0,0,1,6.56409,3.42974c3.99054,2.22629,7.124,6.81667,8.71055,10.50511,3.02627,7.40309,2.75534,15.74309,3.34439,25.03192,1.75959,13.0131-.70558,25.15209-5.17564,34.05609-3.56,7.11235-6.33977,9.18526-9.88226,10.62294-14.94428,5.09349-26.85007,5.66565-35.09218,1.96614-4.93384-3.65261-4.08318-3.897-4.51667-14.05473-.30822-14.41218-2.1319-28.76042-2.20007-43.17449-.162-3.85479,1.35174-8.36855,2.97383-11.66487,2.17443-4.29526,3.76272-7.84343,7.11643-10.64756,4.01152-1.83431,8.53868-2.33757,12.77044-3.53593-13.10954.326-15.7093-.60624-23.72942,10.94515-5.16458,6.40765-6.64217,14.53424-7.15315,22.53659-.72714,10.52171-1.022,21.07008-1.3395,31.61073.07167,5.56237-.82677,11.2506.44922,16.7212a21.7386,21.7386,0,0,0,5.7915,9.33472c12.85375,11.019,37.71059,6.54384,51.61019-.69772,10.13629-6.18391,14.39893-18.4556,16.15677-29.64531C508.76455,639.1221,507.506,630.42392,505.85365,621.85917Z" transform="translate(-407.2455 -210.34375)"/><path d="M474.44322,606.21193a13.12807,13.12807,0,0,1-8.8434,5.43419c-7.68976,1.04672-4.82839-17.06788-5.2042-22.27207-1.625,6.90391-4.09017,14.462-1.44438,21.40422,2.56015,6.05355,10.4416,3.70475,13.91359-.21718a20.83007,20.83007,0,0,0,3.93344-7.65568A35.124,35.124,0,0,1,474.44322,606.21193Z" transform="translate(-407.2455 -210.34375)"/><path d="M459.67045,490.79177c-.16089-.16992-.31384-.34668-.47314-.51806-.3125.84033-.63819,1.67676-.983,2.50586Z" transform="translate(-407.2455 -210.34375)" fill="#fbe427"/><path d="M634.59674,527.90115c-6.74658-.83594-12.36756-5.95361-15.53443-11.96924-3.167-6.01562-4.269-12.87646-5.17041-19.61475l.40137-4.79052a81.52832,81.52832,0,0,0,2.11255,44.31054c2.0542,6.09864,5.85315,12.74512,12.23254,13.58985,6.53943.86621,11.92932-4.77686,16.08948-9.896,3.58875-4.41553,7.24048-8.94092,9.18652-14.2876,1.94605-5.34716,1.90418-11.76416-1.54467-16.28955C654.24664,518.85964,644.60223,529.14138,634.59674,527.90115Z" transform="translate(-407.2455 -210.34375)" fill="#fbe427"/><path d="M492.67992,640.747c-2.41455,6.09815-8.88183,11.13282-15.262,9.61231-4.06946-.96973-7.13879-4.26856-9.642-7.62061a71.41135,71.41135,0,0,1-12.67883-28.26806,61.78656,61.78656,0,0,0-12.83569,38.43017c.085,5.40381.99707,11.05762,4.28784,15.34473,5.07556,6.61182,14.62036,8.25879,22.77832,6.54834a36.57943,36.57943,0,0,0,24.50952-53.49219C494.48473,627.82857,495.09472,634.64839,492.67992,640.747Z" transform="translate(-407.2455 -210.34375)" fill="#fbe427"/><path d="M451.74223,617.12869c.10449.58349.22,1.16553.33911,1.74658.44006-.56885.88257-1.13574,1.34326-1.688Z" transform="translate(-407.2455 -210.34375)" fill="#fbe427"/></svg>