<?xml version="1.0" standalone="no"?>
<!DOCTYPE svg PUBLIC "-//W3C//DTD SVG 20010904//EN"
 "http://www.w3.org/TR/2001/REC-SVG-20010904/DTD/svg10.dtd">
<svg version="1.0" xmlns="http://www.w3.org/2000/svg"
 width="1024.000000pt" height="768.000000pt" viewBox="0 0 1024.000000 768.000000"
 preserveAspectRatio="xMidYMid meet">

<g transform="translate(0.000000,768.000000) scale(0.100000,-0.100000)"
fill="#000000" stroke="none">
<path d="M4380 4559 c-86 -39 -137 -110 -147 -203 -11 -104 41 -198 136 -248
128 -67 288 -1 341 139 24 64 25 93 5 159 -41 140 -202 213 -335 153z"/>
<path d="M5664 4566 c-50 -22 -106 -78 -130 -131 -97 -207 117 -427 321 -331
115 53 174 177 140 294 -21 71 -98 154 -160 171 -54 15 -133 13 -171 -3z"/>
<path d="M4189 3579 l-46 -50 51 -84 c213 -351 621 -556 1023 -515 251 26 493
140 666 315 71 71 153 179 188 248 l20 38 -43 47 c-23 26 -45 48 -48 50 -3 1
-12 -14 -19 -33 -34 -94 -176 -266 -291 -352 -70 -52 -215 -125 -302 -152
-365 -111 -767 16 -1010 318 -36 45 -83 114 -103 152 -20 38 -37 69 -38 68 -1
0 -23 -23 -48 -50z"/>
</g>
</svg>
