<?xml version="1.0" standalone="no"?>
<!DOCTYPE svg PUBLIC "-//W3C//DTD SVG 20010904//EN"
 "http://www.w3.org/TR/2001/REC-SVG-20010904/DTD/svg10.dtd">
<svg version="1.0" xmlns="http://www.w3.org/2000/svg"
 width="1024.000000pt" height="768.000000pt" viewBox="0 0 1024.000000 768.000000"
 preserveAspectRatio="xMidYMid meet">

<g transform="translate(0.000000,768.000000) scale(0.100000,-0.100000)"
fill="#000000" stroke="none">
<path d="M4204 4792 c-230 -111 -231 -427 -2 -541 150 -75 341 -7 411 147 33
73 30 180 -6 254 -51 105 -137 159 -262 165 -72 4 -86 1 -141 -25z"/>
<path d="M5770 4803 c-66 -24 -152 -114 -175 -182 -23 -69 -17 -179 13 -236
67 -129 233 -196 373 -150 72 24 159 110 182 179 50 146 -13 309 -145 377 -57
30 -183 36 -248 12z"/>
<path d="M6304 3895 c-37 -15 -59 -68 -49 -114 8 -38 24 -50 79 -64 l45 -12
-29 -85 c-69 -199 -183 -381 -304 -483 -179 -152 -354 -236 -592 -284 -127
-25 -491 -25 -618 0 -416 84 -688 289 -914 688 -18 31 -32 59 -32 62 0 2 14
10 30 17 73 30 92 109 41 161 -16 16 -38 29 -48 29 -10 0 -88 -21 -173 -46
-125 -37 -160 -52 -182 -75 -37 -38 -37 -79 0 -119 29 -32 53 -38 118 -26 l42
7 56 -105 c157 -297 360 -503 631 -641 360 -183 895 -216 1295 -78 283 97 536
299 686 548 45 74 102 204 138 313 l28 82 55 -2 c51 -2 57 0 84 30 31 34 36
66 18 106 -15 32 -37 40 -204 71 -77 14 -147 28 -155 30 -8 2 -29 -2 -46 -10z"/>
</g>
</svg>
