<svg width="688" height="431" viewBox="0 0 688 431" fill="none" xmlns="http://www.w3.org/2000/svg">
<path d="M237.784 203.013C219.277 198.386 177.038 223.752 162.667 365.496C161.757 374.478 162.83 396.197 186.345 404.688C209.86 413.18 299.022 424.556 340.663 429.183M255.747 278.131L242.522 339.591C242.164 341.253 243.258 342.88 244.933 343.176L343 360.5" stroke="black" stroke-width="2"/>
<path d="M441.908 229.141C450 252.681 458.092 355.088 459.615 375.145C459.79 377.446 459.814 379.72 459.589 382.017C458.041 397.817 453.405 406.946 447.5 411.878M374.139 289.562C362.381 290.215 359.986 295.822 360.258 298.543C366.345 323.721 374.014 345.197 381.577 362.5" stroke="black" stroke-width="2"/>
<path d="M364.259 312.424L361.892 299.36C393.451 295.441 418.698 286.024 428.166 281.397L432.111 292.828C425.799 297.4 384.246 307.797 364.259 312.424Z" fill="black" stroke="black" stroke-width="2"/>
<path d="M138.896 112.461L131.212 104.05C128.362 100.93 123.972 99.7285 119.931 100.961L118.156 101.502C113.177 103.021 107.925 100.059 106.604 95.0239V95.0239C104.824 88.24 96.354 85.8669 91.3667 90.7979L91.1684 90.9939C87.5556 94.566 81.6837 94.3693 78.318 90.5635V90.5635C75.1719 87.0061 69.7788 86.5663 66.0979 89.5669L56.3418 97.52" stroke="black" stroke-width="2"/>
<path d="M161.006 79.1779L160.975 69.0363C160.964 65.3126 158.517 62.0347 154.951 60.9647L153.952 60.6653C149.416 59.3045 147.239 54.1323 149.395 49.9152V49.9152C152.242 44.3451 147.483 37.8762 141.334 39.0212L140.531 39.1706C136.269 39.9642 132.347 36.6583 132.408 32.3233V32.3233C132.465 28.2343 128.958 25.0017 124.887 25.3911L112.52 26.5741" stroke="black" stroke-width="2"/>
<path d="M150.479 85.164L141.026 72.1566C137.519 67.3309 132.229 64.1072 126.332 63.2031L121.599 62.4774C114.931 61.455 109.656 56.2515 108.506 49.605V49.605C106.893 40.2947 97.4366 34.4821 88.4234 37.3181V37.3181C81.9524 39.3542 74.9071 36.9793 70.9893 31.4412L70.0456 30.1073C65.9624 24.3354 58.858 21.5163 51.9281 22.9182L38.5587 25.6227" stroke="black" stroke-width="2"/>
<path d="M532.276 128.791L539.96 120.38C542.81 117.26 547.199 116.058 551.241 117.291L553.015 117.832C557.994 119.351 563.247 116.389 564.568 111.354V111.354C566.347 104.57 574.817 102.197 579.805 107.128L580.003 107.324C583.616 110.896 589.488 110.699 592.853 106.893V106.893C595.999 103.336 601.393 102.896 605.074 105.897L614.83 113.85" stroke="black" stroke-width="2"/>
<path d="M510.166 95.5078L510.197 85.3662C510.208 81.6425 512.654 78.3646 516.221 77.2946L517.219 76.9952C521.756 75.6344 523.932 70.4622 521.777 66.2451V66.2451C518.93 60.675 523.688 54.206 529.838 55.3511L530.641 55.5005C534.903 56.2941 538.825 52.9882 538.764 48.6532V48.6532C538.707 44.5642 542.214 41.3316 546.285 41.721L558.652 42.904" stroke="black" stroke-width="2"/>
<path d="M520.692 101.494L530.145 88.4866C533.652 83.6609 538.943 80.4372 544.839 79.5331L549.572 78.8073C556.24 77.785 561.515 72.5814 562.666 65.9349V65.9349C564.278 56.6246 573.735 50.8121 582.748 53.6481V53.6481C589.219 55.6841 596.264 53.3092 600.182 47.7712L601.126 46.4373C605.209 40.6653 612.313 37.8463 619.243 39.2481L632.613 41.9527" stroke="black" stroke-width="2"/>
<path d="M394.87 367.641L356.993 362.23L347.195 361.414L335.764 419.385L380.788 417.428C388.23 417.104 395.642 418.71 402.984 419.964C413.297 421.725 425.619 421.67 433.364 421.217C435.071 421.117 436.504 419.93 436.974 418.286L437.133 417.728C437.544 416.293 438.856 415.303 440.349 415.303H441.331C443.191 415.303 444.478 413.445 443.825 411.704C443.249 410.166 444.187 408.478 445.797 408.156L446.273 408.061C448.45 407.626 449.463 405.099 448.19 403.28L447.041 401.638C446.078 400.264 446.623 398.352 448.165 397.691C449.617 397.069 450.203 395.321 449.419 393.949L448.326 392.035C447.869 391.235 447.182 390.591 446.355 390.185L409.833 372.255C405.118 369.941 400.069 368.384 394.87 367.641Z" stroke="black" stroke-width="2"/>
<path d="M410.066 385.092L445.992 399.789M405.983 394.89L444.359 408.771M402.717 406.321L437.827 416.119" stroke="black" stroke-width="2" stroke-linecap="round" stroke-linejoin="round"/>
<path d="M327.6 428.367C323.028 406.811 331.682 373.661 337.397 358.964L351.278 360.597C339.52 382.153 339.302 415.847 340.663 430L327.6 428.367Z" fill="black"/>
<path d="M451.707 350.799L420.68 256.085C419.591 253.092 418.067 246.777 420.68 245.471C423.946 243.838 450.074 225.059 445.992 198.931C443.234 181.278 441.834 170.536 441.302 165.819C441.16 164.564 440.442 163.431 439.359 162.781V162.781C437.956 161.939 436.162 162.05 434.884 163.073L434.641 163.267C433.597 164.103 432.162 164.255 430.965 163.656V163.656C429.323 162.835 427.326 163.453 426.434 165.058L425.129 167.407C424.443 168.642 422.975 169.213 421.635 168.766V168.766C420.176 168.28 418.589 169.002 417.998 170.422L416.057 175.081C415.429 176.587 413.794 177.409 412.21 177.013V177.013C410.232 176.518 408.285 177.909 408.026 179.931C406.073 195.207 399.041 220.378 382.84 232.824C377.116 237.221 370.723 241.102 369.549 248.223C367.961 257.861 367.994 274.755 373.323 301.809" stroke="black" stroke-width="2"/>
<path d="M432.928 164.638L437.01 200.564M423.13 168.72L428.029 203.83M414.965 176.069L417.414 200.564" stroke="black" stroke-width="2" stroke-linecap="round" stroke-linejoin="round"/>
<path d="M440.276 420.202H686.042" stroke="black" stroke-width="2" stroke-linecap="round" stroke-linejoin="round"/>
<path d="M1 420.202H246.766" stroke="black" stroke-width="2" stroke-linecap="round" stroke-linejoin="round"/>
<rect x="315.501" y="152" width="15" height="15" transform="rotate(-45 315.501 152)" stroke="black"/>
<rect x="322.572" y="152" width="5" height="5" transform="rotate(-45 322.572 152)" fill="black" stroke="black"/>
<rect x="305.602" y="152" width="29" height="29" transform="rotate(-45 305.602 152)" stroke="black"/>
<rect x="294.288" y="152" width="45" height="45" transform="rotate(-45 294.288 152)" stroke="black"/>
<rect x="282.974" y="152" width="61" height="61" transform="rotate(-45 282.974 152)" stroke="black"/>
<rect x="270.246" y="152" width="79" height="79" transform="rotate(-45 270.246 152)" stroke="black"/>
<rect x="258.933" y="152" width="95" height="95" transform="rotate(-45 258.933 152)" stroke="black"/>
<rect x="247.619" y="152" width="111" height="111" transform="rotate(-45 247.619 152)" stroke="black"/>
<rect x="234.891" y="152" width="129" height="129" transform="rotate(-45 234.891 152)" stroke="black"/>
<rect x="222.163" y="152" width="147" height="147" transform="rotate(-45 222.163 152)" stroke="black"/>
<rect x="209.435" y="152" width="165" height="165" transform="rotate(-45 209.435 152)" stroke="black"/>
<rect x="196.707" y="152" width="183" height="183" transform="rotate(-45 196.707 152)" stroke="black"/>
</svg>
