<svg width="688" height="514" viewBox="0 0 688 514" fill="none" xmlns="http://www.w3.org/2000/svg">
<path d="M237.784 286.013C219.277 281.386 177.038 306.752 162.667 448.496C161.757 457.478 162.83 479.197 186.345 487.688C209.86 496.18 299.022 507.556 340.663 512.183M255.747 361.131L242.522 422.59C242.164 424.253 243.258 425.88 244.933 426.176L343 443.5" stroke="black" stroke-width="2"/>
<path d="M441.908 312.141C450 335.681 458.092 438.088 459.615 458.145C459.79 460.446 459.814 462.72 459.589 465.017C458.041 480.818 453.405 489.946 447.5 494.878M374.139 372.562C362.381 373.215 359.986 378.822 360.258 381.543C366.345 406.721 374.014 428.197 381.577 445.5" stroke="black" stroke-width="2"/>
<path d="M364.259 395.424L361.892 382.36C393.451 378.441 418.698 369.024 428.166 364.397L432.111 375.828C425.799 380.4 384.246 390.797 364.259 395.424Z" fill="black" stroke="black" stroke-width="2"/>
<path d="M138.896 195.461L131.212 187.05C128.362 183.93 123.972 182.728 119.931 183.961L118.156 184.502C113.177 186.021 107.925 183.059 106.604 178.024V178.024C104.824 171.24 96.354 168.867 91.3667 173.798L91.1684 173.994C87.5556 177.566 81.6837 177.369 78.318 173.564V173.564C75.1719 170.006 69.7788 169.566 66.0979 172.567L56.3418 180.52" stroke="black" stroke-width="2"/>
<path d="M161.006 162.178L160.975 152.036C160.964 148.313 158.517 145.035 154.951 143.965L153.952 143.665C149.416 142.305 147.239 137.132 149.395 132.915V132.915C152.242 127.345 147.483 120.876 141.334 122.021L140.531 122.171C136.269 122.964 132.347 119.658 132.408 115.323V115.323C132.465 111.234 128.958 108.002 124.887 108.391L112.52 109.574" stroke="black" stroke-width="2"/>
<path d="M150.479 168.164L141.026 155.157C137.519 150.331 132.229 147.107 126.332 146.203L121.599 145.477C114.931 144.455 109.656 139.251 108.506 132.605V132.605C106.893 123.295 97.4366 117.482 88.4234 120.318V120.318C81.9524 122.354 74.9071 119.979 70.9893 114.441L70.0456 113.107C65.9624 107.335 58.858 104.516 51.9281 105.918L38.5587 108.623" stroke="black" stroke-width="2"/>
<path d="M532.276 211.791L539.96 203.38C542.81 200.26 547.199 199.058 551.241 200.291L553.015 200.832C557.994 202.351 563.247 199.389 564.568 194.354V194.354C566.347 187.57 574.817 185.197 579.805 190.128L580.003 190.324C583.616 193.896 589.488 193.699 592.853 189.893V189.893C595.999 186.336 601.393 185.896 605.074 188.897L614.83 196.85" stroke="black" stroke-width="2"/>
<path d="M510.166 178.508L510.197 168.366C510.208 164.642 512.654 161.365 516.221 160.295L517.219 159.995C521.756 158.634 523.932 153.462 521.777 149.245V149.245C518.93 143.675 523.688 137.206 529.838 138.351L530.641 138.501C534.903 139.294 538.825 135.988 538.764 131.653V131.653C538.707 127.564 542.214 124.332 546.285 124.721L558.652 125.904" stroke="black" stroke-width="2"/>
<path d="M520.692 184.494L530.145 171.487C533.652 166.661 538.943 163.437 544.839 162.533L549.572 161.807C556.24 160.785 561.515 155.581 562.666 148.935V148.935C564.278 139.625 573.735 133.812 582.748 136.648V136.648C589.219 138.684 596.264 136.309 600.182 130.771L601.126 129.437C605.209 123.665 612.313 120.846 619.243 122.248L632.613 124.953" stroke="black" stroke-width="2"/>
<path d="M394.87 450.641L356.993 445.23L347.195 444.414L335.764 502.385L380.788 500.428C388.23 500.104 395.642 501.71 402.984 502.964C413.297 504.725 425.619 504.67 433.364 504.217C435.071 504.117 436.504 502.93 436.974 501.285L437.133 500.728C437.544 499.292 438.856 498.303 440.349 498.303H441.331C443.191 498.303 444.478 496.445 443.825 494.704C443.249 493.166 444.187 491.478 445.797 491.156L446.273 491.061C448.45 490.626 449.463 488.099 448.19 486.28L447.041 484.638C446.078 483.263 446.623 481.352 448.165 480.691C449.617 480.069 450.203 478.32 449.419 476.949L448.326 475.035C447.869 474.235 447.182 473.591 446.355 473.185L409.833 455.255C405.118 452.941 400.069 451.384 394.87 450.641Z" stroke="black" stroke-width="2"/>
<path d="M410.066 468.092L445.992 482.789M405.983 477.89L444.359 491.771M402.717 489.321L437.827 499.119" stroke="black" stroke-width="2" stroke-linecap="round" stroke-linejoin="round"/>
<path d="M327.6 511.367C323.028 489.811 331.682 456.661 337.397 441.964L351.278 443.597C339.52 465.153 339.302 498.847 340.663 513L327.6 511.367Z" fill="black"/>
<path d="M451.707 433.799L420.68 339.085C419.591 336.092 418.067 329.777 420.68 328.471C423.946 326.838 450.074 308.059 445.992 281.931C443.234 264.278 441.834 253.536 441.302 248.819C441.16 247.564 440.442 246.431 439.359 245.781V245.781C437.956 244.939 436.162 245.05 434.884 246.073L434.641 246.267C433.597 247.103 432.162 247.255 430.965 246.656V246.656C429.323 245.835 427.326 246.453 426.434 248.058L425.129 250.407C424.443 251.642 422.975 252.213 421.635 251.766V251.766C420.176 251.28 418.589 252.002 417.998 253.422L416.057 258.081C415.429 259.587 413.794 260.409 412.21 260.013V260.013C410.232 259.518 408.285 260.909 408.026 262.931C406.073 278.207 399.041 303.378 382.84 315.824C377.116 320.221 370.723 324.102 369.549 331.223C367.961 340.861 367.994 357.755 373.323 384.809" stroke="black" stroke-width="2"/>
<path d="M432.928 247.638L437.01 283.564M423.13 251.72L428.029 286.83M414.965 259.069L417.414 283.564" stroke="black" stroke-width="2" stroke-linecap="round" stroke-linejoin="round"/>
<path d="M440.276 503.202H686.042" stroke="black" stroke-width="2" stroke-linecap="round" stroke-linejoin="round"/>
<path d="M1 503.202H246.766" stroke="black" stroke-width="2" stroke-linecap="round" stroke-linejoin="round"/>
<path d="M405.573 313.992C401.1 319.8 392.378 321.769 381.515 319.849C370.705 317.938 358.064 312.208 346.198 303.068C334.331 293.928 325.564 283.169 320.957 273.205C316.328 263.191 316.005 254.257 320.478 248.448C324.952 242.64 333.673 240.671 344.537 242.591C355.347 244.502 367.987 250.232 379.854 259.372C391.721 268.512 400.488 279.271 405.095 289.235C409.724 299.248 410.047 308.183 405.573 313.992Z" stroke="black" stroke-width="2"/>
<path d="M416.708 282.792C416.493 290.12 410.587 296.831 400.663 301.651C390.789 306.447 377.191 309.224 362.218 308.785C347.246 308.347 333.834 304.779 324.257 299.414C314.633 294.022 309.129 286.976 309.343 279.648C309.558 272.319 315.465 265.608 325.388 260.788C335.263 255.992 348.861 253.216 363.833 253.654C378.805 254.092 392.217 257.66 401.794 263.026C411.419 268.417 416.923 275.463 416.708 282.792Z" stroke="black" stroke-width="2"/>
<path d="M460.984 253.304C460.88 256.869 458.899 260.323 455.161 263.521C451.423 266.72 446.009 269.587 439.269 271.95C425.796 276.676 407.229 279.319 386.774 278.721C366.319 278.122 347.939 274.396 334.765 268.89C328.175 266.136 322.939 262.958 319.394 259.546C315.85 256.134 314.074 252.57 314.179 249.006C314.283 245.441 316.264 241.987 320.002 238.788C323.74 235.59 329.154 232.723 335.894 230.359C349.367 225.634 367.933 222.99 388.389 223.589C408.844 224.188 427.224 227.914 440.398 233.419C446.988 236.174 452.224 239.352 455.769 242.764C459.313 246.176 461.089 249.739 460.984 253.304Z" stroke="black" stroke-width="2"/>
<path d="M458.687 206.615C460.202 209.843 459.992 213.819 458.099 218.36C456.205 222.901 452.667 227.901 447.718 233.051C437.824 243.345 422.446 254.08 403.92 262.773C385.394 271.465 367.309 276.43 353.069 277.459C345.945 277.974 339.838 277.499 335.135 276.053C330.433 274.607 327.241 272.227 325.726 268.998C324.211 265.77 324.421 261.794 326.314 257.253C328.208 252.712 331.746 247.712 336.695 242.562C346.588 232.268 361.966 221.533 380.493 212.84C399.019 204.148 417.104 199.183 431.344 198.154C438.468 197.639 444.575 198.114 449.278 199.56C453.98 201.006 457.172 203.386 458.687 206.615Z" stroke="black" stroke-width="2"/>
<path d="M426.971 117.73C429.74 119.847 431.165 123.745 431.109 129.316C431.053 134.865 429.524 141.868 426.638 149.873C420.871 165.871 409.767 185.653 394.675 205.398C379.583 225.144 363.409 241.05 349.486 250.815C342.519 255.7 336.164 259.014 330.824 260.524C325.463 262.041 321.327 261.689 318.558 259.573C315.789 257.456 314.364 253.558 314.42 247.987C314.476 242.438 316.005 235.435 318.891 227.43C324.658 211.432 335.762 191.65 350.854 171.905C365.946 152.159 382.12 136.253 396.043 126.488C403.01 121.603 409.365 118.289 414.705 116.779C420.066 115.262 424.202 115.614 426.971 117.73Z" stroke="black" stroke-width="2"/>
<path d="M358.678 124.995C361.286 125.58 363.569 127.771 365.385 131.598C367.193 135.411 368.453 140.688 369.086 147.093C370.352 159.892 369.097 176.964 364.99 195.257C360.883 213.55 354.72 229.52 348.104 240.55C344.793 246.069 341.399 250.301 338.134 252.975C334.857 255.659 331.856 256.663 329.249 256.078C326.641 255.492 324.358 253.302 322.542 249.475C320.734 245.662 319.474 240.385 318.841 233.98C317.575 221.181 318.83 204.109 322.937 185.816C327.044 167.522 333.207 151.552 339.823 140.523C343.134 135.004 346.528 130.772 349.793 128.097C353.07 125.413 356.071 124.41 358.678 124.995Z" stroke="black" stroke-width="2"/>
<path d="M456.498 149.382C458.544 152.213 458.81 156.339 457.208 161.613C455.611 166.868 452.211 173.072 447.243 179.831C437.314 193.339 421.263 208.877 401.433 223.21C381.602 237.543 361.814 247.91 345.872 253.1C337.896 255.697 330.939 256.98 325.448 256.847C319.938 256.714 316.103 255.167 314.058 252.337C312.012 249.507 311.746 245.381 313.349 240.107C314.945 234.852 318.345 228.648 323.313 221.889C333.242 208.381 349.293 192.842 369.123 178.509C388.954 164.176 408.743 153.809 424.684 148.619C432.66 146.022 439.617 144.74 445.108 144.873C450.618 145.006 454.453 146.552 456.498 149.382Z" stroke="black" stroke-width="2"/>
<path d="M308.839 113.109C312.394 112.828 316.041 114.425 319.624 117.796C323.207 121.168 326.641 126.241 329.718 132.686C335.868 145.571 340.499 163.745 342.109 184.145C343.72 204.546 341.998 223.221 337.945 236.911C335.918 243.76 333.322 249.309 330.312 253.2C327.303 257.092 323.951 259.241 320.396 259.522C316.841 259.803 313.193 258.206 309.611 254.835C306.027 251.463 302.594 246.39 299.517 239.944C293.367 227.06 288.736 208.886 287.125 188.486C285.515 168.085 287.237 149.41 291.29 135.72C293.317 128.871 295.913 123.322 298.922 119.43C301.932 115.539 305.284 113.39 308.839 113.109Z" stroke="black" stroke-width="2"/>
<path d="M249.635 129.998C252.695 128.167 256.671 127.976 261.38 129.403C266.088 130.83 271.419 133.848 277.04 138.254C288.277 147.062 300.503 161.283 311.014 178.842C321.525 196.4 328.283 213.894 330.738 227.959C331.967 234.995 332.108 241.119 331.142 245.943C330.176 250.767 328.129 254.182 325.069 256.014C322.009 257.846 318.033 258.037 313.324 256.609C308.616 255.182 303.285 252.164 297.664 247.758C286.427 238.95 274.201 224.729 263.69 207.171C253.179 189.612 246.421 172.118 243.965 158.053C242.737 151.017 242.595 144.893 243.562 140.069C244.528 135.245 246.575 131.83 249.635 129.998Z" stroke="black" stroke-width="2"/>
<path d="M222.857 189.02C226.409 182.675 235.329 179.768 247.452 180.67C259.485 181.564 274.283 186.205 288.96 194.422C303.637 202.638 315.328 212.827 322.381 222.617C329.487 232.48 331.672 241.605 328.12 247.95C324.568 254.294 315.647 257.202 303.525 256.3C291.492 255.405 276.694 250.765 262.017 242.548C247.34 234.331 235.648 224.142 228.595 214.352C221.49 204.489 219.305 195.365 222.857 189.02Z" stroke="black" stroke-width="2"/>
<path d="M188.174 258.382C187.66 254.839 188.953 251.101 191.946 247.33C194.94 243.558 199.579 239.832 205.563 236.379C217.524 229.476 234.674 223.77 254.173 220.941C273.671 218.112 291.736 218.709 305.166 221.928C311.884 223.538 317.391 225.792 321.334 228.558C325.275 231.322 327.577 234.539 328.091 238.082C328.605 241.626 327.312 245.364 324.319 249.134C321.325 252.907 316.686 256.633 310.702 260.086C298.74 266.988 281.591 272.695 262.092 275.524C242.594 278.353 224.529 277.755 211.099 274.537C204.381 272.926 198.874 270.673 194.931 267.907C190.99 265.142 188.688 261.926 188.174 258.382Z" stroke="black" stroke-width="2"/>
<path d="M242.151 303.495C238.591 298.736 239.352 291.06 244.124 282.165C248.854 273.349 257.36 263.688 268.545 255.321C279.73 246.954 291.4 241.523 301.192 239.475C311.073 237.409 318.652 238.847 322.212 243.605C325.771 248.363 325.01 256.04 320.238 264.935C315.508 273.751 307.003 283.412 295.817 291.779C284.632 300.146 272.963 305.577 263.17 307.625C253.289 309.691 245.71 308.253 242.151 303.495Z" stroke="black" stroke-width="2"/>
<path d="M316.331 333.425C310.323 332.807 305.128 327.874 301.7 319.956C298.286 312.072 296.735 301.438 297.918 289.935C299.101 278.433 302.783 268.337 307.73 261.313C312.698 254.258 318.788 250.486 324.796 251.104C330.803 251.721 335.999 256.654 339.427 264.572C342.84 272.456 344.391 283.09 343.208 294.593C342.026 306.096 338.343 316.191 333.396 323.216C328.429 330.27 322.338 334.043 316.331 333.425Z" stroke="black" stroke-width="2"/>
<path d="M364.557 323.499C359.368 326.588 352.255 325.728 344.78 321.42C337.337 317.129 329.748 309.521 323.834 299.584C317.92 289.647 314.852 279.348 314.631 270.759C314.409 262.134 317.046 255.473 322.236 252.384C327.426 249.296 334.538 250.155 342.013 254.464C349.456 258.754 357.046 266.363 362.959 276.3C368.873 286.237 371.941 296.536 372.162 305.124C372.384 313.749 369.747 320.411 364.557 323.499Z" stroke="black" stroke-width="2"/>
<path d="M399.033 245.592C399.787 251.584 396.155 257.759 389.216 262.887C382.306 267.992 372.297 271.904 360.824 273.349C349.351 274.794 338.685 273.486 330.725 270.253C322.731 267.007 317.681 261.925 316.926 255.933C316.171 249.942 319.804 243.766 326.743 238.639C333.653 233.534 343.662 229.622 355.135 228.177C366.608 226.732 377.274 228.04 385.234 231.272C393.228 234.519 398.278 239.601 399.033 245.592Z" stroke="black" stroke-width="2"/>
<path d="M424.113 296.502C421.022 303.15 412.945 306.983 401.925 307.492C390.959 307.998 377.369 305.179 363.787 298.863C350.205 292.547 339.292 283.972 332.613 275.261C325.901 266.506 323.626 257.86 326.718 251.212C329.809 244.564 337.887 240.731 348.906 240.222C359.872 239.716 373.462 242.535 387.044 248.851C400.626 255.167 411.539 263.741 418.218 272.453C424.931 281.207 427.205 289.854 424.113 296.502Z" stroke="black" stroke-width="2"/>
<path d="M428.136 263.62C429.533 270.817 425.242 278.66 416.617 285.538C408.034 292.382 395.376 298.073 380.672 300.928C365.968 303.784 352.1 303.243 341.579 300.108C331.007 296.958 324.092 291.291 322.694 284.094C321.297 276.896 325.589 269.053 334.214 262.175C342.796 255.331 355.455 249.64 370.159 246.785C384.863 243.93 398.731 244.47 409.251 247.605C419.823 250.755 426.738 256.423 428.136 263.62Z" stroke="black" stroke-width="2"/>
<path d="M464.869 225.142C465.549 228.643 464.374 232.447 461.428 236.387C458.482 240.328 453.829 244.312 447.771 248.096C435.662 255.66 418.127 262.311 398.038 266.211C377.949 270.112 359.199 270.507 345.139 268.024C338.105 266.782 332.299 264.829 328.093 262.277C323.887 259.726 321.373 256.638 320.694 253.137C320.014 249.636 321.189 245.832 324.135 241.892C327.081 237.951 331.734 233.967 337.791 230.183C349.901 222.619 367.436 215.968 387.525 212.068C407.613 208.167 426.364 207.772 440.424 210.255C447.457 211.497 453.263 213.45 457.47 216.002C461.676 218.553 464.189 221.641 464.869 225.142Z" stroke="black" stroke-width="2"/>
<path d="M452.39 180.092C454.576 182.91 455.243 186.835 454.392 191.681C453.54 196.526 451.184 202.181 447.485 208.29C440.089 220.504 427.439 234.349 411.27 246.892C395.1 259.435 378.544 268.245 364.876 272.371C358.038 274.435 351.976 275.311 347.07 274.931C342.165 274.551 338.529 272.929 336.344 270.111C334.158 267.293 333.491 263.368 334.342 258.523C335.194 253.677 337.55 248.023 341.249 241.913C348.645 229.7 361.295 215.854 377.464 203.312C393.634 190.769 410.19 181.959 423.858 177.832C430.696 175.768 436.758 174.892 441.664 175.272C446.569 175.652 450.205 177.274 452.39 180.092Z" stroke="black" stroke-width="2"/>
<path d="M401.957 100.325C405.123 101.782 407.368 105.274 408.535 110.722C409.697 116.148 409.74 123.315 408.68 131.758C406.561 148.631 400.064 170.367 389.669 192.941C379.274 215.515 366.982 234.581 355.538 247.16C349.812 253.455 344.338 258.081 339.459 260.726C334.561 263.381 330.449 263.945 327.283 262.487C324.117 261.029 321.873 257.538 320.706 252.09C319.543 246.664 319.5 239.496 320.561 231.053C322.68 214.18 329.176 192.445 339.571 169.871C349.966 147.297 362.259 128.231 373.702 115.651C379.428 109.357 384.902 104.73 389.781 102.086C394.679 99.4309 398.791 98.8668 401.957 100.325Z" stroke="black" stroke-width="2"/>
<path d="M336.919 122.387C339.592 122.386 342.3 124.022 344.91 127.359C347.511 130.682 349.897 135.555 351.919 141.665C355.961 153.875 358.479 170.807 358.483 189.555C358.487 208.304 355.976 225.236 351.939 237.448C349.919 243.559 347.535 248.432 344.936 251.757C342.327 255.095 339.62 256.732 336.947 256.733C334.275 256.733 331.567 255.097 328.956 251.761C326.356 248.437 323.97 243.565 321.947 237.454C317.906 225.244 315.387 208.313 315.383 189.564C315.379 170.816 317.891 153.883 321.927 141.671C323.947 135.56 326.331 130.687 328.93 127.362C331.539 124.025 334.247 122.387 336.919 122.387Z" stroke="black" stroke-width="2"/>
<path d="M437.707 124.733C440.323 127.045 441.487 131.013 441.08 136.51C440.675 141.987 438.718 148.785 435.353 156.469C428.627 171.826 416.374 190.505 400.169 208.838C383.964 227.17 366.929 241.624 352.514 250.183C345.301 254.465 338.794 257.242 333.408 258.317C328.003 259.395 323.923 258.727 321.306 256.414C318.69 254.101 317.526 250.134 317.933 244.637C318.338 239.16 320.295 232.361 323.66 224.677C330.385 209.321 342.639 190.641 358.844 172.309C375.049 153.976 392.084 139.523 406.499 130.964C413.712 126.681 420.218 123.904 425.604 122.83C431.01 121.751 435.09 122.42 437.707 124.733Z" stroke="black" stroke-width="2"/>
<path d="M285.686 121.718C289.094 120.665 293.002 121.423 297.237 123.926C301.472 126.43 305.935 130.627 310.35 136.241C319.176 147.464 327.679 164.18 333.723 183.731C339.767 203.282 342.182 221.88 341.229 236.126C340.753 243.252 339.438 249.235 337.354 253.692C335.271 258.149 332.472 260.981 329.065 262.034C325.658 263.087 321.749 262.329 317.514 259.826C313.279 257.322 308.817 253.125 304.402 247.511C295.576 236.288 287.073 219.572 281.029 200.021C274.984 180.47 272.57 161.872 273.522 147.626C273.999 140.5 275.314 134.517 277.397 130.06C279.48 125.603 282.279 122.771 285.686 121.718Z" stroke="black" stroke-width="2"/>
<path d="M231.626 151.178C234.21 148.72 238.048 147.661 242.955 148.022C247.862 148.382 253.724 150.157 260.175 153.224C273.07 159.354 288.117 170.548 302.222 185.374C316.326 200.201 326.756 215.787 332.236 228.972C334.977 235.567 336.458 241.511 336.573 246.43C336.688 251.348 335.44 255.129 332.856 257.587C330.272 260.045 326.434 261.103 321.527 260.743C316.621 260.383 310.758 258.607 304.307 255.541C291.413 249.411 276.366 238.217 262.261 223.39C248.156 208.564 237.726 192.977 232.247 179.793C229.505 173.197 228.024 167.253 227.909 162.335C227.794 157.417 229.042 153.636 231.626 151.178Z" stroke="black" stroke-width="2"/>
<path d="M218.441 214.634C220.516 207.665 228.582 202.873 240.607 201.094C252.544 199.329 267.999 200.612 284.12 205.411C300.241 210.209 313.883 217.587 322.911 225.592C332.006 233.657 336.139 242.081 334.064 249.05C331.99 256.019 323.924 260.811 311.898 262.59C299.962 264.355 284.507 263.072 268.385 258.274C252.264 253.475 238.623 246.097 229.595 238.092C220.499 230.027 216.367 221.604 218.441 214.634Z" stroke="black" stroke-width="2"/>
<path d="M199.811 289.914C198.532 286.569 198.974 282.639 201.067 278.304C203.162 273.966 206.871 269.314 211.952 264.633C222.109 255.276 237.59 245.948 255.994 238.912C274.398 231.877 292.154 228.499 305.963 228.695C312.871 228.793 318.737 229.784 323.191 231.618C327.642 233.451 330.594 236.084 331.872 239.429C333.151 242.774 332.709 246.704 330.615 251.039C328.521 255.376 324.812 260.029 319.731 264.71C309.574 274.067 294.093 283.395 275.689 290.431C257.285 297.466 239.529 300.844 225.72 300.648C218.812 300.55 212.945 299.559 208.492 297.725C204.04 295.892 201.089 293.259 199.811 289.914Z" stroke="black" stroke-width="2"/>
<path d="M262.365 322.093C257.849 318.231 256.908 310.574 259.614 300.849C262.296 291.211 268.476 279.921 277.555 269.305C286.633 258.688 296.828 250.831 305.933 246.686C315.12 242.504 322.83 242.244 327.347 246.106C331.863 249.969 332.803 257.625 330.098 267.35C327.416 276.989 321.236 288.279 312.157 298.895C303.078 309.511 292.884 317.369 283.779 321.514C274.591 325.696 266.881 325.955 262.365 322.093Z" stroke="black" stroke-width="2"/>
<path d="M341.303 335.03C335.306 335.744 329.156 332.07 324.075 325.097C319.016 318.154 315.171 308.119 313.803 296.636C312.435 285.154 313.814 274.496 317.1 266.558C320.4 258.587 325.515 253.57 331.512 252.856C337.509 252.141 343.66 255.815 348.74 262.789C353.8 269.732 357.644 279.767 359.012 291.25C360.381 302.732 359.001 313.389 355.715 321.327C352.415 329.299 347.3 334.315 341.303 335.03Z" stroke="black" stroke-width="2"/>
<path d="M386.18 314.772C381.793 318.923 374.665 319.644 366.428 317.079C358.225 314.525 349.152 308.766 341.204 300.367C333.255 291.969 328.003 282.593 325.905 274.262C323.797 265.895 324.909 258.818 329.295 254.667C333.682 250.516 340.81 249.794 349.047 252.359C357.25 254.913 366.323 260.673 374.271 269.071C382.22 277.47 387.472 286.846 389.57 295.177C391.678 303.543 390.566 310.621 386.18 314.772Z" stroke="black" stroke-width="2"/>
<path d="M402.734 231.201C404.784 236.882 402.594 243.703 396.948 250.227C391.326 256.724 382.418 262.735 371.541 266.66C360.665 270.586 349.971 271.648 341.496 270.24C332.985 268.825 326.943 264.974 324.893 259.294C322.843 253.613 325.033 246.792 330.679 240.268C336.301 233.771 345.209 227.76 356.086 223.835C366.963 219.909 377.657 218.847 386.132 220.255C394.643 221.67 400.684 225.521 402.734 231.201Z" stroke="black" stroke-width="2"/>
<path d="M405.459 262.136C405.449 269.468 399.732 276.341 389.947 281.436C380.21 286.506 366.695 289.662 351.716 289.641C336.738 289.621 323.231 286.43 313.508 281.334C303.737 276.213 298.038 269.324 298.048 261.992C298.058 254.661 303.775 247.787 313.56 242.692C323.297 237.622 336.812 234.467 351.79 234.487C366.769 234.507 380.276 237.699 389.999 242.794C399.77 247.915 405.469 254.804 405.459 262.136Z" stroke="black" stroke-width="2"/>
<path d="M395.284 230.61C399.578 236.553 398.981 245.473 394.048 255.34C389.138 265.159 380.045 275.644 367.905 284.417C355.764 293.189 342.954 298.53 332.09 300.109C321.173 301.695 312.516 299.461 308.222 293.518C303.929 287.575 304.525 278.655 309.459 268.788C314.368 258.969 323.461 248.484 335.602 239.711C347.743 230.939 360.553 225.598 371.416 224.019C382.333 222.433 390.99 224.668 395.284 230.61Z" stroke="black" stroke-width="2"/>
<path d="M412.435 180.254C414.524 183.145 415.057 187.091 414.041 191.904C413.025 196.718 410.477 202.289 406.572 208.269C398.766 220.224 385.652 233.631 369.065 245.616C352.478 257.601 335.631 265.843 321.83 269.501C314.927 271.331 308.838 272.001 303.948 271.454C299.059 270.907 295.48 269.162 293.391 266.272C291.303 263.381 290.77 259.435 291.786 254.622C292.802 249.808 295.349 244.237 299.254 238.257C307.061 226.302 320.175 212.896 336.762 200.91C353.349 188.925 370.195 180.683 383.996 177.025C390.9 175.195 396.989 174.525 401.878 175.072C406.767 175.619 410.346 177.364 412.435 180.254Z" stroke="black" stroke-width="2"/>
<path d="M382.172 144.626C385.34 146.264 387.596 149.545 388.86 154.299C390.125 159.054 390.364 165.175 389.576 172.274C388.001 186.464 382.345 204.345 372.947 222.524C363.55 240.702 352.233 255.657 341.566 265.147C336.23 269.895 331.097 273.239 326.487 274.956C321.877 276.674 317.896 276.731 314.728 275.093C311.56 273.455 309.304 270.174 308.04 265.42C306.775 260.665 306.535 254.544 307.323 247.445C308.898 233.255 314.555 215.374 323.952 197.196C333.349 179.017 344.667 164.063 355.334 154.572C360.67 149.824 365.802 146.481 370.413 144.763C375.023 143.045 379.004 142.988 382.172 144.626Z" stroke="black" stroke-width="2"/>
<path d="M302.875 93.4554C306.361 93.4471 309.865 95.6711 313.214 100.124C316.55 104.558 319.603 111.043 322.191 119.149C327.362 135.35 330.606 157.802 330.666 182.654C330.725 207.507 327.588 229.974 322.494 246.199C319.945 254.317 316.923 260.817 313.608 265.267C310.28 269.736 306.786 271.976 303.301 271.985C299.816 271.993 296.311 269.769 292.962 265.317C289.626 260.882 286.573 254.397 283.986 246.291C278.814 230.09 275.57 207.638 275.511 182.786C275.452 157.933 278.589 135.466 283.683 119.241C286.232 111.123 289.254 104.623 292.568 100.173C295.896 95.7044 299.39 93.4638 302.875 93.4554Z" stroke="black" stroke-width="2"/>
<path d="M253.141 140.817C255.566 139.693 258.711 140.039 262.482 141.969C266.239 143.891 270.452 147.309 274.856 152.002C283.657 161.381 293.061 175.685 300.947 192.694C308.833 209.704 313.673 226.123 315.145 238.9C315.882 245.294 315.768 250.718 314.807 254.828C313.844 258.952 312.075 261.576 309.651 262.7C307.226 263.824 304.081 263.479 300.31 261.549C296.553 259.626 292.34 256.209 287.936 251.515C279.135 242.136 269.731 227.833 261.845 210.823C253.959 193.814 249.119 177.395 247.647 164.618C246.91 158.224 247.024 152.8 247.985 148.69C248.948 144.565 250.717 141.942 253.141 140.817Z" stroke="black" stroke-width="2"/>
<path d="M345.573 100.571C348.92 101.569 351.644 104.68 353.586 109.838C355.521 114.978 356.603 121.969 356.781 130.356C357.135 147.117 353.871 169.217 346.875 192.664C339.88 216.11 330.501 236.386 321.02 250.213C316.277 257.131 311.54 262.386 307.105 265.626C302.654 268.877 298.671 269.986 295.325 268.987C291.978 267.989 289.254 264.879 287.312 259.72C285.377 254.58 284.295 247.589 284.117 239.202C283.763 222.441 287.027 200.341 294.023 176.895C301.018 153.448 310.397 133.172 319.878 119.345C324.621 112.427 329.358 107.172 333.793 103.933C338.244 100.682 342.227 99.5725 345.573 100.571Z" stroke="black" stroke-width="2"/>
<path d="M206.375 161.751C209.024 159.363 212.889 158.407 217.784 158.898C222.679 159.389 228.493 161.321 234.859 164.558C247.586 171.03 262.328 182.622 276.032 197.82C289.736 213.018 299.746 228.877 304.872 242.203C307.436 248.869 308.758 254.851 308.742 259.77C308.725 264.69 307.377 268.436 304.728 270.824C302.079 273.213 298.214 274.168 293.319 273.677C288.424 273.186 282.611 271.254 276.244 268.017C263.518 261.545 248.775 249.953 235.071 234.755C221.367 219.557 211.357 203.698 206.231 190.372C203.667 183.706 202.345 177.725 202.362 172.805C202.378 167.885 203.727 164.139 206.375 161.751Z" stroke="black" stroke-width="2"/>
<path d="M169.712 211.209C171.022 207.893 174.06 205.319 178.663 203.583C183.267 201.846 189.332 200.993 196.475 201.063C210.751 201.203 229.11 205.033 248.142 212.556C267.173 220.078 283.189 229.835 293.704 239.493C298.964 244.325 302.807 249.095 304.979 253.51C307.152 257.924 307.609 261.879 306.298 265.196C304.987 268.512 301.949 271.086 297.346 272.822C292.743 274.558 286.677 275.412 279.535 275.342C265.258 275.202 246.899 271.371 227.868 263.849C208.836 256.327 192.82 246.57 182.305 236.912C177.045 232.08 173.202 227.309 171.03 222.895C168.858 218.481 168.401 214.526 169.712 211.209Z" stroke="black" stroke-width="2"/>
<path d="M184.428 274.328C183.38 267.133 188.683 259.393 198.847 252.724C208.934 246.104 223.497 240.77 240.141 238.346C256.786 235.921 272.265 236.88 283.822 240.348C295.465 243.841 302.756 249.746 303.804 256.942C304.852 264.137 299.549 271.877 289.385 278.546C279.298 285.166 264.735 290.5 248.091 292.925C231.446 295.349 215.967 294.39 204.41 290.923C192.767 287.429 185.476 281.524 184.428 274.328Z" stroke="black" stroke-width="2"/>
<path d="M199.174 350.464C196.608 347.967 195.356 344.215 195.433 339.401C195.51 334.586 196.92 328.805 199.561 322.422C204.843 309.661 214.967 294.688 228.707 280.567C242.448 266.446 257.138 255.916 269.749 250.288C276.058 247.473 281.798 245.905 286.61 245.697C291.419 245.489 295.204 246.637 297.771 249.134C300.337 251.631 301.588 255.383 301.512 260.197C301.435 265.013 300.025 270.793 297.383 277.176C292.102 289.937 281.977 304.91 268.237 319.031C254.497 333.152 239.807 343.682 227.195 349.31C220.887 352.126 215.147 353.693 210.335 353.901C205.525 354.109 201.741 352.961 199.174 350.464Z" stroke="black" stroke-width="2"/>
<path d="M269.461 353.361C263.74 351.755 259.667 345.203 258.033 335.242C256.414 325.37 257.275 312.527 261.049 299.078C264.822 285.629 270.768 274.213 277.287 266.624C283.864 258.967 290.751 255.49 296.472 257.096C302.194 258.701 306.266 265.253 307.9 275.214C309.519 285.086 308.659 297.929 304.885 311.378C301.111 324.827 295.165 336.243 288.647 343.832C282.069 351.489 275.183 354.966 269.461 353.361Z" stroke="black" stroke-width="2"/>
<path d="M346.522 331.91C341.381 335.08 334.256 334.332 326.714 330.141C319.204 325.968 311.497 318.48 305.428 308.637C299.359 298.794 296.13 288.544 295.774 279.96C295.417 271.34 297.949 264.638 303.089 261.468C308.23 258.299 315.355 259.046 322.897 263.237C330.406 267.41 338.114 274.898 344.183 284.741C350.252 294.584 353.481 304.834 353.837 313.418C354.194 322.038 351.662 328.74 346.522 331.91Z" stroke="black" stroke-width="2"/>
<path d="M378.722 294.661C376.488 300.272 370.323 303.923 361.771 305.059C353.254 306.191 342.601 304.78 331.858 300.502C321.115 296.223 312.408 289.924 307.001 283.248C301.571 276.543 299.605 269.654 301.839 264.043C304.074 258.433 310.238 254.781 318.79 253.645C327.307 252.514 337.96 253.925 348.703 258.203C359.446 262.481 368.153 268.78 373.56 275.457C378.99 282.162 380.956 289.051 378.722 294.661Z" stroke="black" stroke-width="2"/>
<path d="M358.606 211.876C362.855 216.168 363.735 223.278 361.356 231.571C358.986 239.829 353.431 249.029 345.213 257.163C336.994 265.298 327.738 270.758 319.457 273.043C311.139 275.338 304.039 274.384 299.79 270.092C295.542 265.8 294.661 258.69 297.041 250.397C299.411 242.139 304.966 232.939 313.184 224.805C321.402 216.67 330.658 211.21 338.94 208.925C347.257 206.63 354.358 207.584 358.606 211.876Z" stroke="black" stroke-width="2"/>
<path d="M399.024 258.624C399.018 263.403 395.284 267.969 388.704 271.395C382.172 274.796 373.082 276.923 362.99 276.909C352.897 276.896 343.813 274.745 337.29 271.326C330.719 267.882 326.998 263.307 327.004 258.528C327.011 253.749 330.744 249.183 337.324 245.757C343.857 242.356 352.947 240.229 363.039 240.243C373.131 240.256 382.215 242.407 388.738 245.826C395.309 249.27 399.03 253.845 399.024 258.624Z" stroke="black" stroke-width="2"/>
<path d="M392.202 237.486C395.001 241.359 394.656 247.247 391.338 253.882C388.045 260.469 381.932 267.525 373.752 273.436C365.572 279.347 356.953 282.935 349.665 283.994C342.323 285.061 336.625 283.54 333.827 279.666C331.028 275.793 331.372 269.905 334.69 263.269C337.984 256.682 344.097 249.627 352.277 243.716C360.457 237.805 369.075 234.217 376.363 233.158C383.705 232.091 389.403 233.612 392.202 237.486Z" stroke="black" stroke-width="2"/>
<path d="M403.805 203.419C405.146 205.275 405.513 207.84 404.837 211.044C404.161 214.248 402.459 217.979 399.83 222.005C394.575 230.052 385.734 239.095 374.536 247.186C363.339 255.277 351.977 260.832 342.688 263.295C338.039 264.527 333.963 264.971 330.709 264.607C327.455 264.243 325.134 263.089 323.793 261.233C322.452 259.377 322.085 256.812 322.761 253.608C323.437 250.404 325.139 246.673 327.768 242.646C333.023 234.6 341.864 225.557 353.061 217.466C364.259 209.375 375.621 203.82 384.91 201.357C389.558 200.125 393.635 199.681 396.889 200.045C400.143 200.409 402.464 201.563 403.805 203.419Z" stroke="black" stroke-width="2"/>
<path d="M383.445 179.413C385.479 180.465 386.964 182.589 387.806 185.753C388.647 188.917 388.812 193.015 388.282 197.794C387.221 207.346 383.41 219.405 377.066 231.677C370.722 243.95 363.087 254.032 355.907 260.42C352.315 263.617 348.877 265.852 345.808 266.995C342.74 268.138 340.148 268.155 338.114 267.103C336.08 266.051 334.595 263.927 333.753 260.763C332.912 257.599 332.747 253.501 333.278 248.722C334.338 239.17 338.149 227.111 344.494 214.839C350.838 202.567 358.472 192.484 365.652 186.096C369.245 182.9 372.683 180.665 375.751 179.521C378.819 178.378 381.411 178.361 383.445 179.413Z" stroke="black" stroke-width="2"/>
<path d="M329.948 144.831C332.157 144.825 334.444 146.235 336.683 149.213C338.91 152.173 340.961 156.522 342.706 161.988C346.193 172.909 348.385 188.064 348.425 204.854C348.465 221.643 346.345 236.809 342.911 247.746C341.192 253.22 339.161 257.579 336.949 260.55C334.723 263.538 332.443 264.959 330.234 264.964C328.025 264.969 325.739 263.56 323.499 260.582C321.272 257.622 319.221 253.273 317.476 247.807C313.99 236.886 311.798 221.731 311.758 204.941C311.718 188.151 313.837 172.986 317.271 162.049C318.99 156.574 321.021 152.215 323.234 149.245C325.459 146.257 327.739 144.836 329.948 144.831Z" stroke="black" stroke-width="2"/>
<path d="M296.436 176.842C297.947 176.142 299.962 176.332 302.472 177.616C304.968 178.893 307.789 181.176 310.755 184.337C316.68 190.651 323.024 200.297 328.349 211.781C333.673 223.266 336.936 234.34 337.926 242.942C338.422 247.248 338.342 250.876 337.704 253.607C337.063 256.352 335.905 258.012 334.395 258.713C332.884 259.413 330.869 259.224 328.359 257.94C325.863 256.662 323.042 254.379 320.076 251.218C314.151 244.904 307.807 235.259 302.482 223.774C297.157 212.289 293.895 201.215 292.904 192.614C292.408 188.307 292.488 184.679 293.126 181.949C293.768 179.203 294.925 177.543 296.436 176.842Z" stroke="black" stroke-width="2"/>
<path d="M358.741 149.631C360.864 150.264 362.653 152.256 363.951 155.704C365.242 159.134 365.973 163.824 366.092 169.478C366.331 180.776 364.13 195.693 359.404 211.532C354.678 227.371 348.346 241.056 341.956 250.375C338.757 255.04 335.577 258.563 332.618 260.724C329.642 262.897 327.054 263.583 324.931 262.95C322.808 262.316 321.019 260.325 319.721 256.876C318.429 253.446 317.699 248.757 317.58 243.103C317.341 231.805 319.542 216.888 324.268 201.049C328.993 185.21 335.326 171.525 341.716 162.205C344.915 157.541 348.095 154.018 351.054 151.857C354.03 149.683 356.617 148.997 358.741 149.631Z" stroke="black" stroke-width="2"/>
<path d="M264.879 190.951C266.579 189.418 269.09 188.776 272.348 189.103C275.606 189.43 279.499 190.719 283.785 192.899C292.352 197.255 302.295 205.069 311.547 215.33C320.798 225.59 327.546 236.286 330.996 245.255C332.722 249.744 333.603 253.749 333.592 257.023C333.582 260.298 332.685 262.729 330.984 264.262C329.283 265.796 326.772 266.438 323.515 266.111C320.256 265.784 316.363 264.495 312.077 262.315C303.511 257.959 293.567 250.144 284.316 239.884C275.064 229.624 268.316 218.928 264.866 209.958C263.14 205.47 262.259 201.465 262.27 198.19C262.281 194.916 263.178 192.485 264.879 190.951Z" stroke="black" stroke-width="2"/>
<path d="M240.158 224.29C241 222.16 242.964 220.47 246.028 219.314C249.091 218.159 253.152 217.583 257.96 217.63C267.57 217.725 279.951 220.305 292.799 225.383C305.647 230.461 316.446 237.043 323.523 243.544C327.065 246.797 329.634 249.994 331.08 252.932C332.526 255.869 332.803 258.446 331.961 260.576C331.12 262.705 329.156 264.396 326.092 265.552C323.028 266.707 318.968 267.283 314.159 267.236C304.549 267.141 292.169 264.561 279.321 259.483C266.473 254.405 255.674 247.823 248.596 241.321C245.055 238.068 242.485 234.872 241.04 231.934C239.594 228.996 239.316 226.42 240.158 224.29Z" stroke="black" stroke-width="2"/>
<path d="M250.134 266.827C249.454 262.157 252.894 257.024 259.746 252.527C266.523 248.08 276.328 244.485 287.553 242.85C298.777 241.215 309.2 241.864 316.964 244.194C324.815 246.549 329.576 250.488 330.256 255.157C330.936 259.827 327.496 264.96 320.644 269.456C313.866 273.904 304.062 277.499 292.837 279.134C281.612 280.769 271.19 280.119 263.425 277.79C255.575 275.434 250.814 271.496 250.134 266.827Z" stroke="black" stroke-width="2"/>
<path d="M260.016 318.149C258.364 316.542 257.532 314.103 257.583 310.902C257.634 307.699 258.573 303.83 260.351 299.533C263.905 290.947 270.728 280.851 280.002 271.32C289.277 261.788 299.182 254.692 307.669 250.904C311.915 249.01 315.756 247.965 318.958 247.826C322.156 247.688 324.617 248.453 326.268 250.06C327.92 251.667 328.753 254.107 328.701 257.308C328.65 260.511 327.711 264.38 325.933 268.676C322.379 277.263 315.556 287.359 306.282 296.89C297.008 306.422 287.102 313.518 278.616 317.305C274.37 319.2 270.528 320.245 267.327 320.383C264.129 320.522 261.668 319.757 260.016 318.149Z" stroke="black" stroke-width="2"/>
<path d="M307.428 320.03C303.751 318.998 301.03 314.743 299.929 308.031C298.843 301.408 299.418 292.768 301.961 283.704C304.504 274.641 308.508 266.963 312.881 261.872C317.312 256.713 321.85 254.494 325.527 255.526C329.205 256.558 331.926 260.813 333.027 267.525C334.113 274.147 333.538 282.787 330.995 291.851C328.452 300.915 324.448 308.593 320.075 313.684C315.643 318.843 311.106 321.061 307.428 320.03Z" stroke="black" stroke-width="2"/>
<path d="M359.305 305.554C355.972 307.609 351.287 307.159 346.232 304.35C341.208 301.558 336.031 296.535 331.949 289.914C327.867 283.293 325.704 276.412 325.466 270.67C325.226 264.891 326.928 260.504 330.261 258.448C333.595 256.393 338.279 256.843 343.335 259.652C348.359 262.444 353.535 267.467 357.617 274.088C361.7 280.709 363.863 287.59 364.101 293.332C364.34 299.111 362.639 303.498 359.305 305.554Z" stroke="black" stroke-width="2"/>
<path d="M380.959 280.509C379.51 284.148 375.482 286.581 369.749 287.343C364.052 288.1 356.901 287.157 349.674 284.28C342.448 281.402 336.607 277.17 332.99 272.704C329.35 268.209 328.098 263.673 329.547 260.035C330.996 256.396 335.023 253.963 340.757 253.201C346.454 252.444 353.605 253.387 360.831 256.264C368.058 259.142 373.899 263.374 377.516 267.84C381.156 272.335 382.408 276.871 380.959 280.509Z" stroke="black" stroke-width="2"/>
<path d="M367.421 224.85C370.176 227.633 370.795 232.298 369.2 237.857C367.615 243.382 363.891 249.559 358.362 255.031C352.834 260.502 346.619 264.163 341.079 265.692C335.504 267.23 330.845 266.563 328.09 263.78C325.335 260.996 324.716 256.331 326.311 250.772C327.896 245.248 331.621 239.071 337.149 233.599C342.677 228.127 348.892 224.466 354.432 222.938C360.008 221.399 364.666 222.066 367.421 224.85Z" stroke="black" stroke-width="2"/>
<path d="M439.887 186.912C443.584 194.47 441.156 204.408 433.709 214.526C426.294 224.6 414.06 234.605 398.744 242.095C383.429 249.586 368.02 253.102 355.516 252.77C342.958 252.437 333.622 248.252 329.926 240.694C326.229 233.137 328.657 223.199 336.104 213.081C343.519 203.007 355.753 193.002 371.069 185.511C386.384 178.02 401.793 174.505 414.297 174.837C426.855 175.17 436.191 179.354 439.887 186.912Z" stroke="black" stroke-width="2"/>
<path d="M413.648 159.768C421.076 163.719 424.941 173.191 424.848 185.753C424.755 198.261 420.718 213.542 412.712 228.594C404.705 243.647 394.291 255.534 383.971 262.602C373.606 269.702 363.591 271.79 356.163 267.839C348.735 263.888 344.87 254.416 344.964 241.854C345.057 229.346 349.093 214.066 357.1 199.013C365.106 183.961 375.521 172.073 385.841 165.005C396.205 157.906 406.22 155.817 413.648 159.768Z" stroke="black" stroke-width="2"/>
<path d="M405.93 99.7733C409.556 101.702 412.094 105.503 413.474 110.948C414.854 116.393 415.043 123.375 414.051 131.445C412.069 147.579 405.392 167.851 394.459 188.405C383.525 208.96 370.448 225.827 358.177 236.489C352.04 241.822 346.145 245.567 340.858 247.466C335.572 249.365 331.001 249.385 327.375 247.456C323.749 245.528 321.211 241.726 319.832 236.282C318.452 230.836 318.262 223.855 319.254 215.785C321.236 199.65 327.913 179.379 338.847 158.824C349.78 138.27 362.857 121.403 375.128 110.741C381.266 105.408 387.161 101.663 392.447 99.7639C397.733 97.8648 402.304 97.8445 405.93 99.7733Z" stroke="black" stroke-width="2"/>
<path d="M357.129 78.5491C361.235 78.6348 365.215 80.8827 368.902 85.1197C372.59 89.3569 375.908 95.502 378.664 103.152C384.172 118.446 387.357 139.55 386.871 162.826C386.384 186.103 382.321 207.055 376.179 222.105C373.107 229.634 369.535 235.635 365.674 239.715C361.812 243.794 357.742 245.874 353.636 245.788C349.53 245.702 345.55 243.455 341.863 239.218C338.175 234.98 334.857 228.835 332.101 221.185C326.593 205.891 323.408 184.788 323.894 161.511C324.381 138.235 328.444 117.282 334.586 102.232C337.658 94.7032 341.23 88.702 345.091 84.6224C348.953 80.5431 353.022 78.4633 357.129 78.5491Z" stroke="black" stroke-width="2"/>
<path d="M250.486 66.0538C254.096 64.2713 258.838 64.8062 264.503 67.6816C270.149 70.547 276.526 75.6493 283.234 82.6332C296.641 96.5923 311.208 117.898 323.723 143.247C336.238 168.595 344.296 193.114 347.227 212.246C348.693 221.817 348.867 229.983 347.709 236.207C346.547 242.454 344.089 246.543 340.479 248.325C336.868 250.108 332.127 249.573 326.462 246.698C320.816 243.832 314.438 238.73 307.731 231.746C294.324 217.787 279.757 196.481 267.242 171.133C254.727 145.784 246.668 121.265 243.738 102.134C242.271 92.5618 242.098 84.3966 243.256 78.1719C244.418 71.9255 246.876 67.8362 250.486 66.0538Z" stroke="black" stroke-width="2"/>
<path d="M223.398 139.352C225.348 136.943 228.783 135.716 233.619 135.797C238.439 135.878 244.468 137.261 251.323 139.849C265.022 145.02 281.8 154.919 298.379 168.338C314.958 181.756 328.136 196.103 336.049 208.423C340.008 214.588 342.618 220.197 343.701 224.894C344.788 229.607 344.304 233.222 342.354 235.631C340.404 238.04 336.969 239.267 332.134 239.186C327.314 239.105 321.284 237.722 314.43 235.134C300.731 229.962 283.953 220.064 267.374 206.645C250.795 193.226 237.617 178.88 229.704 166.56C225.745 160.395 223.135 154.786 222.052 150.089C220.965 145.376 221.449 141.761 223.398 139.352Z" stroke="black" stroke-width="2"/>
<path d="M297.674 51.9146C301.652 51.247 306.032 53.09 310.612 57.3957C315.178 61.688 319.794 68.2971 324.18 76.7762C332.947 93.7237 340.69 117.933 345.296 145.381C349.903 172.83 350.488 198.24 347.734 217.121C346.357 226.568 344.151 234.322 341.237 239.869C338.313 245.434 334.775 248.606 330.797 249.274C326.82 249.941 322.439 248.098 317.859 243.793C313.293 239.501 308.677 232.891 304.291 224.412C295.525 207.465 287.782 183.255 283.175 155.807C278.569 128.359 277.984 102.948 280.737 84.0673C282.115 74.6209 284.32 66.8669 287.235 61.3192C290.158 55.7541 293.697 52.5821 297.674 51.9146Z" stroke="black" stroke-width="2"/>
<path d="M186.128 184.183C187.655 180.37 191.16 177.437 196.425 175.478C201.689 173.519 208.609 172.578 216.74 172.693C232.994 172.925 253.867 177.377 275.481 186.03C297.094 194.683 315.273 205.865 327.196 216.914C333.16 222.441 337.519 227.898 339.977 232.949C342.435 237.999 342.948 242.541 341.421 246.354C339.895 250.167 336.39 253.1 331.125 255.059C325.861 257.018 318.941 257.959 310.81 257.843C294.556 257.612 273.683 253.16 252.069 244.507C230.455 235.854 212.277 224.672 200.354 213.623C194.39 208.096 190.031 202.639 187.573 197.588C185.115 192.537 184.602 187.996 186.128 184.183Z" stroke="black" stroke-width="2"/>
<path d="M173.468 253.099C173.14 249.005 174.977 244.82 178.822 240.725C182.667 236.63 188.447 232.71 195.782 229.2C210.444 222.182 231.121 216.892 254.328 215.035C277.536 213.179 298.79 215.115 314.382 219.713C322.181 222.013 328.511 224.963 332.958 228.395C337.405 231.827 339.883 235.667 340.211 239.761C340.538 243.855 338.702 248.04 334.857 252.135C331.012 256.23 325.232 260.15 317.897 263.66C303.235 270.678 282.558 275.968 259.351 277.825C236.143 279.681 214.889 277.745 199.297 273.147C191.498 270.847 185.168 267.897 180.721 264.465C176.274 261.033 173.795 257.193 173.468 253.099Z" stroke="black" stroke-width="2"/>
<path d="M220.135 310.224C215.412 303.334 216.986 292.709 224.025 280.8C231.019 268.968 243.227 256.214 259.016 245.392C274.805 234.571 291.104 227.785 304.662 225.531C318.309 223.263 328.786 225.628 333.508 232.518C338.231 239.408 336.657 250.032 329.618 261.942C322.624 273.774 310.416 286.528 294.627 297.349C278.838 308.171 262.539 314.956 248.981 317.21C235.334 319.479 224.857 317.114 220.135 310.224Z" stroke="black" stroke-width="2"/>
<path d="M273.4 380.607C269.482 379.328 266.301 376.089 263.958 371.116C261.614 366.141 260.155 359.516 259.653 351.666C258.65 335.973 261.488 315.599 268.444 294.289C275.4 272.979 285.127 254.855 295.195 242.775C300.231 236.733 305.318 232.244 310.146 229.61C314.971 226.976 319.45 226.238 323.368 227.517C327.287 228.796 330.468 232.034 332.811 237.007C335.155 241.983 336.614 248.608 337.116 256.458C338.118 272.151 335.28 292.524 328.325 313.834C321.369 335.144 311.642 353.269 301.574 365.349C296.538 371.391 291.451 375.88 286.623 378.514C281.798 381.147 277.319 381.885 273.4 380.607Z" stroke="black" stroke-width="2"/>
<path d="M346.665 348.357C339.937 349.6 332.452 344.891 325.787 335.532C319.174 326.246 313.613 312.685 310.725 297.051C307.837 281.417 308.186 266.764 311.044 255.729C313.926 244.606 319.235 237.533 325.963 236.29C332.691 235.048 340.177 239.756 346.841 249.116C353.454 258.402 359.015 271.962 361.904 287.597C364.792 303.231 364.442 317.883 361.584 328.919C358.703 340.042 353.394 347.114 346.665 348.357Z" stroke="black" stroke-width="2"/>
<path d="M414.673 287.794C410.975 293.666 403.265 296.476 393.445 295.976C383.661 295.476 372.019 291.684 360.877 284.667C349.735 277.649 341.286 268.788 336.609 260.18C331.915 251.54 331.119 243.372 334.817 237.501C338.515 231.629 346.225 228.819 356.045 229.32C365.829 229.819 377.471 233.611 388.613 240.628C399.755 247.646 408.204 256.507 412.881 265.115C417.575 273.755 418.371 281.923 414.673 287.794Z" stroke="black" stroke-width="2"/>
<path d="M428.904 233.557C429.439 240.475 424.928 247.33 416.748 252.787C408.599 258.224 396.994 262.126 383.865 263.142C370.737 264.158 358.669 262.088 349.78 257.97C340.858 253.837 335.347 247.757 334.811 240.839C334.276 233.921 338.786 227.065 346.966 221.608C355.116 216.171 366.721 212.269 379.849 211.253C392.978 210.237 405.045 212.307 413.934 216.425C422.856 220.558 428.368 226.638 428.904 233.557Z" stroke="black" stroke-width="2"/>
<path d="M366.805 159.009C373.36 161.286 377.839 168.162 379.568 177.842C381.291 187.486 380.226 199.683 375.905 212.122C371.585 224.561 364.861 234.793 357.531 241.292C350.173 247.816 342.396 250.435 335.841 248.159C329.287 245.882 324.808 239.006 323.078 229.326C321.356 219.682 322.421 207.485 326.742 195.046C331.062 182.607 337.786 172.375 345.116 165.876C352.474 159.352 360.251 156.733 366.805 159.009Z" stroke="black" stroke-width="2"/>
</svg>
