<svg width="688" height="467" viewBox="0 0 688 467" fill="none" xmlns="http://www.w3.org/2000/svg">
<path d="M237.784 239.013C219.277 234.386 177.038 259.752 162.667 401.496C161.757 410.478 162.83 432.197 186.345 440.688C209.86 449.18 299.022 460.556 340.663 465.183M255.747 314.131L242.522 375.59C242.164 377.253 243.258 378.88 244.933 379.176L343 396.5" stroke="black" stroke-width="2"/>
<path d="M441.908 265.141C450 288.681 458.092 391.088 459.615 411.145C459.79 413.446 459.814 415.72 459.589 418.017C458.041 433.818 453.405 442.946 447.5 447.878M374.139 325.562C362.381 326.215 359.986 331.822 360.258 334.543C366.345 359.721 374.014 381.197 381.577 398.5" stroke="black" stroke-width="2"/>
<path d="M364.259 348.424L361.892 335.36C393.451 331.441 418.698 322.024 428.166 317.397L432.111 328.828C425.799 333.4 384.246 343.797 364.259 348.424Z" fill="black" stroke="black" stroke-width="2"/>
<path d="M138.896 148.461L131.212 140.05C128.362 136.93 123.972 135.728 119.931 136.961L118.156 137.502C113.177 139.021 107.925 136.059 106.604 131.024V131.024C104.824 124.24 96.354 121.867 91.3667 126.798L91.1684 126.994C87.5556 130.566 81.6837 130.369 78.318 126.564V126.564C75.1719 123.006 69.7788 122.566 66.0979 125.567L56.3418 133.52" stroke="black" stroke-width="2"/>
<path d="M161.006 115.178L160.975 105.036C160.964 101.313 158.517 98.0347 154.951 96.9647L153.952 96.6653C149.416 95.3045 147.239 90.1322 149.395 85.9151V85.9151C152.242 80.3451 147.483 73.8761 141.334 75.0211L140.531 75.1706C136.269 75.9642 132.347 72.6582 132.408 68.3233V68.3233C132.465 64.2343 128.958 61.0017 124.887 61.3911L112.52 62.5741" stroke="black" stroke-width="2"/>
<path d="M150.479 121.164L141.026 108.157C137.519 103.331 132.229 100.107 126.332 99.2031L121.599 98.4774C114.931 97.455 109.656 92.2515 108.506 85.605V85.605C106.893 76.2947 97.4366 70.4821 88.4234 73.3181V73.3181C81.9524 75.3542 74.9071 72.9793 70.9893 67.4412L70.0456 66.1073C65.9624 60.3354 58.858 57.5163 51.9281 58.9182L38.5587 61.6228" stroke="black" stroke-width="2"/>
<path d="M532.276 164.791L539.96 156.38C542.81 153.26 547.199 152.058 551.241 153.291L553.015 153.832C557.994 155.351 563.247 152.389 564.568 147.354V147.354C566.347 140.57 574.817 138.197 579.805 143.128L580.003 143.324C583.616 146.896 589.488 146.699 592.853 142.893V142.893C595.999 139.336 601.393 138.896 605.074 141.897L614.83 149.85" stroke="black" stroke-width="2"/>
<path d="M510.166 131.508L510.197 121.366C510.208 117.642 512.654 114.365 516.221 113.295L517.219 112.995C521.756 111.634 523.932 106.462 521.777 102.245V102.245C518.93 96.675 523.688 90.2061 529.838 91.3511L530.641 91.5006C534.903 92.2941 538.825 88.9882 538.764 84.6532V84.6532C538.707 80.5642 542.214 77.3316 546.285 77.721L558.652 78.9041" stroke="black" stroke-width="2"/>
<path d="M520.692 137.494L530.145 124.487C533.652 119.661 538.943 116.437 544.839 115.533L549.572 114.807C556.24 113.785 561.515 108.581 562.666 101.935V101.935C564.278 92.6246 573.735 86.8121 582.748 89.6481V89.6481C589.219 91.6841 596.264 89.3092 600.182 83.7712L601.126 82.4373C605.209 76.6653 612.313 73.8463 619.243 75.2481L632.613 77.9527" stroke="black" stroke-width="2"/>
<path d="M394.87 403.641L356.993 398.23L347.195 397.414L335.764 455.385L380.788 453.428C388.23 453.104 395.642 454.71 402.984 455.964C413.297 457.725 425.619 457.67 433.364 457.217C435.071 457.117 436.504 455.93 436.974 454.285L437.133 453.728C437.544 452.292 438.856 451.303 440.349 451.303H441.331C443.191 451.303 444.478 449.445 443.825 447.704C443.249 446.166 444.187 444.478 445.797 444.156L446.273 444.061C448.45 443.626 449.463 441.099 448.19 439.28L447.041 437.638C446.078 436.263 446.623 434.352 448.165 433.691C449.617 433.069 450.203 431.32 449.419 429.949L448.326 428.035C447.869 427.235 447.182 426.591 446.355 426.185L409.833 408.255C405.118 405.941 400.069 404.384 394.87 403.641Z" stroke="black" stroke-width="2"/>
<path d="M410.066 421.092L445.992 435.789M405.983 430.89L444.359 444.771M402.717 442.321L437.827 452.119" stroke="black" stroke-width="2" stroke-linecap="round" stroke-linejoin="round"/>
<path d="M327.6 464.367C323.028 442.811 331.682 409.661 337.397 394.964L351.278 396.597C339.52 418.153 339.302 451.847 340.663 466L327.6 464.367Z" fill="black"/>
<path d="M451.707 386.799L420.68 292.085C419.591 289.092 418.067 282.777 420.68 281.471C423.946 279.838 450.074 261.059 445.992 234.931C443.234 217.278 441.834 206.536 441.302 201.819C441.16 200.564 440.442 199.431 439.359 198.781V198.781C437.956 197.939 436.162 198.05 434.884 199.073L434.641 199.267C433.597 200.103 432.162 200.255 430.965 199.656V199.656C429.323 198.835 427.326 199.453 426.434 201.058L425.129 203.407C424.443 204.642 422.975 205.213 421.635 204.766V204.766C420.176 204.28 418.589 205.002 417.998 206.422L416.057 211.081C415.429 212.587 413.794 213.409 412.21 213.013V213.013C410.232 212.518 408.285 213.909 408.026 215.931C406.073 231.207 399.041 256.378 382.84 268.824C377.116 273.221 370.723 277.102 369.549 284.223C367.961 293.861 367.994 310.755 373.323 337.809" stroke="black" stroke-width="2"/>
<path d="M432.928 200.638L437.01 236.564M423.13 204.72L428.029 239.83M414.965 212.069L417.414 236.564" stroke="black" stroke-width="2" stroke-linecap="round" stroke-linejoin="round"/>
<path d="M440.276 456.202H686.042" stroke="black" stroke-width="2" stroke-linecap="round" stroke-linejoin="round"/>
<path d="M1 456.202H246.766" stroke="black" stroke-width="2" stroke-linecap="round" stroke-linejoin="round"/>
<path d="M354.241 167.717L454.483 96.6697L357.123 155.041L437.906 92.9015L359.561 144.314L392.785 70.3386L346.928 166.055L351.608 73.2844L338.152 164.06L313.622 77.9812L331.326 162.508L293.941 87.8647L323.525 160.735L274.859 108.652L321.53 169.511L267.544 140.831L318.648 182.188L263.287 191.139L331.059 195.264L324.187 225.493L339.835 197.259L329.526 276.444L347.148 198.921L356.409 257.43L359.116 191.387L263.684 243.53L313.993 202.665L391.958 240.898L370.817 194.047L477.683 188.599L350.916 182.344L477.684 166.038L334.827 178.687L470.926 128.096L342.051 187.508L455.303 117.879L388.948 145.867L333.275 185.513L367.054 97.8185L326.449 183.961L336.603 103.203L337.176 186.399L313.953 110.36L337.951 194.267L388.019 102.584L359.095 173.435L429.971 118.786L355.215 190.5L300.833 120.709L318.804 172.481L281.462 133.74L321.817 188.548L268.385 168.711L332.056 190.876L265.725 180.412L345.885 190.943L260.738 202.353L345.22 193.868L262.178 218.575L351.736 192.273L267.674 225.978L367.493 197.393C338.357 211.28 282.415 239.174 291.741 239.653C301.067 240.132 344.739 207.261 365.41 190.766L314.036 238.568L364.412 206.435L342.204 256.764L369.332 209.604L373.962 250.139L372.989 204.795L394.685 215.367L321.596 178.243L429.325 207.346L311.978 170.929L444.529 181.063L322.971 163.173" stroke="black" stroke-linecap="round" stroke-linejoin="round"/>
<path d="M356.558 169.266L438.826 71.7785L356.142 155.788L421.164 72.3232L355.79 144.384L369.872 61.4527L348.766 169.506L329.217 75.159L339.415 169.794L292.23 89.7899L332.143 170.019L275.016 104.849L323.831 170.275L261.254 130.697L324.119 179.605L262.309 164.908L324.534 193.083L271.18 216.52L340.438 202.969L341.43 235.107L349.789 202.681L360.123 284.859L357.581 202.44L382.196 258.755L367.651 191.753L285.279 269.008L325.206 214.854L413.637 232.88L380.118 191.368L486.203 158.003L357.037 184.816L480.304 135.356L339.895 185.345L463.585 99.0328L349.469 192.314L445.196 92.8549L385.76 138.272L340.119 192.602L351.171 95.7548L332.846 192.826L321.944 109.109L344.274 192.474L301.03 122.206L347.112 200.169L373.508 95.0659L362.935 173.738L419.949 100.379L363.495 191.881L290.536 136.02L322.153 183.298L274.457 154.157L329.386 198.64L270.445 192.675L340.294 198.304L270.829 205.116L354.224 194.761L271.548 228.442L354.32 197.871L277.239 244.351L360.458 194.569L284.703 250.347L377.649 195.595C351.968 217.141 302.984 259.745 312.491 257.792C321.998 255.838 357.339 211.441 373.821 189.487L334.637 250.882L376.913 205.476L367.731 261.795L382.692 207.373L397.948 246.854L385.113 201.591L409.704 206.54L326.468 188.353L442.455 189.446L314.88 183.522L450.878 159.093L323.911 172.867" stroke="black" stroke-linecap="round" stroke-linejoin="round"/>
<path d="M326.786 194.27L367.567 73.403L321.457 181.884L351.336 80.3875L316.947 171.404L299.631 89.0866L319.625 197.351L266.836 116.748L311.032 201.049L237.793 143.925L304.349 203.925L227.301 164.248L296.71 207.212L223.978 193.342L300.4 215.786L237.507 224.783L305.73 228.172L264.69 269.544L324.151 231.537L336.861 261.072L332.745 227.839L372.499 300.501L339.906 224.757L383.46 268.119L345.354 211.121L297.056 313.204L314.339 248.18L403.219 232.517L356.811 206.191L443.266 136.243L332.936 208.561L429.473 117.337L317.182 215.34L400.597 89.6774L328.645 218.311L381.223 90.6745L342.586 154.725L320.052 222.009L294.814 127.857L313.368 224.885L272.522 151L323.871 220.366L257.868 170.855L329.333 226.484L315.342 119.024L334.36 196.092L360.495 106.933L341.535 212.765L253.172 187.555L299.925 219.943L244.865 210.325L312.281 231.563L255.26 247.631L322.307 227.249L260.18 259.064L333.966 218.844L269.404 280.501L335.196 221.703L280.533 293.214L339.695 216.379L289.676 296.054L356.064 211.029C340.076 240.492 310.13 298.093 318.258 292.789C326.387 287.484 342.981 233.22 350.263 206.751L336.327 278.239L359.004 220.491L371.117 276.253L365.076 220.137L393.749 251.271L365.208 213.87L389.9 209.455L305.794 223.063L414.099 181.54L293.242 222.819L410.803 150.212L297.735 209.593" stroke="black" stroke-linecap="round" stroke-linejoin="round"/>
<path d="M345.004 175.85L363.979 119.61L342.524 170.087L356.427 122.86L340.425 165.21L332.368 126.908L341.672 177.284L317.108 139.779L337.673 179.004L303.594 152.424L334.563 180.343L298.712 161.881L331.009 181.872L297.166 175.419L332.726 185.862L303.462 190.048L335.206 191.625L316.11 210.876L343.778 193.191L349.691 206.933L347.776 191.47L366.274 225.28L351.108 190.036L371.374 210.213L353.643 183.691L331.17 231.191L339.212 200.935L380.568 193.647L358.975 181.397L399.203 148.85L347.865 182.5L392.784 140.053L340.535 185.654L379.348 127.182L345.868 187.037L370.333 127.646L352.355 157.45L341.87 188.757L330.127 144.948L338.76 190.096L319.754 155.716L343.647 187.993L312.935 164.955L346.189 190.84L339.679 140.837L348.528 176.698L360.689 135.212L351.866 184.456L310.751 172.726L332.505 187.796L306.885 183.321L338.254 193.203L311.722 200.679L342.919 191.196L314.011 205.999L348.345 187.285L318.303 215.974L348.917 188.615L323.482 221.89L351.01 186.138L327.736 223.211L358.627 183.648C351.187 197.358 337.253 224.16 341.036 221.692C344.818 219.224 352.539 193.974 355.927 181.658L349.443 214.921L359.995 188.051L365.631 213.998L362.82 187.886L376.162 202.373L362.881 184.97L374.371 182.916L335.236 189.248L385.631 169.927L329.395 189.134L384.097 155.35L331.486 182.98" stroke="black" stroke-linecap="round" stroke-linejoin="round"/>
</svg>
