<svg width="688" height="462" viewBox="0 0 688 462" fill="none" xmlns="http://www.w3.org/2000/svg">
<path d="M237.784 234.013C219.277 229.386 177.038 254.752 162.667 396.496C161.757 405.478 162.83 427.197 186.345 435.688C209.86 444.18 299.022 455.556 340.663 460.183M255.747 309.131L242.522 370.59C242.164 372.253 243.258 373.88 244.933 374.176L343 391.5" stroke="black" stroke-width="2"/>
<path d="M441.908 260.141C450 283.681 458.092 386.088 459.615 406.145C459.79 408.446 459.814 410.72 459.589 413.017C458.041 428.818 453.405 437.946 447.5 442.878M374.139 320.562C362.381 321.215 359.986 326.822 360.258 329.543C366.345 354.721 374.014 376.197 381.577 393.5" stroke="black" stroke-width="2"/>
<path d="M364.259 343.424L361.892 330.36C393.451 326.441 418.698 317.024 428.166 312.397L432.111 323.828C425.799 328.4 384.246 338.797 364.259 343.424Z" fill="black" stroke="black" stroke-width="2"/>
<path d="M138.896 143.461L131.212 135.05C128.362 131.93 123.972 130.728 119.931 131.961L118.156 132.502C113.177 134.021 107.925 131.059 106.604 126.024V126.024C104.824 119.24 96.354 116.867 91.3667 121.798L91.1684 121.994C87.5556 125.566 81.6837 125.369 78.318 121.564V121.564C75.1719 118.006 69.7788 117.566 66.0979 120.567L56.3418 128.52" stroke="black" stroke-width="2"/>
<path d="M161.006 110.178L160.975 100.036C160.964 96.3126 158.517 93.0347 154.951 91.9647L153.952 91.6653C149.416 90.3045 147.239 85.1323 149.395 80.9152V80.9152C152.242 75.3451 147.483 68.8762 141.334 70.0212L140.531 70.1706C136.269 70.9642 132.347 67.6583 132.408 63.3233V63.3233C132.465 59.2343 128.958 56.0017 124.887 56.3911L112.52 57.5741" stroke="black" stroke-width="2"/>
<path d="M150.479 116.164L141.026 103.157C137.519 98.3309 132.229 95.1072 126.332 94.2031L121.599 93.4774C114.931 92.455 109.656 87.2515 108.506 80.605V80.605C106.893 71.2947 97.4366 65.4821 88.4234 68.3181V68.3181C81.9524 70.3542 74.9071 67.9793 70.9893 62.4412L70.0456 61.1073C65.9624 55.3354 58.858 52.5163 51.9281 53.9182L38.5587 56.6227" stroke="black" stroke-width="2"/>
<path d="M532.276 159.791L539.96 151.38C542.81 148.26 547.199 147.058 551.241 148.291L553.015 148.832C557.994 150.351 563.247 147.389 564.568 142.354V142.354C566.347 135.57 574.817 133.197 579.805 138.128L580.003 138.324C583.616 141.896 589.488 141.699 592.853 137.893V137.893C595.999 134.336 601.393 133.896 605.074 136.897L614.83 144.85" stroke="black" stroke-width="2"/>
<path d="M510.166 126.508L510.197 116.366C510.208 112.642 512.654 109.365 516.221 108.295L517.219 107.995C521.756 106.634 523.932 101.462 521.777 97.2451V97.2451C518.93 91.675 523.688 85.206 529.838 86.3511L530.641 86.5005C534.903 87.2941 538.825 83.9882 538.764 79.6532V79.6532C538.707 75.5642 542.214 72.3316 546.285 72.721L558.652 73.904" stroke="black" stroke-width="2"/>
<path d="M520.692 132.494L530.145 119.487C533.652 114.661 538.943 111.437 544.839 110.533L549.572 109.807C556.24 108.785 561.515 103.581 562.666 96.9349V96.9349C564.278 87.6246 573.735 81.8121 582.748 84.6481V84.6481C589.219 86.6841 596.264 84.3092 600.182 78.7712L601.126 77.4373C605.209 71.6653 612.313 68.8463 619.243 70.2481L632.613 72.9527" stroke="black" stroke-width="2"/>
<path d="M394.87 398.641L356.993 393.23L347.195 392.414L335.764 450.385L380.788 448.428C388.23 448.104 395.642 449.71 402.984 450.964C413.297 452.725 425.619 452.67 433.364 452.217C435.071 452.117 436.504 450.93 436.974 449.285L437.133 448.728C437.544 447.292 438.856 446.303 440.349 446.303H441.331C443.191 446.303 444.478 444.445 443.825 442.704C443.249 441.166 444.187 439.478 445.797 439.156L446.273 439.061C448.45 438.626 449.463 436.099 448.19 434.28L447.041 432.638C446.078 431.263 446.623 429.352 448.165 428.691C449.617 428.069 450.203 426.32 449.419 424.949L448.326 423.035C447.869 422.235 447.182 421.591 446.355 421.185L409.833 403.255C405.118 400.941 400.069 399.384 394.87 398.641Z" stroke="black" stroke-width="2"/>
<path d="M410.066 416.092L445.992 430.789M405.983 425.89L444.359 439.771M402.717 437.321L437.827 447.119" stroke="black" stroke-width="2" stroke-linecap="round" stroke-linejoin="round"/>
<path d="M327.6 459.367C323.028 437.811 331.682 404.661 337.397 389.964L351.278 391.597C339.52 413.153 339.302 446.847 340.663 461L327.6 459.367Z" fill="black"/>
<path d="M451.707 381.799L420.68 287.085C419.591 284.092 418.067 277.777 420.68 276.471C423.946 274.838 450.074 256.059 445.992 229.931C443.234 212.278 441.834 201.536 441.302 196.819C441.16 195.564 440.442 194.431 439.359 193.781V193.781C437.956 192.939 436.162 193.05 434.884 194.073L434.641 194.267C433.597 195.103 432.162 195.255 430.965 194.656V194.656C429.323 193.835 427.326 194.453 426.434 196.058L425.129 198.407C424.443 199.642 422.975 200.213 421.635 199.766V199.766C420.176 199.28 418.589 200.002 417.998 201.422L416.057 206.081C415.429 207.587 413.794 208.409 412.21 208.013V208.013C410.232 207.518 408.285 208.909 408.026 210.931C406.073 226.207 399.041 251.378 382.84 263.824C377.116 268.221 370.723 272.102 369.549 279.223C367.961 288.861 367.994 305.755 373.323 332.809" stroke="black" stroke-width="2"/>
<path d="M432.928 195.638L437.01 231.564M423.13 199.72L428.029 234.83M414.965 207.069L417.414 231.564" stroke="black" stroke-width="2" stroke-linecap="round" stroke-linejoin="round"/>
<path d="M440.276 451.202H686.042" stroke="black" stroke-width="2" stroke-linecap="round" stroke-linejoin="round"/>
<path d="M1 451.202H246.766" stroke="black" stroke-width="2" stroke-linecap="round" stroke-linejoin="round"/>
<path d="M321.255 201.065L334.789 192.49C339.809 189.309 346.218 189.287 351.286 192.433L353.545 193.835C359.78 197.707 367.986 195.612 371.622 189.267V189.267C376.524 180.712 389.012 180.789 394.042 189.31V189.31C397.693 195.495 405.832 197.501 411.815 193.573V193.573C417.404 189.904 424.909 191.287 428.857 196.714L439.263 211.018" stroke="black" stroke-width="2"/>
<path d="M325.032 199.051L324.572 182.732C324.401 176.675 327.677 171.034 333.036 168.159L335.504 166.834C342.076 163.308 344.446 155.053 340.792 148.581V148.581C335.857 139.84 342.279 128.933 352.352 128.828V128.828C359.696 128.752 365.628 122.619 365.305 115.307V115.307C365.003 108.482 370.084 102.59 376.902 101.86L394.641 99.9609" stroke="black" stroke-width="2"/>
<path d="M326.405 196.203L320.455 177.639C318.24 170.73 319.389 163.188 323.557 157.263L326.302 153.36C331.189 146.414 330.327 136.914 324.31 130.902V130.902C316.002 122.601 318.071 108.571 328.469 103.151V103.151C336.04 99.2042 339.608 90.329 336.882 82.224L336.557 81.2566C333.872 73.2758 336.886 64.4955 343.9 59.8614L359.263 49.7119" stroke="black" stroke-width="2"/>
<path d="M327.637 184.155L317.055 167.733C313.118 161.622 312.261 154.038 314.738 147.237L316.374 142.745C319.277 134.775 315.969 125.819 308.593 121.551V121.551C298.405 115.655 296.747 101.569 305.373 93.6499V93.6499C311.652 87.8841 312.784 78.3936 308.043 71.2595L307.47 70.3984C302.799 63.3691 303.42 54.1068 308.986 47.8164L321.158 34.0595" stroke="black" stroke-width="2"/>
<path d="M316.564 187.678L315.723 171.372C315.411 165.32 318.554 159.604 323.843 156.606L326.278 155.225C332.765 151.548 334.943 143.239 331.139 136.853V136.853C326.001 128.228 332.167 117.174 342.233 116.837V116.837C349.572 116.591 355.358 110.322 354.864 103.019V103.019C354.402 96.2023 359.344 90.1945 366.142 89.3073L383.831 86.9989" stroke="black" stroke-width="2"/>
<path d="M315.717 178.344L301.955 169.356C296.847 166.019 294.044 160.121 294.704 154.098L295.012 151.291C295.822 143.913 290.344 137.269 282.906 136.536V136.536C272.852 135.546 267.476 124.094 273.115 115.796V115.796C277.234 109.736 275.53 101.389 269.29 97.4529V97.4529C263.466 93.7793 261.483 86.26 264.757 80.259L273.234 64.7188" stroke="black" stroke-width="2"/>
<path d="M325.23 188.717L306.588 178.861C299.659 175.198 294.649 168.755 292.837 161.176L291.499 155.58C289.416 146.869 281.616 140.643 272.602 140.442V140.442C260.053 140.162 250.867 128.45 253.78 116.336V116.336C255.884 107.586 251.692 98.5297 243.626 94.4028L242.129 93.6368C233.936 89.4447 229.265 80.6043 230.455 71.5412L232.885 53.0334" stroke="black" stroke-width="2"/>
<path d="M335.57 189.894L321.808 180.906C316.699 177.569 313.896 171.671 314.557 165.648L314.865 162.842C315.674 155.463 310.197 148.819 302.758 148.086V148.086C292.705 147.096 287.328 135.644 292.968 127.346V127.346C297.087 121.286 295.383 112.94 289.142 109.003V109.003C283.318 105.33 281.336 97.8102 284.609 91.8092L293.087 76.269" stroke="black" stroke-width="2"/>
<path d="M329.701 196.597L313.619 199.961C307.648 201.21 301.481 199.027 297.632 194.303L295.804 192.06C291.098 186.283 282.541 185.477 276.787 190.223V190.223C269.001 196.645 257.094 192.396 255.101 182.514V182.514C253.641 175.277 246.494 170.59 239.285 172.217V172.217C232.561 173.735 225.808 169.818 223.797 163.232L218.63 146.308" stroke="black" stroke-width="2"/>
<path d="M324.351 191.957L320.342 207.774C318.854 213.646 314.163 218.184 308.213 219.507L305.455 220.121C298.163 221.743 293.638 229.035 295.396 236.248V236.248C297.772 245.994 288.63 254.744 278.88 252.131V252.131C271.766 250.224 264.381 254.521 262.697 261.644V261.644C261.125 268.293 254.622 272.585 247.839 271.451L230.239 268.506" stroke="black" stroke-width="2"/>
<path d="M330.882 318.562L321.046 305.444C317.395 300.575 316.796 294.079 319.497 288.657L320.744 286.155C324.057 279.506 321.204 271.386 314.471 268.169V268.169C305.376 263.823 304.286 251.213 312.441 245.366V245.366C318.389 241.101 319.669 232.682 315.166 226.871V226.871C310.961 221.446 311.69 213.712 316.828 209.212L330.187 197.513" stroke="black" stroke-width="2"/>
<path d="M374.717 298.42L361.075 289.253C356.011 285.851 353.286 279.917 354.026 273.903L354.371 271.102C355.278 263.735 349.889 257.019 342.461 256.19V256.19C332.422 255.068 327.197 243.546 332.946 235.324V235.324C337.144 229.319 335.55 220.951 329.362 216.934V216.934C323.587 213.185 321.704 205.641 325.057 199.684L333.74 184.256" stroke="black" stroke-width="2"/>
<path d="M417.031 256.387L400.66 254.761C394.582 254.158 389.357 250.226 387.121 244.574L386.065 241.902C383.33 234.987 375.403 231.643 368.471 234.432V234.432C359.094 238.205 349.014 230.571 350.119 220.574V220.574C350.927 213.258 345.529 206.647 338.158 206.033V206.033C331.281 205.46 326.025 199.703 326.11 192.839L326.33 175.166" stroke="black" stroke-width="2"/>
<path d="M449.606 187.149L437.258 197.888C432.673 201.875 426.225 202.957 420.551 200.692L417.872 199.622C410.932 196.851 403.073 200.294 400.397 207.229V207.229C396.779 216.61 384.301 218.663 377.715 210.995V210.995C372.896 205.384 364.363 204.751 358.89 209.666V209.666C353.784 214.252 345.974 214.103 340.994 209.326L328.166 197.021" stroke="black" stroke-width="2"/>
<path d="M323.443 199.589L322.123 215.856C321.633 221.894 317.762 227.145 312.12 229.427L309.515 230.481C302.596 233.279 299.342 241.224 302.273 248.05V248.05C306.232 257.27 298.663 267.415 288.629 266.436V266.436C281.311 265.722 274.745 271.179 274.27 278.481V278.481C273.827 285.298 268.132 290.604 261.267 290.597L243.422 290.58" stroke="black" stroke-width="2"/>
<path d="M325.437 201.963L311.088 209.889C305.76 212.833 299.225 212.551 294.149 209.158L291.742 207.549C285.535 203.4 277.127 205.134 273.045 211.358V211.358C267.523 219.779 254.892 219.199 250.058 210.331V210.331C246.518 203.838 238.304 201.446 231.909 205.114V205.114C225.943 208.534 218.334 206.764 214.461 201.055L204.504 186.374" stroke="black" stroke-width="2"/>
<path d="M324.27 200.438L313.057 212.34C308.894 216.759 302.585 218.47 296.717 216.772L293.953 215.972C286.772 213.895 279.291 218.094 277.322 225.258V225.258C274.658 234.947 262.441 238.215 255.13 231.232V231.232C249.783 226.124 241.229 226.333 236.276 231.761V231.761C231.656 236.826 223.871 237.447 218.446 233.183L204.456 222.19" stroke="black" stroke-width="2"/>
<path d="M331.737 186.049L312.772 186.586C305.714 186.786 298.992 183.603 294.691 178.024L291.947 174.464C286.88 167.891 277.708 166.033 270.427 170.06V170.06C260.395 175.609 247.815 169.724 245.798 158.469V158.469C244.327 150.257 237.001 144.401 228.644 144.759L227.788 144.795C219.624 145.145 212.291 139.877 210.037 132.045L205.011 114.577" stroke="black" stroke-width="2"/>
<path d="M320.365 201.589L338.165 187.291C344.577 182.14 352.8 179.758 361.015 180.673L367.999 181.45C377.457 182.502 386.522 177.392 390.504 168.812V168.812C396.085 156.791 411.067 152.389 422.344 159.528V159.528C430.438 164.652 440.893 164.02 448.239 157.962L450.026 156.488C457.692 150.168 468.399 148.954 477.357 153.391L494.595 161.928" stroke="black" stroke-width="2"/>
<path d="M322.294 206.507L335.991 188.369C340.964 181.785 348.388 177.458 356.611 176.352L363.482 175.428C372.91 174.16 380.454 166.998 382.206 157.713V157.713C384.66 144.706 398.117 136.794 410.78 140.99V140.99C419.872 144.003 429.859 140.848 435.494 133.184L436.851 131.339C442.724 123.351 452.803 119.576 462.554 121.711L481.368 125.831" stroke="black" stroke-width="2"/>
<path d="M323.597 199.143L333.263 178.656C336.795 171.17 343.203 165.405 351.054 162.651L357.518 160.383C366.488 157.236 372.415 148.688 372.229 139.242V139.242C371.969 126.014 383.531 115.531 396.766 117.087V117.087C406.27 118.204 415.405 113.086 419.352 104.434L420.294 102.369C424.404 93.3607 433.494 87.6227 443.457 87.7475L462.721 87.9887" stroke="black" stroke-width="2"/>
<path d="M324.513 195.733L330.34 189.354C332.502 186.989 335.831 186.077 338.895 187.012L340.241 187.422C344.017 188.574 348 186.328 349.002 182.509V182.509C350.352 177.365 356.775 175.565 360.557 179.304L360.707 179.453C363.447 182.162 367.9 182.013 370.453 179.127V179.127C372.838 176.429 376.928 176.095 379.72 178.371L387.118 184.402" stroke="black" stroke-width="2"/>
<path d="M326.193 194.151L323.685 185.679C322.754 182.533 323.667 179.132 326.049 176.876L327.162 175.822C330.078 173.06 330.153 168.426 327.351 165.547V165.547C323.564 161.656 325.362 155.075 330.589 153.605V153.605C334.408 152.53 336.631 148.5 335.445 144.714V144.714C334.337 141.181 336.157 137.395 339.607 136.052L348.531 132.579" stroke="black" stroke-width="2"/>
<path d="M326.509 192.469L320.839 183.592C318.73 180.289 318.278 176.192 319.617 172.508L320.508 170.057C322.075 165.746 320.307 160.917 316.341 158.612V158.612C310.861 155.426 309.987 147.826 314.641 143.522V143.522C318.028 140.39 318.651 135.268 316.113 131.416L315.796 130.936C313.291 127.133 313.638 122.125 316.645 118.705L323.191 111.259" stroke="black" stroke-width="2"/>
<path d="M325.474 185.996L317.699 178.889C314.807 176.245 313.31 172.404 313.65 168.5L313.876 165.901C314.274 161.332 311.315 157.126 306.888 155.925V155.925C300.77 154.266 297.959 147.151 301.34 141.79V141.79C303.801 137.888 303.076 132.779 299.628 129.716L299.197 129.333C295.793 126.309 294.833 121.381 296.852 117.3L301.248 108.413" stroke="black" stroke-width="2"/>
<path d="M320.219 189.389L317.515 180.978C316.511 177.855 317.345 174.433 319.674 172.123L320.762 171.043C323.613 168.214 323.58 163.58 320.712 160.767V160.767C316.836 156.964 318.481 150.344 323.672 148.752V148.752C327.466 147.589 329.594 143.508 328.32 139.751V139.751C327.131 136.245 328.862 132.417 332.28 130.995L341.121 127.315" stroke="black" stroke-width="2"/>
<path d="M318.481 184.627L310.092 181.855C306.977 180.826 304.704 178.136 304.21 174.893L303.979 173.378C303.373 169.407 299.609 166.703 295.647 167.362V167.362C290.29 168.254 285.911 163.023 287.684 157.891V157.891C288.98 154.141 286.937 150.016 283.15 148.832V148.832C279.617 147.726 277.545 144.072 278.41 140.473L280.647 131.161" stroke="black" stroke-width="2"/>
<path d="M324.859 188.719L313.818 186.177C309.715 185.233 306.218 182.564 304.225 178.855L302.756 176.122C300.464 171.857 295.548 169.691 290.846 170.848V170.848C284.301 172.459 277.902 167.617 277.729 160.879V160.879C277.605 156.011 274.166 151.86 269.406 150.832L268.53 150.642C263.698 149.598 260.044 145.63 259.402 140.728L258.09 130.704" stroke="black" stroke-width="2"/>
<path d="M330.387 187.885L321.997 185.113C318.883 184.084 316.61 181.394 316.115 178.151L315.884 176.636C315.278 172.665 311.515 169.961 307.552 170.62V170.62C302.196 171.512 297.816 166.282 299.589 161.149V161.149C300.885 157.399 298.842 153.275 295.056 152.09V152.09C291.522 150.985 289.45 147.331 290.315 143.731L292.552 134.419" stroke="black" stroke-width="2"/>
<path d="M328.274 192.213L320.401 196.224C317.478 197.713 313.967 197.435 311.315 195.505L310.076 194.603C306.828 192.239 302.258 193.011 299.939 196.291V196.291C296.803 200.724 290.005 200.156 287.606 195.285V195.285C285.853 191.726 281.485 190.275 277.979 192.133V192.133C274.707 193.865 270.653 192.767 268.703 189.62L263.661 181.478" stroke="black" stroke-width="2"/>
<path d="M324.853 190.536L324.972 199.371C325.016 202.651 323.215 205.678 320.312 207.204L318.955 207.917C315.399 209.786 314.072 214.226 315.989 217.756V217.756C318.581 222.528 315.067 228.375 309.637 228.375V228.375C305.669 228.374 302.438 231.652 302.554 235.618V235.618C302.663 239.318 299.886 242.47 296.201 242.828L286.67 243.754" stroke="black" stroke-width="2"/>
<path d="M345.841 255.827L338.913 250.344C336.341 248.309 335.129 245.002 335.777 241.786L336.08 240.284C336.874 236.346 334.267 232.514 330.319 231.774V231.774C324.982 230.773 322.663 224.357 326.09 220.145V220.145C328.594 217.068 328.091 212.493 324.941 210.081V210.081C322.002 207.83 321.309 203.686 323.357 200.602L328.654 192.624" stroke="black" stroke-width="2"/>
<path d="M365.782 239.152L357.429 236.27C354.329 235.2 352.091 232.48 351.639 229.231L351.428 227.713C350.875 223.734 347.147 220.981 343.176 221.588V221.588C337.808 222.409 333.498 217.122 335.339 212.013V212.013C336.684 208.281 334.695 204.13 330.924 202.896V202.896C327.406 201.744 325.382 198.063 326.294 194.475L328.653 185.194" stroke="black" stroke-width="2"/>
<path d="M381.892 211.243L373.175 212.686C369.939 213.222 366.676 211.896 364.732 209.254L363.823 208.02C361.441 204.785 356.852 204.139 353.65 206.564V206.564C349.321 209.843 343.013 207.246 342.198 201.877V201.877C341.603 197.955 337.877 195.252 333.974 195.962V195.962C330.332 196.625 326.799 194.352 325.892 190.763L323.547 181.478" stroke="black" stroke-width="2"/>
<path d="M389.167 170.471L384.254 177.815C382.431 180.542 379.231 182.014 375.974 181.624L374.452 181.442C370.463 180.965 366.852 183.869 366.429 187.864V187.864C365.857 193.264 359.648 196.088 355.175 193.008V193.008C351.908 190.757 347.387 191.625 345.234 194.957V194.957C343.225 198.066 339.15 199.088 335.913 197.293L327.537 192.65" stroke="black" stroke-width="2"/>
<path d="M325.444 194.654L327.021 203.348C327.606 206.575 326.33 209.858 323.719 211.843L322.499 212.771C319.301 215.202 318.725 219.8 321.199 222.965V222.965C324.544 227.243 322.044 233.59 316.689 234.487V234.487C312.776 235.142 310.13 238.909 310.9 242.801V242.801C311.619 246.432 309.401 250 305.826 250.962L296.578 253.449" stroke="black" stroke-width="2"/>
<path d="M326.807 195.616L320.467 201.77C318.114 204.055 314.677 204.825 311.573 203.762L310.123 203.266C306.323 201.965 302.184 204.049 300.934 207.867V207.867C299.245 213.028 292.582 214.49 288.853 210.542V210.542C286.129 207.658 281.527 207.561 278.724 210.369V210.369C276.109 212.989 271.911 213.135 269.12 210.702L261.902 204.41" stroke="black" stroke-width="2"/>
<path d="M325.99 194.982L321.828 202.776C320.283 205.67 317.244 207.451 313.965 207.385L312.432 207.354C308.416 207.274 305.109 210.521 305.084 214.538V214.538C305.049 219.969 299.148 223.392 294.393 220.769V220.769C290.919 218.853 286.507 220.163 284.694 223.692V223.692C283.002 226.985 279.048 228.404 275.649 226.938L266.855 223.146" stroke="black" stroke-width="2"/>
<path d="M327.864 186.412L318.103 189.349C314.47 190.442 310.533 189.718 307.527 187.404L305.629 185.943C302.081 183.212 297.048 183.519 293.837 186.639V186.639C289.416 190.934 282.047 189.615 279.444 184.028V184.028C277.543 179.948 272.91 177.912 268.619 179.272L268.202 179.404C264.021 180.729 259.478 179.004 257.229 175.239L252.184 166.793" stroke="black" stroke-width="2"/>
<path d="M324.124 196.132L331.293 186.268C333.953 182.608 337.965 180.163 342.436 179.478L346.026 178.927C351.082 178.152 355.082 174.206 355.955 169.165V169.165C357.178 162.105 364.349 157.697 371.185 159.848V159.848C376.092 161.392 381.435 159.591 384.406 155.391L385.121 154.379C388.218 150.002 393.606 147.864 398.861 148.927L409 150.978" stroke="black" stroke-width="2"/>
<path d="M325.809 198.433L330.357 187.119C332.045 182.922 335.34 179.573 339.51 177.818L342.857 176.409C347.572 174.425 350.489 169.623 350.107 164.522V164.522C349.572 157.376 355.453 151.353 362.607 151.773V151.773C367.742 152.075 372.485 149.026 374.343 144.229L374.791 143.073C376.727 138.073 381.431 134.687 386.787 134.437L397.12 133.955" stroke="black" stroke-width="2"/>
<path d="M325.461 194.4L327.616 182.398C328.416 177.945 330.962 173.996 334.689 171.431L337.68 169.372C341.893 166.471 343.774 161.176 342.364 156.259V156.259C340.388 149.371 344.923 142.279 352.013 141.237V141.237C357.102 140.489 361.127 136.54 361.971 131.465L362.175 130.243C363.055 124.954 366.973 120.683 372.167 119.35L382.186 116.779" stroke="black" stroke-width="2"/>
<path d="M322.496 206.93L333.501 194.883C337.583 190.415 343.87 188.693 349.658 190.459L352.2 191.234C359.331 193.409 366.854 189.167 368.746 181.955V181.955C371.295 172.239 383.426 168.84 390.569 175.903L390.853 176.183C396.027 181.299 404.437 181.018 409.258 175.567V175.567C413.764 170.472 421.488 169.842 426.76 174.14L440.733 185.53" stroke="black" stroke-width="2"/>
<path d="M325.668 203.941L320.932 187.941C319.173 182.001 320.898 175.576 325.396 171.316L327.498 169.326C333.006 164.109 333.147 155.357 327.855 149.92V149.92C320.702 142.571 324.099 130.143 333.971 127.366V127.366C341.184 125.337 345.382 117.724 343.141 110.574V110.574C341.05 103.903 344.486 96.7517 351.002 94.2159L367.856 87.6562" stroke="black" stroke-width="2"/>
<path d="M326.265 200.765L315.558 183.999C311.573 177.761 310.72 170.023 313.249 163.067L314.932 158.438C317.892 150.296 314.552 141.177 307.062 136.822V136.822C296.712 130.805 295.063 116.451 303.852 108.323V108.323C310.248 102.409 311.424 92.7349 306.631 85.4607L306.033 84.5525C301.301 77.3713 301.958 67.9124 307.636 61.4538L320 47.3915" stroke="black" stroke-width="2"/>
<path d="M324.31 188.54L309.627 175.118C304.164 170.124 301.337 162.871 301.979 155.496L302.406 150.59C303.158 141.959 297.571 134.015 289.209 131.748V131.748C277.655 128.615 272.346 115.177 278.732 105.051V105.051C283.378 97.6832 282.01 88.0344 275.497 82.2488L274.684 81.5265C268.255 75.8148 266.441 66.5083 270.254 58.8L278.556 42.0166" stroke="black" stroke-width="2"/>
<path d="M314.386 194.949L309.279 179.063C307.384 173.165 308.959 166.702 313.357 162.339L315.411 160.3C320.797 154.956 320.734 146.204 315.318 140.892V140.892C307.996 133.71 311.103 121.207 320.908 118.201V118.201C328.072 116.005 332.092 108.297 329.686 101.201V101.201C327.44 94.5799 330.709 87.3511 337.164 84.6646L353.862 77.7152" stroke="black" stroke-width="2"/>
<path d="M311.104 185.955L295.26 180.72C289.378 178.776 285.085 173.695 284.151 167.571L283.714 164.709C282.57 157.209 275.462 152.102 267.979 153.348V153.348C257.862 155.031 249.591 145.154 252.94 135.46V135.46C255.387 128.379 251.529 120.589 244.378 118.351V118.351C237.705 116.264 233.791 109.363 235.424 102.565L239.649 84.9787" stroke="black" stroke-width="2"/>
<path d="M323.148 193.683L302.298 188.883C294.548 187.099 287.944 182.058 284.179 175.053L281.406 169.893C277.076 161.837 267.792 157.746 258.912 159.932V159.932C246.551 162.974 234.465 153.829 234.14 141.104V141.104C233.904 131.91 227.41 124.07 218.421 122.128L216.765 121.771C207.64 119.799 200.739 112.304 199.527 103.047L197.048 84.1156" stroke="black" stroke-width="2"/>
<path d="M333.589 192.109L317.745 186.873C311.863 184.93 307.57 179.849 306.636 173.725L306.199 170.863C305.055 163.363 297.947 158.256 290.463 159.501V159.501C280.347 161.185 272.076 151.307 275.425 141.614V141.614C277.872 134.532 274.013 126.742 266.862 124.505V124.505C260.19 122.417 256.276 115.516 257.909 108.718L262.134 91.1322" stroke="black" stroke-width="2"/>
<path d="M329.598 200.282L314.73 207.857C309.21 210.669 302.579 210.144 297.57 206.499L295.23 204.796C289.095 200.332 280.465 201.789 276.084 207.983V207.983C270.162 216.356 257.324 215.284 252.793 206.083V206.083C249.482 199.362 241.232 196.622 234.61 200.13V200.13C228.432 203.402 220.774 201.328 217.093 195.384L207.569 180.008" stroke="black" stroke-width="2"/>
<path d="M323.139 197.115L323.364 213.8C323.447 219.994 320.046 225.711 314.562 228.593L312 229.94C305.285 233.47 302.778 241.856 306.399 248.523V248.523C311.293 257.535 304.657 268.578 294.401 268.577V268.577C286.909 268.576 280.805 274.767 281.026 282.257V282.257C281.231 289.245 275.986 295.198 269.027 295.874L251.025 297.622" stroke="black" stroke-width="2"/>
<path d="M362.776 320.424L349.691 310.069C344.833 306.225 342.545 299.979 343.769 293.907L344.341 291.069C345.841 283.632 340.917 276.395 333.46 274.997V274.997C323.38 273.106 319.002 260.99 325.474 253.035V253.035C330.203 247.223 329.252 238.582 323.303 234.026V234.026C317.752 229.776 316.444 221.95 320.312 216.126L330.315 201.058" stroke="black" stroke-width="2"/>
<path d="M400.436 288.932L384.662 283.489C378.806 281.468 374.58 276.331 373.727 270.195L373.328 267.328C372.283 259.813 365.242 254.613 357.743 255.76V255.76C347.605 257.311 339.464 247.325 342.941 237.677V237.677C345.481 230.628 341.725 222.788 334.604 220.457V220.457C327.959 218.282 324.136 211.33 325.859 204.553L330.314 187.025" stroke="black" stroke-width="2"/>
<path d="M430.862 236.221L414.399 238.947C408.287 239.959 402.125 237.455 398.452 232.466L396.736 230.135C392.239 224.025 383.571 222.805 377.523 227.386V227.386C369.347 233.577 357.434 228.674 355.896 218.534V218.534C354.772 211.126 347.735 206.021 340.364 207.363V207.363C333.485 208.615 326.813 204.322 325.1 197.543L320.67 180.008" stroke="black" stroke-width="2"/>
<path d="M444.601 159.22L435.323 173.09C431.879 178.239 425.836 181.019 419.685 180.283L416.811 179.939C409.278 179.038 402.457 184.524 401.659 192.069V192.069C400.579 202.267 388.851 207.599 380.404 201.782V201.782C374.233 197.533 365.696 199.17 361.63 205.464V205.464C357.835 211.337 350.14 213.265 344.025 209.875L328.206 201.106" stroke="black" stroke-width="2"/>
<path d="M324.253 204.893L327.232 221.311C328.337 227.407 325.928 233.607 320.996 237.355L318.691 239.107C312.651 243.698 311.565 252.383 316.237 258.36V258.36C322.553 266.44 317.833 278.428 307.718 280.121V280.121C300.328 281.358 295.332 288.472 296.786 295.822V295.822C298.144 302.681 293.954 309.418 287.202 311.235L269.737 315.933" stroke="black" stroke-width="2"/>
<path d="M326.828 206.709L314.854 218.331C310.409 222.646 303.918 224.1 298.057 222.094L295.319 221.156C288.141 218.699 280.324 222.636 277.964 229.847V229.847C274.774 239.594 262.19 242.354 255.148 234.899V234.899C250.003 229.452 241.311 229.267 236.019 234.571V234.571C231.08 239.52 223.151 239.795 217.88 235.201L204.247 223.317" stroke="black" stroke-width="2"/>
<path d="M325.285 205.512L317.424 220.232C314.506 225.696 308.768 229.06 302.574 228.936L299.68 228.878C292.095 228.726 285.85 234.859 285.801 242.446V242.446C285.735 252.701 274.592 259.167 265.611 254.213V254.213C259.051 250.595 250.717 253.068 247.293 259.733V259.733C244.098 265.952 236.631 268.632 230.21 265.864L213.603 258.702" stroke="black" stroke-width="2"/>
<path d="M328.824 189.325L310.389 194.873C303.528 196.938 296.093 195.57 290.415 191.199L286.83 188.439C280.131 183.282 270.624 183.862 264.561 189.754V189.754C256.211 197.866 242.295 195.375 237.378 184.823V184.823C233.788 177.117 225.038 173.273 216.934 175.841L216.147 176.09C208.251 178.592 199.67 175.336 195.423 168.224L185.895 152.274" stroke="black" stroke-width="2"/>
<path d="M321.762 207.683L335.549 188.711C340.413 182.018 347.75 177.548 355.928 176.294L363.125 175.19C372.675 173.726 380.23 166.273 381.878 156.754V156.754C384.187 143.419 397.731 135.094 410.641 139.156V139.156C419.908 142.072 429.999 138.671 435.61 130.739L436.962 128.829C442.81 120.562 452.985 116.524 462.91 118.532L482.059 122.406" stroke="black" stroke-width="2"/>
<path d="M324.943 212.029L333.691 190.269C336.777 182.592 342.803 176.468 350.428 173.259L357.14 170.435C366.044 166.687 371.555 157.618 370.834 147.984V147.984C369.823 134.489 380.93 123.114 394.44 123.907V123.907C404.139 124.476 413.096 118.718 416.605 109.658L417.45 107.476C421.108 98.0327 429.992 91.637 440.107 91.1653L459.622 90.2553" stroke="black" stroke-width="2"/>
<path d="M324.286 204.411L328.431 181.328C329.893 173.185 334.55 165.964 341.364 161.273L347.362 157.144C355.319 151.665 358.873 141.666 356.209 132.379V132.379C352.478 119.37 361.042 105.976 374.431 104.008V104.008C384.044 102.595 391.645 95.1373 393.24 85.5532L393.624 83.2447C395.286 73.2558 402.686 65.1886 412.494 62.6717L431.417 57.8159" stroke="black" stroke-width="2"/>
<path d="M314.785 199.404L327.487 194.428C332.198 192.582 337.55 193.611 341.241 197.071L342.861 198.591C347.409 202.854 354.618 202.448 358.699 197.736V197.736C364.197 191.387 374.552 193.314 377.304 201.249L377.414 201.564C379.408 207.312 385.821 210.204 391.449 207.894V207.894C396.71 205.734 402.737 208.112 405.106 213.282L411.386 226.984" stroke="black" stroke-width="2"/>
<path d="M318.267 198.333L320.618 184.581C321.491 179.476 325.156 175.293 330.102 173.757L332.414 173.039C338.471 171.157 341.807 164.644 339.843 158.612V158.612C337.189 150.459 344.324 142.389 352.755 143.949V143.949C358.915 145.088 364.874 140.926 365.831 134.735V134.735C366.724 128.958 371.941 124.862 377.765 125.364L392.831 126.663" stroke="black" stroke-width="2"/>
<path d="M319.888 196.17L318.042 179.641C317.355 173.491 319.57 167.371 324.035 163.085L327.006 160.233C332.231 155.217 333.09 147.143 329.078 141.113V141.113C323.534 132.779 327.594 121.402 337.187 118.548V118.548C344.168 116.471 348.621 109.647 347.709 102.421L347.596 101.519C346.696 94.3853 350.679 87.5313 357.323 84.7815L371.788 78.7944" stroke="black" stroke-width="2"/>
<path d="M322.931 186.277L316.87 170.79C314.614 165.026 315.17 158.542 318.373 153.246L320.504 149.723C324.253 143.525 322.993 135.504 317.556 130.717V130.717C310.044 124.103 311.02 112.062 319.548 106.822V106.822C325.754 103.009 328.288 95.2656 325.537 88.5219L325.194 87.6799C322.478 81.0222 324.551 73.3708 330.257 68.995L342.679 59.4676" stroke="black" stroke-width="2"/>
<path d="M313.122 187.423L315.153 173.62C315.907 168.496 319.474 164.229 324.384 162.579L326.677 161.807C332.69 159.786 335.873 153.197 333.77 147.212V147.212C330.927 139.123 337.872 130.889 346.338 132.252V132.252C352.522 133.249 358.383 128.949 359.196 122.738V122.738C359.955 116.942 365.075 112.725 370.91 113.092L386.001 114.04" stroke="black" stroke-width="2"/>
<path d="M313.979 179.465L304.024 169.69C300.328 166.061 298.983 160.665 300.542 155.726L301.271 153.418C303.18 147.369 299.733 140.915 293.658 139.087V139.087C285.447 136.617 282.888 126.154 288.977 120.118V120.118C293.427 115.708 293.407 108.44 288.867 104.123V104.123C284.632 100.094 284.242 93.4722 287.976 88.9747L297.636 77.3406" stroke="black" stroke-width="2"/>
<path d="M320.162 189.707L306.291 178.411C301.135 174.212 298.041 167.994 297.802 161.349L297.625 156.454C297.35 148.813 291.895 142.318 284.426 140.68V140.68C274.03 138.401 268.338 127.08 272.79 117.413V117.413C276.006 110.429 274.027 102.151 268 97.3765L266.89 96.4972C260.772 91.6507 258.361 83.4811 260.867 76.0892L265.994 60.9714" stroke="black" stroke-width="2"/>
<path d="M328.576 192.379L318.622 182.604C314.926 178.975 313.581 173.579 315.14 168.64L315.868 166.332C317.778 160.283 314.33 153.829 308.256 152.001V152.001C300.045 149.531 297.485 139.068 303.575 133.032V133.032C308.024 128.622 308.004 121.354 303.465 117.037V117.037C299.229 113.008 298.84 106.386 302.574 101.889L312.233 90.2546" stroke="black" stroke-width="2"/>
<path d="M322.566 197.038L308.616 197.234C303.437 197.307 298.656 194.466 296.243 189.883L295.116 187.741C292.161 182.128 285.149 180.037 279.577 183.067V183.067C272.044 187.163 262.808 181.621 262.804 173.046V173.046C262.801 166.782 257.622 161.682 251.36 161.87V161.87C245.517 162.045 240.538 157.662 239.97 151.845L238.499 136.795" stroke="black" stroke-width="2"/>
<path d="M318.889 192.278L312.9 204.879C310.676 209.556 306.015 212.59 300.838 212.729L298.418 212.794C292.078 212.963 287.102 218.33 287.358 224.668V224.668C287.704 233.235 278.65 239.071 270.957 235.285V235.285C265.336 232.52 258.473 234.912 255.874 240.612V240.612C253.449 245.93 247.317 248.461 241.847 246.399L227.697 241.068" stroke="black" stroke-width="2"/>
<path d="M303.119 299.415L297.124 286.817C294.898 282.141 295.486 276.61 298.646 272.507L300.122 270.589C303.991 265.563 302.968 258.317 297.89 254.516V254.516C291.026 249.378 292.212 238.672 300.004 235.092V235.092C305.696 232.477 308.172 225.644 305.39 220.031V220.031C302.794 214.793 304.701 208.44 309.752 205.497L322.817 197.884" stroke="black" stroke-width="2"/>
<path d="M342.995 289.687L333.17 279.782C329.522 276.105 328.248 270.692 329.872 265.774L330.631 263.475C332.62 257.452 329.257 250.953 323.207 249.046V249.046C315.03 246.468 312.608 235.972 318.776 230.017V230.017C323.283 225.666 323.359 218.398 318.877 214.021V214.021C314.694 209.937 314.392 203.311 318.185 198.863L327.996 187.357" stroke="black" stroke-width="2"/>
<path d="M385.273 261.37L371.916 257.34C366.958 255.844 363.259 251.691 362.345 246.593L361.917 244.211C360.798 237.967 354.746 233.854 348.518 235.058V235.058C340.099 236.686 332.971 228.61 335.559 220.436V220.436C337.45 214.463 334.055 208.037 328.029 206.323V206.323C322.407 204.724 318.985 199.041 320.202 193.323L323.349 178.533" stroke="black" stroke-width="2"/>
<path d="M423.996 208.673L411.918 215.655C407.433 218.247 401.874 218.102 397.531 215.28L395.501 213.961C390.182 210.505 383.041 212.104 379.658 217.469V217.469C375.084 224.722 364.318 224.394 360.128 216.913V216.913C357.066 211.447 350.057 209.525 344.684 212.746V212.746C339.67 215.752 333.185 214.359 329.848 209.559L321.217 197.143" stroke="black" stroke-width="2"/>
<path d="M316.854 198.524L313.03 211.941C311.61 216.922 307.514 220.684 302.43 221.677L300.055 222.14C293.829 223.355 289.809 229.47 291.109 235.679V235.679C292.865 244.071 284.9 251.322 276.687 248.86V248.86C270.686 247.061 264.313 250.554 262.691 256.605V256.605C261.179 262.252 255.549 265.76 249.814 264.631L234.977 261.711" stroke="black" stroke-width="2"/>
<path d="M318.116 200.838L304.844 205.138C299.917 206.735 294.51 205.43 290.854 201.762L289.145 200.048C284.667 195.556 277.35 195.624 272.918 200.163V200.163C266.928 206.299 256.469 203.725 253.937 195.533V195.533C252.087 189.548 245.635 186.202 239.707 188.228V188.228C234.175 190.118 228.125 187.399 225.866 182.007L220.024 168.06" stroke="black" stroke-width="2"/>
<path d="M317.4 199.37L306.071 207.512C301.865 210.535 296.318 210.94 291.718 208.562L289.568 207.45C283.933 204.537 276.985 206.834 274.149 212.507V212.507C270.314 220.177 259.568 220.915 254.659 213.885V213.885C251.072 208.749 243.907 207.529 238.879 211.266V211.266C234.187 214.753 227.596 214.007 223.801 209.561L213.985 198.059" stroke="black" stroke-width="2"/>
<path d="M326.029 188.533L310.151 185.891C304.242 184.908 299.168 181.138 296.522 175.764L294.851 172.371C291.729 166.029 284.382 162.956 277.659 165.138V165.138C268.401 168.143 258.88 161.138 259.086 151.408V151.408C259.236 144.302 254.09 138.188 247.063 137.124L246.38 137.021C239.533 135.984 234.298 130.374 233.735 123.472L232.474 107.989" stroke="black" stroke-width="2"/>
<path d="M313.955 199.698L330.988 190.718C337.307 187.387 344.695 186.719 351.509 188.864L356.978 190.586C364.683 193.012 373.101 190.209 377.851 183.675V183.675C384.504 174.524 397.737 173.277 405.923 181.088V181.088C411.8 186.696 420.625 187.868 427.762 183.988L429.481 183.053C436.919 179.01 446.043 179.736 452.748 184.905L465.684 194.877" stroke="black" stroke-width="2"/>
<path d="M314.738 204.133L329.068 191.272C334.385 186.501 341.388 184.053 348.519 184.473L354.243 184.81C362.306 185.285 369.788 180.514 372.802 173.02V173.02C377.024 162.523 389.554 158.088 399.397 163.669V163.669C406.463 167.676 415.308 166.661 421.284 161.159L422.724 159.834C428.952 154.099 437.978 152.58 445.74 155.959L460.717 162.478" stroke="black" stroke-width="2"/>
<path d="M317.057 198.176L328.476 182.672C332.712 176.921 339.071 173.101 346.139 172.063L351.812 171.23C359.804 170.057 366.16 163.866 367.589 155.916V155.916C369.59 144.78 380.958 137.892 391.73 141.357V141.357C399.463 143.844 407.917 141.054 412.651 134.452L413.791 132.862C418.724 125.982 427.253 122.661 435.54 124.392L451.528 127.732" stroke="black" stroke-width="2"/>
<path d="M334.442 201.841L336.795 188.403C337.668 183.419 341.33 179.383 346.205 178.029L348.345 177.435C354.352 175.767 357.753 169.398 355.85 163.462V163.462C353.286 155.465 360.316 147.622 368.525 149.396L368.851 149.466C374.797 150.752 380.603 146.777 381.555 140.769V140.769C382.446 135.152 387.611 131.24 393.259 131.904L408.228 133.665" stroke="black" stroke-width="2"/>
<path d="M335.337 198.309L324.813 189.15C320.906 185.75 319.238 180.444 320.498 175.421L321.086 173.073C322.629 166.921 318.8 160.685 312.627 159.226V159.226C304.282 157.253 301.098 146.963 306.814 140.572V140.572C310.991 135.903 310.534 128.649 305.743 124.612V124.612C301.273 120.845 300.487 114.259 303.944 109.545L312.887 97.3516" stroke="black" stroke-width="2"/>
<path d="M334.332 195.8L319.253 188.783C313.642 186.171 309.567 181.097 308.227 175.055L307.336 171.035C305.768 163.963 299.319 159.031 292.081 159.322V159.322C282.08 159.725 274.472 150.341 277.023 140.663V140.663C278.879 133.62 275.365 126.269 268.718 123.29L267.889 122.918C261.327 119.977 257.544 113.011 258.649 105.906L261.056 90.4373" stroke="black" stroke-width="2"/>
<path d="M327.465 188.056L311.083 185.181C304.988 184.111 299.737 180.265 296.88 174.776L294.978 171.123C291.633 164.698 284.126 161.604 277.211 163.759V163.759C267.655 166.736 257.878 159.642 257.836 149.633V149.633C257.805 142.35 252.508 136.159 245.318 135.002L244.42 134.858C237.321 133.715 231.863 127.966 231.092 120.817L229.413 105.253" stroke="black" stroke-width="2"/>
<path d="M323.342 197.032L312.608 188.12C308.623 184.811 306.833 179.546 307.976 174.494L308.51 172.133C309.909 165.947 305.936 159.801 299.731 158.486V158.486C291.343 156.708 287.92 146.495 293.487 139.973V139.973C297.553 135.207 296.928 127.966 292.045 124.042V124.042C287.489 120.38 286.549 113.813 289.896 109.021L298.553 96.6227" stroke="black" stroke-width="2"/>
<path d="M316.991 192.161L303.465 195.582C298.444 196.852 293.135 195.196 289.727 191.296L288.134 189.473C283.96 184.697 276.654 184.286 271.935 188.524V188.524C265.555 194.254 255.287 191 253.297 182.66V182.66C251.844 176.566 245.625 172.804 239.577 174.437V174.437C233.933 175.96 228.075 172.85 226.174 167.321L221.259 153.021" stroke="black" stroke-width="2"/>
<path d="M328.954 192.205L312.093 198.18C305.826 200.401 298.905 199.811 293.105 196.56L288.832 194.166C282.162 190.428 273.777 191.711 268.495 197.239V197.239C261.143 204.934 248.513 203.91 242.57 195.081V195.081C238.276 188.702 230.176 186.088 222.964 188.754L221.636 189.245C214.315 191.951 206.083 189.763 201.072 183.778L190.824 171.539" stroke="black" stroke-width="2"/>
<path d="M335.612 186.407L322.086 189.828C317.065 191.098 311.756 189.441 308.348 185.541L306.755 183.719C302.581 178.943 295.275 178.532 290.556 182.77V182.77C284.176 188.499 273.908 185.246 271.919 176.905V176.905C270.465 170.812 264.246 167.05 258.198 168.682V168.682C252.554 170.206 246.696 167.095 244.796 161.567L239.88 147.267" stroke="black" stroke-width="2"/>
<path d="M336.466 193.964L329.38 205.982C326.75 210.443 321.837 213.05 316.668 212.728L314.252 212.577C307.922 212.182 302.489 217.085 302.18 223.42V223.42C301.762 231.985 292.225 236.992 284.899 232.537V232.537C279.546 229.282 272.498 231.054 269.402 236.501V236.501C266.514 241.583 260.181 243.558 254.916 241.018L241.296 234.449" stroke="black" stroke-width="2"/>
<path d="M330.488 194.63L338.137 206.297C340.977 210.629 341.145 216.188 338.571 220.682L337.369 222.783C334.217 228.287 336.214 235.327 341.761 238.404V238.404C349.259 242.563 349.536 253.331 342.302 257.935V257.935C337.017 261.298 335.492 268.405 339.009 273.588V273.588C342.292 278.425 341.265 284.978 336.66 288.579L324.748 297.894" stroke="black" stroke-width="2"/>
<path d="M413.804 263.807L399.926 262.378C394.774 261.847 390.356 258.469 388.493 253.637L387.623 251.378C385.342 245.46 378.62 242.566 372.733 244.927V244.927C364.775 248.119 356.247 241.539 357.241 233.023V233.023C357.967 226.8 353.417 221.133 347.176 220.59V220.59C341.352 220.084 336.916 215.152 337.029 209.308L337.32 194.189" stroke="black" stroke-width="2"/>
<path d="M426.228 224.687L412.659 227.929C407.622 229.133 402.335 227.407 398.978 223.462L397.41 221.619C393.299 216.789 385.999 216.281 381.224 220.457V220.457C374.77 226.102 364.545 222.714 362.666 214.348V214.348C361.292 208.236 355.124 204.393 349.055 205.946V205.946C343.391 207.395 337.574 204.208 335.747 198.655L331.02 184.291" stroke="black" stroke-width="2"/>
<path d="M424.023 173.85L413.636 183.164C409.78 186.621 404.309 187.621 399.479 185.752L397.222 184.878C391.306 182.588 384.646 185.619 382.436 191.565V191.565C379.449 199.602 368.845 201.492 363.208 195.031V195.031C359.09 190.311 351.835 189.869 347.238 194.125V194.125C342.948 198.096 336.315 198.064 332.064 194.052L321.067 183.673" stroke="black" stroke-width="2"/>
<path d="M399.144 113.372L398.827 127.32C398.71 132.498 395.695 137.172 391.027 139.414L388.845 140.462C383.128 143.209 380.78 150.14 383.604 155.82V155.82C387.421 163.498 381.543 172.524 372.974 172.213V172.213C366.713 171.986 361.427 176.974 361.385 183.238V183.238C361.345 189.084 356.783 193.899 350.948 194.253L335.854 195.17" stroke="black" stroke-width="2"/>
<path d="M334.766 199.615L344.238 209.859C347.754 213.661 348.838 219.116 347.043 223.974L346.204 226.244C344.005 232.194 347.137 238.808 353.116 240.926V240.926C361.199 243.789 363.251 254.363 356.877 260.098V260.098C352.22 264.289 351.89 271.549 356.216 276.081V276.081C360.253 280.309 360.322 286.942 356.376 291.254L346.167 302.409" stroke="black" stroke-width="2"/>
<path d="M337.398 199.74L334.171 213.313C332.973 218.352 329.047 222.292 324.013 223.508L321.66 224.076C315.494 225.566 311.748 231.852 313.321 237.997V237.997C315.448 246.304 307.811 253.9 299.497 251.804V251.804C293.423 250.272 287.21 254.043 285.858 260.16V260.16C284.596 265.868 279.127 269.622 273.347 268.748L258.396 266.487" stroke="black" stroke-width="2"/>
<path d="M335.772 199.589L336.837 213.5C337.232 218.664 334.694 223.613 330.27 226.306L328.203 227.564C322.785 230.863 321.134 237.992 324.505 243.365V243.365C329.063 250.628 324.106 260.191 315.549 260.729V260.729C309.296 261.122 304.529 266.608 305.106 272.846V272.846C305.645 278.667 301.581 283.909 295.81 284.839L280.881 287.244" stroke="black" stroke-width="2"/>
<path d="M331.001 186.583L320.49 198.772C316.577 203.309 310.719 205.682 304.752 205.148L300.985 204.811C293.944 204.181 287.5 208.859 285.868 215.736V215.736C283.621 225.206 272.687 229.697 264.482 224.462V224.462C258.491 220.639 250.593 221.856 246.03 227.305L245.587 227.834C241.141 233.144 233.627 234.699 227.438 231.591L213.557 224.618" stroke="black" stroke-width="2"/>
<path d="M334.261 202.702L335.447 183.484C335.886 176.354 339.158 169.696 344.533 164.991L348.848 161.214C354.926 155.894 356.908 147.246 353.797 139.792V139.792C349.439 129.35 355.255 117.398 366.183 114.467V114.467C374.03 112.363 379.619 105.434 380.016 97.3204L380.112 95.3662C380.525 86.91 385.889 79.4941 393.791 76.4543L409.035 70.5899" stroke="black" stroke-width="2"/>
<path d="M338.456 204.339L334.922 185.411C333.611 178.389 335.161 171.134 339.228 165.261L342.492 160.547C347.09 153.906 346.905 145.036 342.071 138.565V138.565C335.3 129.5 338.027 116.49 347.912 110.985V110.985C355.008 107.032 358.741 98.9491 357.148 90.9836L356.764 89.0649C355.104 80.763 358.499 72.2634 365.422 67.3895L378.777 57.9864" stroke="black" stroke-width="2"/>
<path d="M334.574 199.261L327.268 181.446C324.558 174.837 324.602 167.418 327.39 160.842L329.628 155.563C332.781 148.126 330.798 139.478 324.75 134.124V134.124C316.279 126.624 316.306 113.332 324.866 105.933V105.933C331.011 100.621 333.024 91.9481 329.846 84.4722L329.081 82.6716C325.769 74.88 327.366 65.868 333.154 59.6893L344.321 47.769" stroke="black" stroke-width="2"/>
<path d="M326.972 203.348L334.133 191.736C336.788 187.429 341.684 185.035 346.714 185.582L348.922 185.822C355.119 186.496 360.636 181.838 361.066 175.62V175.62C361.644 167.241 371.078 162.557 378.047 167.244L378.324 167.43C383.372 170.826 390.236 169.282 393.345 164.053V164.053C396.252 159.165 402.498 157.443 407.499 160.151L420.753 167.327" stroke="black" stroke-width="2"/>
<path d="M329.111 200.398L322.725 187.995C320.354 183.39 320.769 177.844 323.799 173.643L325.214 171.68C328.925 166.536 327.676 159.325 322.481 155.685V155.685C315.46 150.764 316.311 140.026 323.987 136.205V136.205C329.595 133.413 331.855 126.505 328.899 120.982V120.982C326.141 115.828 327.848 109.418 332.805 106.319L345.626 98.3019" stroke="black" stroke-width="2"/>
<path d="M329.107 197.696L317.696 185.595C313.451 181.093 311.543 174.87 312.535 168.761L313.195 164.697C314.357 157.547 310.19 150.578 303.359 148.169V148.169C293.92 144.841 290.325 133.308 296.277 125.261V125.261C300.608 119.406 300.065 111.276 294.994 106.049L294.361 105.396C289.354 100.235 288.418 92.3634 292.075 86.1726L300.037 72.6934" stroke="black" stroke-width="2"/>
<path d="M325.593 187.96L311.44 179.225C306.173 175.975 302.719 170.459 302.097 164.301L301.682 160.204C300.953 152.998 295.125 147.344 287.903 146.786V146.786C277.924 146.015 271.467 135.806 275.133 126.492V126.492C277.8 119.715 275.171 112.003 268.919 108.267L268.139 107.8C261.967 104.112 259.025 96.7502 260.955 89.8238L265.156 74.743" stroke="black" stroke-width="2"/>
<path d="M318.442 194.772L311.769 182.52C309.292 177.971 309.578 172.417 312.509 168.147L313.879 166.152C317.469 160.922 316.053 153.743 310.775 150.224V150.224C303.641 145.468 304.243 134.713 311.828 130.714V130.714C317.369 127.793 319.469 120.835 316.386 115.382V115.382C313.508 110.293 315.066 103.846 319.949 100.632L332.581 92.3192" stroke="black" stroke-width="2"/>
<path d="M314.343 187.896L300.512 186.067C295.378 185.389 291.059 181.885 289.336 177L288.531 174.718C286.422 168.736 279.787 165.649 273.834 167.84V167.84C265.787 170.801 257.452 163.977 258.691 155.493V155.493C259.597 149.294 255.212 143.497 248.989 142.775V142.775C243.183 142.101 238.891 137.043 239.172 131.205L239.9 116.101" stroke="black" stroke-width="2"/>
<path d="M325.441 192.365L307.566 191.675C300.922 191.418 294.711 188.308 290.526 183.141L287.443 179.335C282.63 173.394 274.366 171.482 267.413 174.662V174.662C257.735 179.089 246.381 173.463 244.128 163.061V163.061C242.501 155.546 235.944 150.119 228.257 149.926L226.841 149.891C219.039 149.695 212.201 144.615 209.762 137.201L204.772 122.037" stroke="black" stroke-width="2"/>
<path d="M333.772 189.443L319.941 187.615C314.806 186.936 310.487 183.432 308.765 178.547L307.96 176.265C305.851 170.283 299.216 167.196 293.263 169.387V169.387C285.216 172.348 276.881 165.525 278.12 157.04V157.04C279.025 150.841 274.641 145.045 268.418 144.322V144.322C262.611 143.649 258.32 138.591 258.601 132.752L259.328 117.648" stroke="black" stroke-width="2"/>
<path d="M331.769 196.78L320.738 205.321C316.642 208.492 311.114 209.095 306.431 206.882L304.243 205.848C298.508 203.138 291.646 205.681 289.014 211.453V211.453C285.456 219.254 274.743 220.375 269.586 213.525V213.525C265.819 208.52 258.614 207.557 253.723 211.471V211.471C249.158 215.123 242.545 214.613 238.594 210.305L228.373 199.161" stroke="black" stroke-width="2"/>
<path d="M325.969 195.186L328.756 208.856C329.791 213.931 327.889 219.157 323.834 222.38L321.94 223.886C316.974 227.833 316.223 235.112 320.237 240.023V240.023C325.663 246.663 321.935 256.768 313.511 258.367V258.367C307.356 259.535 303.309 265.572 304.658 271.69V271.69C305.917 277.398 302.537 283.106 296.926 284.746L282.413 288.99" stroke="black" stroke-width="2"/>
<path d="M377.761 290.289L365.397 283.824C360.807 281.424 357.954 276.651 358.012 271.472L358.039 269.052C358.111 262.709 352.938 257.533 346.595 257.548V257.548C338.021 257.567 332.534 248.298 336.61 240.754V240.754C339.587 235.242 337.458 228.293 331.861 225.479V225.479C326.639 222.853 324.344 216.63 326.612 211.242L332.478 197.305" stroke="black" stroke-width="2"/>
<path d="M403.783 258.546L389.977 256.536C384.852 255.79 380.58 252.229 378.922 247.322L378.147 245.03C376.116 239.02 369.522 235.847 363.541 237.959V237.959C355.456 240.814 347.211 233.882 348.562 225.414V225.414C349.549 219.228 345.241 213.374 339.028 212.57V212.57C333.231 211.82 329.006 206.706 329.364 200.871L330.29 185.778" stroke="black" stroke-width="2"/>
<path d="M420.551 210.504L407.454 215.312C402.592 217.096 397.14 216 393.345 212.475L391.572 210.828C386.924 206.511 379.615 206.861 375.361 211.567V211.567C369.612 217.928 359.061 215.759 356.216 207.67V207.67C354.137 201.76 347.561 198.665 341.716 200.916V200.916C336.261 203.018 330.111 200.533 327.646 195.232L321.272 181.52" stroke="black" stroke-width="2"/>
<path d="M419.826 145.113L414.369 157.953C412.343 162.72 407.813 165.946 402.646 166.301L400.231 166.467C393.903 166.902 389.156 172.471 389.677 178.793V178.793C390.381 187.339 381.579 193.548 373.734 190.087V190.087C368.002 187.559 361.245 190.236 358.887 196.04V196.04C356.687 201.455 350.666 204.24 345.114 202.409L330.754 197.674" stroke="black" stroke-width="2"/>
<path d="M328.097 201.401L333.105 214.422C334.964 219.257 333.951 224.725 330.485 228.574L328.865 230.372C324.62 235.085 325.083 242.388 329.853 246.569V246.569C336.301 252.221 334.294 262.803 326.25 265.772V265.772C320.373 267.941 317.378 274.564 319.72 280.374V280.374C321.904 285.796 319.514 291.984 314.251 294.529L300.639 301.112" stroke="black" stroke-width="2"/>
<path d="M330.496 202.491L322.474 213.905C319.496 218.143 314.391 220.349 309.264 219.615L306.868 219.273C300.589 218.374 294.782 222.827 293.969 229.118V229.118C292.869 237.622 282.963 241.852 276.016 236.827V236.827C270.94 233.155 263.772 234.359 260.252 239.541V239.541C256.967 244.377 250.497 245.84 245.451 242.888L232.399 235.253" stroke="black" stroke-width="2"/>
<path d="M329.042 201.748L324.881 215.065C323.337 220.009 319.147 223.667 314.041 224.531L311.655 224.935C305.4 225.993 301.228 232.005 302.371 238.244V238.244C303.916 246.678 295.772 253.727 287.623 251.06V251.06C281.669 249.11 275.21 252.442 273.437 258.451V258.451C271.783 264.058 266.067 267.424 260.362 266.151L245.603 262.859" stroke="black" stroke-width="2"/>
<path d="M329.424 187.901L315.147 195.333C309.833 198.099 303.513 198.135 298.167 195.431L294.792 193.723C288.485 190.532 280.767 192.491 276.705 198.276V198.276C271.112 206.242 259.293 206.367 253.609 198.466V198.466C249.458 192.697 241.67 190.904 235.415 194.277L234.807 194.605C228.711 197.892 221.156 196.555 216.557 191.377L206.243 179.761" stroke="black" stroke-width="2"/>
<path d="M326.486 204.081L334.701 186.667C337.749 180.206 343.252 175.232 349.987 172.851L355.393 170.94C363.009 168.247 368.052 160.947 367.921 152.871V152.871C367.738 141.558 377.564 132.607 388.801 133.93V133.93C396.869 134.88 404.627 130.512 407.999 123.121L408.811 121.341C412.325 113.639 420.053 108.735 428.519 108.836L444.851 109.031" stroke="black" stroke-width="2"/>
<path d="M329.777 207.155L333.5 188.263C334.881 181.255 339.007 175.089 344.958 171.138L349.736 167.967C356.465 163.5 359.577 155.191 357.482 147.39V147.39C354.547 136.463 361.896 125.387 373.116 123.931V123.931C381.172 122.886 387.631 116.759 389.1 108.77L389.454 106.845C390.985 98.5187 397.285 91.8795 405.52 89.9142L421.407 86.1227" stroke="black" stroke-width="2"/>
<path d="M328.05 201L327.857 181.747C327.786 174.603 330.573 167.728 335.597 162.651L339.631 158.575C345.313 152.834 346.671 144.066 343.035 136.854V136.854C337.941 126.75 342.887 114.413 353.577 110.708V110.708C361.253 108.048 366.333 100.736 366.148 92.615L366.103 90.6589C365.911 82.1948 370.73 74.4142 378.394 70.8168L393.18 63.8767" stroke="black" stroke-width="2"/>
</svg>
