<?xml version="1.0" encoding="UTF-8"?>
<!DOCTYPE svg PUBLIC "-//W3C//DTD SVG 1.1//EN" "http://www.w3.org/Graphics/SVG/1.1/DTD/svg11.dtd">
<svg xmlns="http://www.w3.org/2000/svg" version="1.1" width="32px" height="56px" style="shape-rendering:geometricPrecision; text-rendering:geometricPrecision; image-rendering:optimizeQuality; fill-rule:evenodd; clip-rule:evenodd" xmlns:xlink="http://www.w3.org/1999/xlink">
<g><path style="opacity:0.978" fill="#f0b802" d="M 2.5,-0.5 C 3.83333,-0.5 5.16667,-0.5 6.5,-0.5C 7.60048,0.60486 8.26714,1.93819 8.5,3.5C 8.66551,7.51383 8.49885,11.5138 8,15.5C 5.50603,18.0858 3.00603,18.0858 0.5,15.5C 0.334181,10.8215 0.500847,6.1548 1,1.5C 1.71719,0.955796 2.21719,0.28913 2.5,-0.5 Z"/></g>
<g><path style="opacity:0.978" fill="#c99a10" d="M 24.5,-0.5 C 25.8333,-0.5 27.1667,-0.5 28.5,-0.5C 29.1667,0.833333 30.1667,1.83333 31.5,2.5C 31.5,6.83333 31.5,11.1667 31.5,15.5C 31.1667,15.5 30.8333,15.5 30.5,15.5C 27.8333,18.1667 25.1667,18.1667 22.5,15.5C 20.7456,9.90334 21.4123,4.57001 24.5,-0.5 Z"/></g>
<g><path style="opacity:0.008" fill="#050505" d="M 8.5,3.5 C 9.64697,7.64631 9.81364,11.9796 9,16.5C 5.57236,20.5163 2.73902,20.1829 0.5,15.5C 3.00603,18.0858 5.50603,18.0858 8,15.5C 8.49885,11.5138 8.66551,7.51383 8.5,3.5 Z"/></g>
<g><path style="opacity:0.054" fill="#000000" d="M 22.5,15.5 C 25.1667,18.1667 27.8333,18.1667 30.5,15.5C 29.1816,19.1588 26.8483,19.9921 23.5,18C 22.7476,17.3292 22.4142,16.4959 22.5,15.5 Z"/></g>
<g><path style="opacity:0.973" fill="#e5af07" d="M 31.5,35.5 C 31.5,37.5 31.5,39.5 31.5,41.5C 31.1667,41.5 30.8333,41.5 30.5,41.5C 24.6453,53.229 15.9786,55.8957 4.5,49.5C 3.41613,46.9959 2.0828,44.6626 0.5,42.5C 0.334989,39.1501 0.501655,35.8168 1,32.5C 3.33333,29.8333 5.66667,29.8333 8,32.5C 9.03647,35.7527 9.70313,39.086 10,42.5C 13.6176,46.3048 17.2843,46.3048 21,42.5C 20.8928,38.5114 22.0595,35.0114 24.5,32C 27.8396,31.1762 30.173,32.3429 31.5,35.5 Z"/></g>
<g><path style="opacity:0.02" fill="#151003" d="M 0.5,42.5 C 2.0828,44.6626 3.41613,46.9959 4.5,49.5C 1.88814,47.9478 0.554806,45.6145 0.5,42.5 Z"/></g>
<g><path style="opacity:0.081" fill="#090601" d="M 30.5,41.5 C 27.9593,51.9498 21.2926,56.1164 10.5,54C 7.89361,53.2082 5.89361,51.7082 4.5,49.5C 15.9786,55.8957 24.6453,53.229 30.5,41.5 Z"/></g>
</svg>
