<?xml version="1.0" encoding="utf-8"?>
<!-- Generator: Adobe Illustrator 27.5.0, SVG Export Plug-In . SVG Version: 6.00 Build 0)  -->
<svg version="1.1" xmlns="http://www.w3.org/2000/svg" xmlns:xlink="http://www.w3.org/1999/xlink" x="0px" y="0px"
	 viewBox="0 0 500 500" style="enable-background:new 0 0 500 500;" xml:space="preserve">
<g id="BACKGROUND">
	<rect style="fill:#FFE8D4;" width="500" height="500"/>
	<path style="fill:#FFE8D4;" d="M454.24,57.1c0,16.63,3.98,34.56,3.98,51.48c0,56.23-36.98,30.19-50.91,48.1
		c-13.25,17.03-10.92,44.87-24.95,62.76c-35.68,45.49-89.66-17.01-135.57,85.96c-23.76-16.09-32.96-52.51-60.52-65.92
		c-22.19-10.78-53.6-4.86-72.54-24.27c-18.67-19.14-14.47-49.28-29.89-68.75c-14.16-17.87-44.62-12.42-44.62-56.29
		c0-15.49,4.07-31.67,4.07-46.83c0-22.63-14.71-32.36-32.84-43.34H482.9C467.61,15.31,454.24,30.39,454.24,57.1z"/>
</g>
<g id="OBJECTS">
	<g>
		<defs>
			<rect id="SVGID_1_" width="500" height="500"/>
		</defs>
		<clipPath id="SVGID_00000059289188903199127010000013582656068271613594_">
			<use xlink:href="#SVGID_1_"  style="overflow:visible;"/>
		</clipPath>
	</g>
	<g>
		<defs>
			<rect id="SVGID_00000044163033162663496310000017653690118817733799_" width="500" height="500"/>
		</defs>
		<clipPath id="SVGID_00000031907916099202067910000004555141335645313202_">
			<use xlink:href="#SVGID_00000044163033162663496310000017653690118817733799_"  style="overflow:visible;"/>
		</clipPath>
		<g style="clip-path:url(#SVGID_00000031907916099202067910000004555141335645313202_);">
			<g>
				<path style="fill:#3C1319;" d="M254.162,197.511l-101.271-0.525c0,0-7.762,23.475-20.321,36.257
					c-12.559,12.782-33.213,22.475-21.933,49.319c9.256,22.026-10.439,43.864-21.155,56.248c-10.556,12.2-5.674,24.728,7.794,53.747
					c0,0,9.153,4.042,16.552,6.852l2.665-12.557c2.812,0.836,5.48,15.177,8.834,15.866c3.318,0.681,6.89,1.258,10.693,1.666
					c-5.272-9.755-6.682-19.888-1.666-28.188c18.511-33.862,31.038-67.522,15.504-103.256
					c-11.151-26.817,15.862-48.881,45.59-54.418c20.747-3.713,39.772-1.362,58.148,3.272
					C253.751,213.7,254.005,205.606,254.162,197.511z"/>
				<g>
					<path style="fill:#3C1319;" d="M156.218,195.577c0.151,10.713-5.107,21.635-14.502,29.758
						c-3.745,3.238-8.22,6.163-12.547,8.993c-7.701,5.035-15.665,10.24-19.715,17.361c-4.928,8.666-3.02,18.171-1.173,27.363
						c1.365,6.789,2.776,13.81,1.484,20.527c-1.558,8.106-6.993,15.519-12.248,22.687c-3.19,4.351-6.49,8.85-8.94,13.505
						c-9.275,17.613-6.255,38.184,7.881,53.684l1.05-0.542c-13.904-15.245-16.873-35.477-7.751-52.802
						c2.422-4.598,5.701-9.069,8.872-13.394c5.31-7.244,10.803-14.734,12.393-23.012c1.318-6.857-0.106-13.947-1.484-20.805
						c-1.905-9.478-3.702-18.43,1.084-26.846c3.937-6.918,11.437-11.821,19.377-17.013c4.361-2.85,8.87-5.799,12.675-9.088
						c9.682-8.372,15.065-19.654,14.811-30.69C157.061,195.366,156.639,195.472,156.218,195.577z"/>
				</g>
				<path style="fill:#3C1319;" d="M136.02,404.384c0,0,73.714,6.836,116.033,0.705l1.542-183.294l-31.299-11.582l-50.27,6.765
					l-21.047,12.759l-18.163,37.568l-0.429,42.279l-5.655,42.087l-2.26,16.527C120.381,381.725,124.908,393.662,136.02,404.384z"/>
			</g>
			<g>
				<path style="fill:#3C1319;" d="M253.524,197.507l98.105,0.543c0,0,10.449,23.73,22.747,36.663
					c12.297,12.933,32.752,22.876,20.928,49.58c-9.702,21.911,9.547,43.986,20.01,56.498c10.307,12.326,5.171,24.794-8.885,53.646
					c0,0-9.234,3.931-16.689,6.65l-2.41-12.588c-2.829,0.802-5.788,15.109-9.155,15.757c-3.331,0.641-6.915,1.174-10.726,1.536
					c5.469-9.69,7.085-19.804,2.239-28.164c-17.821-34.083-29.662-67.891-13.405-103.431c11.694-26.678-14.867-49.067-44.479-54.965
					c-20.669-3.964-39.739-1.846-58.207,2.565C253.606,213.7,253.516,205.603,253.524,197.507z"/>
				<g>
					<path style="fill:#3C1319;" d="M416.281,337.762c-2.355-4.685-5.563-9.223-8.664-13.612
						c-5.109-7.231-10.392-14.709-11.786-22.833c-1.156-6.732,0.398-13.734,1.9-20.506c2.033-9.169,4.134-18.65-0.617-27.374
						c-3.905-7.169-11.762-12.471-19.36-17.598c-4.269-2.882-8.684-5.861-12.363-9.144c-8.714-7.777-13.683-18.004-13.901-28.137
						l-1.267-0.995c-0.093,10.674,5.012,21.539,14.199,29.738c3.738,3.335,8.186,6.338,12.489,9.241
						c7.833,5.288,15.233,10.281,19.029,17.246c4.615,8.473,2.636,17.402,0.538,26.856c-1.517,6.84-3.084,13.912-1.906,20.784
						c1.422,8.296,6.763,15.852,11.924,23.16c3.083,4.362,6.27,8.873,8.599,13.5c8.769,17.433,5.389,37.627-8.823,52.701
						l1.039,0.555C421.759,376.018,425.197,355.486,416.281,337.762z"/>
				</g>
				<path style="fill:#3C1319;" d="M367.448,405.791c0,0-73.844,5.939-116.033-0.705l2.181-183.29l31.53-11.2l50.126,7.375
					l20.785,13.013l17.398,37.785l-0.429,42.279l4.799,42.15l1.924,16.552C383.547,383.325,378.777,395.205,367.448,405.791z"/>
			</g>
			<g>
				<path style="fill:#E6B98C;" d="M264.423,897.984c0-5.485,0-10.825,0-15.955c0-67.578,0-206.292,0-206.292h-88.919
					c0,0,14.011,116.834,26.917,223.079C222.834,899.772,243.649,899.569,264.423,897.984z"/>
				<path style="fill:#D67647;" d="M264.423,897.984c-20.774,1.585-41.59,1.788-62.002,0.832
					c6.959,57.287,13.596,111.498,17.542,142.648c0,0-72.914,22.526-72.914,35.567c0,13.042,82.991,5.928,82.991,5.928
					s48.46,13.201,34.382-29.64C264.423,1053.319,264.423,964.757,264.423,897.984z"/>
				<g>
					<g>
						<path style="fill:#6E7DB8;" d="M267.88,1073.321c-0.213,2.88-0.579,5.911-1.157,9.095c0,0-16.848,5.764-62.706,5.764
							c-51.24,0-57.808-6.529-57.808-6.529s-0.335-2.475,0.737-6.107C201.308,1085.951,244.819,1079.089,267.88,1073.321z"/>
					</g>
					<path style="fill:#6E7DB8;" d="M226.528,1083.168c0,0-8.155-27.63-19.508-38.005l-11.857,4.622
						c0,0,13.331,18.525,14.513,33.928L226.528,1083.168z"/>
					<path style="fill:#6E7DB8;" d="M198.152,1083.168c0,0-3.552-18.665-14.906-29.04l-10.903,4.544c0,0,7.775,9.639,8.957,25.042
						L198.152,1083.168z"/>
				</g>
			</g>
			<g>
				<path style="fill:#E6B98C;" d="M363.884,678.635l-81.666-2.898c0,0,0,138.714,0,206.292c0,4.594,0,9.361,0,14.246
					c20.839-2.403,41.487-6.266,61.495-11.781C353.953,783.479,363.884,678.635,363.884,678.635z"/>
				<path style="fill:#D67647;" d="M326.678,1041.464c4.295-33.906,10.724-94.711,17.035-156.969
					c-20.008,5.514-40.656,9.378-61.495,11.781c0,66.96,0,157.045,0,157.045c-14.078,42.841,34.382,29.64,34.382,29.64
					s82.991,7.113,82.991-5.928C399.591,1063.989,326.678,1041.464,326.678,1041.464z"/>
				<g>
					<g>
						<path style="fill:#6E7DB8;" d="M278.762,1073.321c0.213,2.88,0.579,5.911,1.158,9.095c0,0,16.848,5.764,62.706,5.764
							c51.24,0,57.809-6.529,57.809-6.529s0.335-2.475-0.737-6.107C345.334,1085.951,301.822,1079.089,278.762,1073.321z"/>
					</g>
					<path style="fill:#6E7DB8;" d="M320.114,1083.168c0,0,8.154-27.63,19.508-38.005l11.856,4.622c0,0-13.33,18.525-14.512,33.928
						L320.114,1083.168z"/>
					<path style="fill:#6E7DB8;" d="M348.49,1083.168c0,0,3.552-18.665,14.906-29.04l10.903,4.544c0,0-7.775,9.639-8.958,25.042
						L348.49,1083.168z"/>
				</g>
			</g>
			<path style="fill:#D67647;" d="M332.104,595.02l13.636-93.125c-4.485-27.624-7.423-50.66,6.361-74.323
				c-5.201-2.648-9.384-6.208-14.351-7.995c-11.271-4.054-19.522-8.419-19.522-8.419l-28.189-8.041l0.606-37.283l-64.866,3.334
				l-1.819,33.949l-19.331,8.13c-6.682,28.302-19.154,55.721-31.592,83.617c1.364,0.446,3.048,0.778,5.241,0.972l10.665,34.988
				c0.622,0.134,1.288,0.226,2.046,0.226c-0.758,0-1.424-0.092-2.046-0.226l11.366,37.286l-24.804,107.627
				c0,0,70.286,33.091,185.416,5.368L332.104,595.02z"/>
			<path style="fill:#D67647;" d="M418.216,674.737c0,0-4.477-91.09-24.755-153.428c-11.99-36.861-23.356-62.136-33.512-79.926
				c-7.579,8.223-18,13.712-29.052,14.549c-9.035,4.018-19.688,4.13-29.418-0.845c0.742,3.706,1.571,7.424,2.479,11.153l0.413-6.11
				c0,0,39.529,83.762,46.668,105.095c7.139,21.333,25.088,112.155,25.088,112.155s-12.625,28.729-7.451,35.325
				s11.791-10.406,11.791-10.406s-2.626,40.385,4.227,39.773c6.853-0.613,8.208-31.803,8.208-31.803s2.877,38.546,11.673,35.115
				c5.102-2.226-0.771-34.641-0.771-34.641s8.165,32.06,13.714,30.025c5.549-2.035-3.596-32.468-3.596-32.468
				s9.402,24.528,14.971,22.04C434.463,727.853,424.093,691.545,418.216,674.737z"/>
			<path style="fill:#D67647;" d="M187.219,455.933c-11.052-0.837-21.473-6.326-29.052-14.549
				c-10.156,17.789-21.522,43.065-33.512,79.926c-3.441,10.579-6.426,21.987-9.013,33.637c16.234,6.532,21.303,35.158,38.543,36.847
				c8.374,3.834,63.289-129.158,59.56-131.662l0.413,6.11c0.908-3.729,1.738-7.447,2.479-11.153
				C206.907,460.063,196.254,459.951,187.219,455.933z"/>
			<path style="fill:#3C1319;" d="M225.339,377.803c0,0,8.236,15.682,31.349,15.864c23.112,0.182,34.204-19.24,34.204-19.24
				l-25.224-19.536l-20.857,1.211L225.339,377.803z"/>
			<g>
				<path style="fill:#D67647;" d="M356.486,283.724c-2.476,44.041-34.354,89.598-87.934,95.99
					c-50.362,6.014-94.702-12.333-114.29-82.361c-8.296-29.683-8.976-70.732-2.238-92.803
					c10.425-11.114,190.743-8.942,199.457,0.482C354.678,219.044,358.037,256,356.486,283.724z"/>
			</g>
			<path style="fill:none;stroke:#3C1319;stroke-width:2;stroke-miterlimit:10;" d="M238.775,317.075
				c7.316,2.26,14.264,3.81,20.978,3.863c7.838,0.062,15.359-1.917,22.779-7.189"/>
			<g>
				<path style="fill:#D67647;" d="M339.844,315.805l0.089-41.075c0,0,46.651-16.743,50.72,22.039
					C394.722,335.551,353.971,339.726,339.844,315.805z"/>
				<g>
					<path style="fill:#3C1319;" d="M353.257,317.343c0.108-0.006,0.216-0.035,0.319-0.088c0.382-0.199,0.53-0.672,0.331-1.053
						c-0.096-0.184-9.418-18.43,3.155-27.829c4.417-3.303,8.879-4.616,13.271-3.911c7.578,1.223,12.473,8.132,12.522,8.201
						c0.248,0.353,0.732,0.44,1.085,0.195c0.355-0.245,0.441-0.732,0.196-1.085c-0.213-0.306-5.305-7.514-13.542-8.85
						c-4.827-0.778-9.694,0.63-14.468,4.2c-13.64,10.198-3.706,29.607-3.604,29.803
						C352.669,317.205,352.961,317.359,353.257,317.343z"/>
				</g>
				<g>
					<path style="fill:#3C1319;" d="M371.63,301.062c0.238-0.013,0.466-0.133,0.609-0.347c0.238-0.359,0.14-0.844-0.219-1.083
						c-0.135-0.09-13.727-8.929-22.905,1.312c-0.288,0.321-0.261,0.816,0.06,1.102c0.321,0.288,0.814,0.261,1.102-0.059
						c8.283-9.241,20.754-1.135,20.879-1.053C371.302,301.029,371.468,301.071,371.63,301.062z"/>
				</g>
				<path style="fill:#D67647;" d="M177.504,324.573l-14.047-40.711c0,0-38.648-11.736-38.517,27.259
					C125.071,350.114,166.035,349.877,177.504,324.573z"/>
				<g>
					<path style="fill:#3C1319;" d="M164.334,327.546c-0.108,0.006-0.219-0.011-0.326-0.053c-0.401-0.157-0.6-0.61-0.443-1.011
						c0.075-0.193,7.378-19.337-6.134-27.328c-4.747-2.808-9.324-3.633-13.615-2.459c-7.402,2.032-11.525,9.428-11.567,9.502
						c-0.208,0.378-0.68,0.516-1.058,0.311c-0.379-0.206-0.518-0.681-0.312-1.058c0.179-0.327,4.465-8.041,12.51-10.257
						c4.714-1.293,9.705-0.417,14.836,2.617c14.659,8.669,6.873,29.036,6.793,29.242
						C164.904,327.346,164.63,327.531,164.334,327.546z"/>
				</g>
				<g>
					<path style="fill:#3C1319;" d="M144.314,313.339c-0.237,0.013-0.478-0.082-0.643-0.28c-0.276-0.331-0.23-0.824,0.101-1.1
						c0.124-0.104,12.685-10.355,22.912-1.163c0.321,0.288,0.348,0.783,0.06,1.103c-0.288,0.32-0.781,0.347-1.102,0.059
						c-9.229-8.295-20.755,1.107-20.87,1.202C144.637,313.271,144.477,313.33,144.314,313.339z"/>
				</g>
			</g>
			<path style="opacity:0.33;fill:#D67647;" d="M233.28,326.662c-1.068,7.484-13.295,11.93-27.311,9.931
				c-14.016-2-24.512-9.687-23.444-17.172c1.067-7.484,13.295-11.93,27.31-9.93C223.851,311.49,234.348,319.178,233.28,326.662z"/>
			<path style="opacity:0.33;fill:#D67647;" d="M284.616,323.889c1.868,7.325,14.502,10.429,28.221,6.932
				c13.719-3.498,23.326-12.271,21.458-19.597c-1.868-7.326-14.503-10.429-28.221-6.931
				C292.356,307.79,282.749,316.564,284.616,323.889z"/>
			<g>
				<path style="fill:#3C1319;" d="M265.049,307.697c-0.295,0.016-0.588-0.138-0.734-0.418c-0.199-0.383-0.05-0.854,0.331-1.053
					c0.061-0.032,6.142-3.258,8.603-8.985c1.933-4.498,0.903-11.042-2.16-13.732c-1.841-1.614-4.216-1.63-6.884-0.045
					c-0.084,0.05-0.219,0.138-0.395,0.253c-9.291,6.088-13.753,3.819-15.862,0.843c-3.867-5.465-1.986-29.493-1.897-34.586
					c0.008-0.431,0.372-0.767,0.795-0.767c0.431,0.007,0.774,0.363,0.767,0.795c-0.24,13.698-1.412,29.386,1.609,33.656
					c2.488,3.514,7.108,3.1,13.733-1.246c0.204-0.133,0.357-0.234,0.455-0.292c3.254-1.928,6.35-1.856,8.711,0.215
					c3.57,3.136,4.77,10.388,2.564,15.521c-2.685,6.249-9.047,9.614-9.318,9.754C265.265,307.662,265.157,307.691,265.049,307.697z"
					/>
			</g>
			<path style="fill:none;stroke:#3C1319;stroke-width:2;stroke-miterlimit:10;" d="M203.637,277.384
				c2.055,6.533,7.063,9.213,12.02,8.791c6.393-0.543,12.7-6.246,12.47-15.49"/>
			<path style="fill:none;stroke:#3C1319;stroke-width:2;stroke-miterlimit:10;" d="M309.518,274.681
				c-1.32,6.721-6.001,9.937-10.974,10.066c-6.414,0.167-13.313-4.803-14.106-14.017"/>
			<g>
				<path style="fill:#BB2E2E;" d="M345.899,516.893l-0.356,1.359l0.347-1.361l-0.347,1.361l-0.272,1.066
					c-0.049-0.987-0.101-1.899-0.152-2.721C345.605,516.806,345.879,516.888,345.899,516.893z"/>
			</g>
			<path style="fill:#DD514D;" d="M153.933,702.25"/>
			<path style="fill:#FFB85A;" d="M213.789,407.395c11.516,13.937,30.816,37.55,46.056,60.331c0,0,28.221-36.195,48.13-59.492
				c0,0,40.304,5.092,66.005,36.147c0,0-9.284,49.474-28.862,61.77c0,0,7.446,55.153-8.208,84.159c0,0,50.437,86.032,46.002,239.747
				c5.261,42.059-224.835,77.871-228.979,0.572c-6.882-128.378,37.923-241.181,37.923-241.181s-16.501-6.16-7.074-80.423
				c0,0-34.064-32.773-29.915-74.79C164.839,424.676,199.214,408.614,213.789,407.395z"/>
			<path style="fill:none;stroke:#3C1319;stroke-width:1.5;stroke-linecap:round;stroke-linejoin:round;stroke-miterlimit:10;" d="
				M213.789,407.395c0,0,38.404,46.275,46.056,60.331"/>
			<path style="fill:none;stroke:#3C1319;stroke-width:1.5;stroke-linecap:round;stroke-linejoin:round;stroke-miterlimit:10;" d="
				M307.975,408.233c0,0-109.037,137.494-125.12,158.69"/>
			<g>
				<g>
					<path style="fill:#6E985F;" d="M126.124,135.178c0,0-0.439-0.078-1.151-0.19c-2.231-0.354-7.176-1.047-10.19-0.818
						c-4.015,0.293-8.032,0.92-12.055,0.708c-4.024-0.213-8.16-1.36-11.076-4.138c-2.571-2.438-3.921-6.32-2.951-9.658
						c0.077-0.271,0.173-0.545,0.286-0.809c0.078-0.178,0.163-0.36,0.252-0.536c1.434-2.745,4.499-4.407,7.591-4.647
						c3.091-0.24,6.168,0.792,8.845,2.356c2.67,1.568,4.989,3.667,7.289,5.736c2.257,2.036,4.514,4.073,6.765,6.102
						c1.336,1.201,3.631,3.325,5.076,4.671C125.591,134.684,126.124,135.178,126.124,135.178z"/>
					<path style="fill:#3C1319;" d="M206.492,197.074c0.353,0.428-0.366,0.905-0.714,0.484c-0.79-0.935-1.58-1.869-2.373-2.792
						c-6.514-7.545-13.512-14.667-20.916-21.326c-7.409-6.666-15.231-12.865-23.403-18.566c-8.172-5.7-16.695-10.903-25.503-15.557
						c-2.844-1.503-5.711-2.948-8.609-4.33c-6.082-2.926-12.296-5.584-18.609-7.989c-5.811-2.202-11.708-4.179-17.664-5.918
						c0.077-0.271,0.173-0.545,0.286-0.809c7.127,2.082,14.158,4.5,21.059,7.234c4.995,1.984,9.922,4.128,14.759,6.448
						c4.222,1.997,8.387,4.126,12.475,6.371c8.73,4.801,17.18,10.126,25.267,15.946c8.147,5.863,15.937,12.23,23.29,19.06
						C193.17,182.133,200.071,189.404,206.492,197.074z"/>
					<g>
						<path style="fill:#6E985F;" d="M138.867,141.726c0,0-0.278-0.348-0.738-0.903c-1.432-1.739-4.684-5.528-7.106-7.349
							c-3.206-2.434-6.627-4.617-9.505-7.436c-2.879-2.819-5.224-6.414-5.585-10.428c-0.31-3.52,1.244-7.333,4.177-9.188
							c0.238-0.161,0.491-0.303,0.75-0.427c0.176-0.082,0.36-0.163,0.543-0.235c2.882-1.113,6.289-0.333,8.767,1.531
							c2.469,1.862,4.105,4.671,5.072,7.613c0.966,2.942,1.329,6.05,1.687,9.124c0.348,3.02,0.695,6.039,1.044,9.051
							c0.2,1.783,0.521,4.878,0.715,6.842C138.794,140.995,138.867,141.726,138.867,141.726z"/>
						<path style="fill:#3C1319;" d="M138.867,141.726c0,0-0.278-0.348-0.738-0.903c-2.63-6.215-5.536-12.318-8.684-18.295
							c-2.896-5.492-6.016-10.865-9.336-16.106c0.238-0.161,0.491-0.303,0.75-0.427c3.972,6.273,7.65,12.734,11.012,19.347
							c2.43,4.78,4.709,9.646,6.815,14.577C138.794,140.995,138.867,141.726,138.867,141.726z"/>
					</g>
					<g>
						<path style="fill:#6E985F;" d="M159.104,154.168c0,0-0.229-0.382-0.611-0.993c-1.188-1.914-3.906-6.102-6.065-8.23
							c-2.853-2.839-5.953-5.458-8.431-8.635c-2.478-3.177-4.324-7.053-4.147-11.078c0.161-3.529,2.209-7.102,5.363-8.55
							c0.257-0.128,0.527-0.235,0.8-0.323c0.185-0.058,0.379-0.114,0.57-0.161c3.005-0.72,6.278,0.507,8.485,2.684
							c2.2,2.174,3.447,5.176,4.013,8.22c0.566,3.044,0.512,6.173,0.457,9.267c-0.058,3.039-0.115,6.078-0.171,9.109
							c-0.039,1.794-0.133,4.903-0.202,6.877C159.13,153.434,159.104,154.168,159.104,154.168z"/>
						<path style="fill:#3C1319;" d="M159.104,154.168c0,0-0.229-0.382-0.611-0.993c-1.779-6.511-3.847-12.945-6.171-19.288
							c-2.139-5.829-4.516-11.569-7.108-17.206c0.257-0.128,0.527-0.235,0.8-0.323c3.101,6.746,5.886,13.639,8.339,20.641
							c1.772,5.061,3.383,10.188,4.814,15.355C159.13,153.434,159.104,154.168,159.104,154.168z"/>
					</g>
					<g>
						<path style="fill:#6E985F;" d="M181.992,172.344c0,0-0.229-0.382-0.611-0.993c-1.188-1.914-3.906-6.102-6.065-8.23
							c-2.853-2.839-5.953-5.458-8.431-8.635c-2.478-3.177-4.324-7.053-4.147-11.078c0.161-3.53,2.209-7.102,5.363-8.551
							c0.257-0.128,0.527-0.235,0.8-0.323c0.185-0.058,0.379-0.114,0.57-0.161c3.005-0.72,6.277,0.507,8.486,2.684
							c2.199,2.174,3.447,5.176,4.013,8.22c0.566,3.044,0.511,6.173,0.457,9.267c-0.058,3.039-0.115,6.078-0.171,9.109
							c-0.039,1.794-0.133,4.903-0.202,6.877C182.017,171.61,181.992,172.344,181.992,172.344z"/>
						<path style="fill:#3C1319;" d="M181.992,172.344c0,0-0.229-0.382-0.611-0.993c-1.779-6.51-3.847-12.945-6.171-19.288
							c-2.139-5.829-4.516-11.569-7.108-17.206c0.257-0.128,0.527-0.235,0.8-0.323c3.101,6.746,5.886,13.639,8.339,20.641
							c1.771,5.062,3.383,10.188,4.814,15.355C182.017,171.61,181.992,172.344,181.992,172.344z"/>
					</g>
					<g>
						<path style="fill:#6E985F;" d="M135.206,139.599c0,0-0.402,0.191-1.047,0.514c-2.019,1-6.447,3.306-8.771,5.252
							c-3.099,2.569-6.001,5.405-9.4,7.568c-3.399,2.164-7.433,3.631-11.423,3.071c-3.498-0.497-6.859-2.877-8-6.154
							c-0.103-0.268-0.184-0.547-0.245-0.827c-0.04-0.19-0.077-0.388-0.106-0.583c-0.43-3.059,1.104-6.2,3.482-8.191
							c2.374-1.982,5.482-2.937,8.566-3.21c3.084-0.273,6.194,0.08,9.268,0.429c3.02,0.348,6.039,0.695,9.051,1.039
							c1.782,0.21,4.868,0.601,6.826,0.858C134.478,139.503,135.206,139.599,135.206,139.599z"/>
						<path style="fill:#3C1319;" d="M135.206,139.599c0,0-0.402,0.191-1.047,0.514c-6.65,1.15-13.253,2.594-19.789,4.302
							c-6.006,1.573-11.947,3.392-17.806,5.434c-0.103-0.268-0.184-0.547-0.245-0.827c7.011-2.443,14.139-4.558,21.343-6.331
							c5.207-1.281,10.464-2.395,15.744-3.327C134.478,139.503,135.206,139.599,135.206,139.599z"/>
					</g>
					<g>
						<path style="fill:#6E985F;" d="M157.854,153.356c0,0-0.418,0.153-1.09,0.415c-2.103,0.809-6.725,2.696-9.219,4.418
							c-3.323,2.272-6.475,4.827-10.06,6.667c-3.585,1.84-7.737,2.928-11.658,2.001c-3.437-0.818-6.564-3.499-7.397-6.868
							c-0.078-0.277-0.132-0.562-0.168-0.847c-0.022-0.193-0.041-0.393-0.052-0.59c-0.145-3.086,1.673-6.072,4.224-7.834
							c2.547-1.754,5.73-2.418,8.826-2.405c3.096,0.013,6.16,0.652,9.189,1.284c2.975,0.625,5.949,1.25,8.916,1.871
							c1.755,0.374,4.792,1.048,6.717,1.485C157.137,153.194,157.854,153.356,157.854,153.356z"/>
						<path style="fill:#3C1319;" d="M157.854,153.356c0,0-0.418,0.153-1.09,0.415c-6.728,0.53-13.436,1.357-20.102,2.454
							c-6.126,1.011-12.21,2.273-18.232,3.764c-0.078-0.277-0.132-0.562-0.168-0.847c7.207-1.785,14.5-3.231,21.837-4.33
							c5.304-0.794,10.641-1.418,15.984-1.857C157.137,153.194,157.854,153.356,157.854,153.356z"/>
					</g>
					<g>
						<path style="fill:#6E985F;" d="M179.779,170.276c0,0-0.438,0.081-1.144,0.227c-2.209,0.446-7.081,1.534-9.828,2.815
							c-3.656,1.685-7.191,3.677-11.033,4.892c-3.842,1.215-8.117,1.594-11.829,0.025c-3.252-1.382-5.887-4.547-6.145-8.007
							c-0.03-0.286-0.037-0.576-0.024-0.863c0.01-0.194,0.025-0.395,0.048-0.59c0.373-3.067,2.664-5.707,5.474-7.018
							c2.805-1.304,6.053-1.426,9.104-0.896c3.051,0.53,5.964,1.673,8.845,2.802c2.828,1.113,5.657,2.227,8.478,3.335
							c1.668,0.662,4.549,1.834,6.375,2.587C179.1,169.995,179.779,170.276,179.779,170.276z"/>
						<path style="fill:#3C1319;" d="M179.779,170.276c0,0-0.438,0.081-1.144,0.227c-6.722-0.602-13.474-0.907-20.229-0.94
							c-6.209-0.027-12.418,0.2-18.605,0.664c-0.03-0.286-0.037-0.576-0.024-0.863c7.403-0.555,14.836-0.762,22.253-0.62
							c5.362,0.104,10.728,0.38,16.07,0.841C179.1,169.995,179.779,170.276,179.779,170.276z"/>
					</g>
				</g>
				<g>
					<path style="fill:#538243;" d="M258.803,146.121c0.089-0.619,0.142-1.239,0.159-1.859c0.141-3.284-0.561-6.562-2.193-9.395
						c-0.827,4.49-2.876,8.743-5.865,12.19c-1.268,1.461-3.44,2.85-4.978,1.671c-0.889-0.684-1.084-1.984-0.776-3.062
						c0.306-1.07,1.014-1.98,1.681-2.874c5.188-6.919,9.098-15.112,9.394-23.75c0.136-3.784-0.546-7.626-1.976-11.13
						c-0.184-0.473-0.39-0.934-0.615-1.391c-1.874-3.918-4.725-7.322-8.449-9.596c2.181,6.007,1.983,12.842-0.536,18.72
						c-0.694,1.62-1.952,3.391-3.701,3.262c-1.339-0.105-2.34-1.37-2.613-2.681c-0.263-1.317,0.035-2.669,0.303-3.975
						c1.589-7.658,2.301-15.735-0.016-23.198c-1.475-4.756-4.284-9.361-8.108-12.466c-0.27-0.215-0.542-0.422-0.813-0.628
						c-1.978-1.439-4.204-2.48-6.64-2.961c1.385,3.746,0.923,8.123-1.222,11.491c-0.783,1.235-2.112,2.445-3.523,2.059
						c-1.758-0.476-2.008-2.849-1.746-4.654c0.621-4.363,2.059-9.011,0.209-13.022c-2.659-5.77-10.741-7.053-14.242-12.192
						c-0.224-0.321-0.433-0.665-0.612-1.019c-0.114,0.124-0.219,0.251-0.333,0.375c-3.13,3.573-6.279,7.25-8.01,11.667
						c-1.796,4.563-1.797,10.156,1.245,14.008c0.933,1.175,2.111,2.143,2.933,3.398c0.814,1.253,1.219,2.96,0.444,4.233
						c-0.665,1.093-2.044,1.594-3.307,1.473c-1.273-0.115-2.427-0.759-3.434-1.547c-3.461-2.694-5.167-7.293-4.701-11.65
						c-1.551,1.922-3.108,3.868-4.483,5.917c-0.188,0.268-0.366,0.538-0.539,0.819c-0.973,1.511-1.845,3.085-2.535,4.76
						c-1.75,4.249-2.208,9.27-0.138,13.375c3.082,6.125,10.747,8.693,14.338,14.534c1.183,1.919,1.75,4.673,0.131,6.233
						c-1.645,1.589-4.376,0.887-6.424-0.145c-6.45-3.274-11.229-8.755-13.861-15.495c-1.643,3.282-2.609,6.885-2.895,10.548
						c-0.036,0.38-0.054,0.764-0.065,1.151c-0.112,2.686,0.161,5.39,0.812,7.994c1.644,6.537,5.689,12.442,11.187,16.346
						c5.783,4.096,12.844,5.891,19.308,8.798c1.789,0.81,3.814,2.171,3.639,4.125c-0.171,2.01-2.532,2.978-4.527,3.272
						c-5.029,0.752-10.477,0.165-15.058-2.052c2.002,2.63,4.432,4.902,7.149,6.769c0.707,0.483,1.429,0.942,2.178,1.364
						c4.671,2.702,10.03,4.225,15.428,4.275c3.899,0.039,8.369-1.067,10.077-4.568c0.891-1.822,0.847-3.978,1.626-5.857
						c0.472-1.117,1.498-2.134,2.602-2.516c0.29-0.105,0.577-0.166,0.868-0.172c0.463-0.006,0.912,0.111,1.317,0.398
						c7.22,5.004,17.889,6.464,24.89,1.167C255.7,155.701,258.162,151.012,258.803,146.121z M198.297,123.245
						c0.733-0.415,1.691-0.274,2.424,0.143c0.741,0.419,1.302,1.081,1.837,1.737c1.351,1.655,2.621,3.38,3.885,5.094
						c0.201,0.27,0.406,0.558,0.401,0.892c0.003,0.372-0.275,0.707-0.608,0.873c-0.333,0.167-0.714,0.203-1.087,0.214
						c-4.001,0.106-9.168-2.29-8.066-7.107C197.247,124.356,197.631,123.614,198.297,123.245z M234.705,124.699
						c0.366-1.162,1.061-2.266,2.102-2.891c0.694-0.407,1.624-0.572,2.272-0.105c0.723,0.523,0.802,1.576,0.653,2.46
						c-0.194,1.162-0.649,2.283-1.317,3.249c-0.679,0.972-2.526,2.645-3.736,1.488C233.743,128.005,234.389,125.703,234.705,124.699
						z M215.071,90.523c0.97-0.734,2.588-0.692,3.212,0.349c0.355,0.581,0.324,1.324,0.22,2.003
						c-0.243,1.557-1.355,5.963-3.505,5.81c-2.303-0.157-1.848-3.604-1.564-5.005C213.664,92.482,214.104,91.248,215.071,90.523z"/>
					<path style="fill:#3C1319;" d="M258.803,146.121c-3.424,4.872-8.711,8.353-14.641,9.197
						c-7.123,1.012-14.153-1.427-20.629-4.147c0.671,1.976,1.35,3.953,2.05,5.919c-0.291,0.005-0.578,0.066-0.868,0.172
						c-0.463-1.315-0.923-2.639-1.375-3.96c-1.793,2.573-3.818,4.996-6.169,7.071c-2.081,1.838-4.414,3.392-6.982,4.461
						c-2.794,1.172-5.824,1.685-8.851,1.702c-2.15,0.019-4.271-0.208-6.357-0.607c-0.75-0.422-1.471-0.881-2.178-1.364
						c5.81,1.424,12.125,1.74,17.675-0.804c5.066-2.317,9.037-6.477,12.168-10.991c0.114-0.16,0.289-0.205,0.446-0.182
						c-1.009-2.969-1.999-5.942-2.95-8.923c-0.496-1.568-0.982-3.143-1.467-4.717c-4.894,0.027-9.797-0.499-14.585-1.539
						c-8.494-1.852-16.647-5.326-23.891-10.137c-3.545-2.336-6.868-5.003-9.907-7.958c0.01-0.386,0.029-0.771,0.065-1.151
						c0.479,0.487,0.965,0.949,1.46,1.412c6.301,5.859,13.734,10.53,21.731,13.701c7.9,3.127,16.357,4.807,24.858,4.796
						c-1.678-5.505-3.247-11.045-4.702-16.61c-0.907-3.431-1.762-6.884-2.59-10.34c-0.074,0.008-0.155,0.005-0.237-0.026
						c-3.737-1.634-7.31-3.652-10.632-6.011c-5.886-4.186-11.025-9.398-15.146-15.323c-1.21-1.745-2.333-3.549-3.359-5.409
						c0.173-0.281,0.352-0.551,0.539-0.819c3.003,5.525,6.852,10.582,11.371,14.945c5.017,4.846,10.861,8.813,17.234,11.651
						c-0.889-3.743-1.72-7.498-2.502-11.267c-1.583-7.571-2.964-15.189-4.155-22.838c-1.03-6.639-1.906-13.311-2.635-19.99
						c0.114-0.124,0.219-0.251,0.333-0.375c0.179,0.354,0.388,0.698,0.612,1.019c0.82,7.444,1.837,14.859,3.033,22.247
						c1.238,7.608,2.669,15.175,4.288,22.71c1.252,5.819,2.63,11.608,4.106,17.369c2.222-3.213,4.227-6.563,6.007-10.027
						c3.243-6.295,5.741-12.965,7.452-19.84c1.082-4.324,1.842-8.732,2.277-13.18c0.272,0.207,0.544,0.413,0.813,0.628
						c-0.118,1.182-0.261,2.357-0.43,3.526c-1.012,7.076-2.853,14.034-5.466,20.692c-2.598,6.635-5.958,12.963-10.01,18.82
						c-0.114,0.16-0.28,0.207-0.429,0.187c0.37,1.427,0.747,2.864,1.125,4.293c1.667,6.172,3.471,12.307,5.4,18.412
						c0.045-0.033,0.09-0.067,0.149-0.088c4.075-1.191,7.96-2.938,11.566-5.175c6.577-4.086,12.124-9.781,15.953-16.52
						c2.51-4.422,4.289-9.234,5.261-14.212c0.225,0.457,0.431,0.918,0.615,1.391c-0.2,0.907-0.434,1.805-0.685,2.699
						c-2.298,8.016-6.668,15.375-12.673,21.158c-5.557,5.348-12.398,9.338-19.796,11.509c-0.049,0.014-0.094,0.012-0.138,0.009
						c0.311,0.995,0.624,1.982,0.945,2.97c0.431,1.334,0.874,2.653,1.318,3.972c0.109-0.035,0.219-0.042,0.342,0.008
						c3.642,1.546,7.372,2.962,11.251,3.774c3.415,0.718,6.968,0.938,10.407,0.242c2.801-0.573,5.44-1.776,7.766-3.442
						c2.418-1.741,4.471-3.993,5.979-6.55C258.945,144.882,258.892,145.501,258.803,146.121z"/>
				</g>
				<g>
					<path style="fill:#6E985F;" d="M260.497,186.762c0.264,0.044,0.526,0.041,0.796-0.001c0.046-0.003,0.081-0.012,0.116-0.021
						c2.618-0.596,4.142-6.518,4.764-8.627c1.058-3.572,1.604-7.273,2.177-10.943c0.349-2.226,0.724-4.459,1.119-6.688
						c0.071-0.375,0.14-0.758,0.212-1.132c1.237-6.737,2.735-13.448,4.655-20.007c0.102-0.364,0.213-0.73,0.324-1.096
						c2.072-6.879,4.622-13.573,7.825-19.922c0.199-0.389,0.4-0.769,0.601-1.149c1.951-3.738,4.134-7.34,6.598-10.799
						c1.739-2.428,3.601-4.776,5.488-7.102c0.326-0.403,0.652-0.806,0.981-1.201c4.094-5.044,8.197-10.053,11.222-15.784
						c1.059-2.017,1.969-4.174,2.646-6.4c0.118-0.34,0.216-0.684,0.311-1.036c1.547-5.544,1.733-11.427-0.203-16.572
						c-0.102-0.283-0.223-0.57-0.342-0.848c-0.528-1.239-1.194-2.434-2-3.554c-2.02-2.838-4.822-5.004-7.988-6.448
						c-0.287-0.132-0.574-0.263-0.876-0.381c-3.143-1.282-6.605-1.881-9.991-1.722c-2.758,0.126-5.464,0.708-8.056,1.653
						c-0.294,0.095-0.574,0.205-0.861,0.327c-3.832,1.511-7.372,3.816-10.436,6.589c-1.448,1.313-2.794,2.73-4.044,4.226
						c-0.265,0.313-0.522,0.623-0.774,0.95c-3.013,3.761-5.483,7.99-7.584,12.338c-1.294,2.696-2.463,5.444-3.497,8.242
						c-0.193,0.519-0.377,1.035-0.562,1.551c-2.794,7.919-4.598,16.189-5.573,24.553c-0.088,0.669-0.166,1.345-0.226,2.016
						c0.002,0.009,0.002,0.009,0.002,0.009c-0.394,3.746-0.617,7.503-0.69,11.259c-0.096,4.895,0.041,9.786,0.381,14.662
						c0.053,0.782,0.107,1.564,0.18,2.351c0.726,8.962,2.097,17.878,3.831,26.718c0.113,0.579,0.224,1.15,0.346,1.727
						c0.221,1.104,0.449,2.197,0.679,3.298C252.737,171.058,255.675,185.973,260.497,186.762z"/>
					<path style="fill:#3C1319;" d="M258.215,170.693c0.5,5.387,1.257,10.753,2.282,16.069c0.264,0.044,0.526,0.041,0.796-0.001
						c0.046-0.003,0.081-0.012,0.116-0.021c-1.369-7.071-2.266-14.238-2.69-21.423l0.026-0.007
						c3.677-1.386,7.259-2.991,10.725-4.828c0.071-0.375,0.14-0.758,0.212-1.132c-3.558,1.917-7.234,3.593-11.02,5.026
						c-0.102-1.978-0.186-3.96-0.224-5.945c-0.078-4.916,0.068-9.833,0.425-14.731c0.086,0.043,0.185,0.064,0.302,0.043
						c5.177-1.017,10.254-2.495,15.172-4.4c0.102-0.364,0.213-0.73,0.324-1.096c-5.087,2.015-10.352,3.56-15.724,4.619
						c-0.009,0.002-0.009,0.002-0.009,0.002c0.484-6.214,1.313-12.395,2.508-18.503c0.053-0.266,0.11-0.515,0.162-0.782
						c0.04,0.009,0.077,0.008,0.114,0.008c2.237-0.403,4.462-0.85,6.674-1.35c4.759-1.077,9.467-2.385,14.099-3.916
						c0.199-0.389,0.4-0.769,0.601-1.149c-6.951,2.339-14.073,4.162-21.29,5.475c1.255-6.058,2.855-12.046,4.796-17.917
						c0.091,0.061,0.201,0.088,0.328,0.074c2.835-0.371,5.668-0.789,8.484-1.268c6.647-1.127,13.246-2.551,19.769-4.264
						c0.326-0.403,0.652-0.806,0.981-1.201c-9.619,2.593-19.408,4.536-29.279,5.836c1.162-3.458,2.439-6.871,3.831-10.239
						c1.446-3.485,3.026-6.921,4.705-10.298c0.086,0.043,0.177,0.067,0.286,0.057c2.848-0.393,5.691-0.842,8.519-1.351
						c8.712-1.542,17.334-3.613,25.806-6.189c0.118-0.34,0.216-0.684,0.311-1.036c-1.717,0.53-3.44,1.034-5.179,1.514
						c-9.621,2.696-19.413,4.734-29.296,6.131c2.853-5.639,6.036-11.121,9.519-16.391c0.458-0.69,0.928-1.365,1.395-2.058
						c0.098,0.087,0.221,0.13,0.379,0.089c7.66-1.952,15.322-3.896,22.979-5.857c-0.102-0.283-0.223-0.57-0.342-0.848
						c-7.467,1.902-14.925,3.802-22.392,5.705c3.811-5.485,7.944-10.737,12.404-15.707c-0.287-0.132-0.574-0.263-0.876-0.381
						c-5.645,6.318-10.779,13.093-15.363,20.213c-0.895-6.764-1.789-13.519-2.684-20.282c-0.294,0.095-0.574,0.205-0.861,0.327
						c0.9,6.781,1.791,13.565,2.691,20.346c0.026,0.246,0.201,0.341,0.386,0.331c-0.16,0.248-0.323,0.487-0.475,0.732
						c-3.866,6.137-7.316,12.54-10.334,19.131c-0.716-2.287-1.39-4.593-2.011-6.914c-2.041-7.496-3.619-15.122-4.737-22.812
						c-0.265,0.313-0.522,0.623-0.774,0.95c0.171,1.126,0.35,2.25,0.539,3.372c1.47,8.797,3.557,17.48,6.21,25.997
						c0.059,0.191,0.205,0.284,0.361,0.309c-1.203,2.654-2.339,5.347-3.393,8.065c-1.66,4.281-3.135,8.626-4.416,13.032
						c-1.131-2.478-2.2-4.973-3.204-7.503c-2.93-7.387-5.331-14.968-7.178-22.693c-0.193,0.519-0.377,1.035-0.562,1.551
						c0.119,0.494,0.249,0.994,0.379,1.494c2.46,9.542,5.78,18.86,9.879,27.826c0.09,0.201,0.255,0.262,0.415,0.229
						c-1.666,5.809-3.008,11.711-4.009,17.666c-0.106,0.636-0.195,1.268-0.295,1.894c-1.123-1.797-2.203-3.614-3.234-5.454
						c-3.418-6.127-6.33-12.507-8.709-19.101c-0.088,0.669-0.166,1.345-0.226,2.016c0.002,0.009,0.002,0.009,0.002,0.009
						c0.21,0.554,0.417,1.1,0.633,1.643c2.996,7.604,6.707,14.929,11.062,21.852c0.078,0.12,0.18,0.187,0.288,0.206
						c-0.946,6.38-1.52,12.824-1.718,19.272c-1.164-1.524-2.288-3.077-3.367-4.67c-2.686-3.957-5.1-8.097-7.207-12.383
						c0.053,0.782,0.107,1.564,0.18,2.351c2.892,5.58,6.296,10.896,10.154,15.869c0.06,0.087,0.135,0.124,0.214,0.141
						c-0.073,3.578-0.053,7.151,0.107,10.724c0.098,2.288,0.262,4.577,0.454,6.869c-2.537-2.123-4.913-4.418-7.099-6.885
						c0.113,0.579,0.224,1.15,0.346,1.727c2.016,2.174,4.166,4.21,6.454,6.097C257.953,170.696,258.09,170.716,258.215,170.693z"/>
				</g>
				<g>
					<path style="fill:#538243;" d="M328.863,97.087c0,0,0.429-0.235,1.129-0.602c2.195-1.152,7.089-3.612,10.302-4.434
						c4.275-1.108,8.67-1.868,12.776-3.504s8.001-4.283,10.054-8.196c1.814-3.438,1.852-7.947-0.33-11.074
						c-0.175-0.255-0.371-0.505-0.581-0.74c-0.143-0.158-0.296-0.317-0.45-0.468c-2.455-2.348-6.226-2.997-9.522-2.159
						c-3.297,0.838-6.132,2.992-8.363,5.558c-2.223,2.569-3.895,5.565-5.557,8.524c-1.629,2.91-3.258,5.819-4.884,8.72
						c-0.966,1.717-2.604,4.733-3.632,6.64C329.243,96.386,328.863,97.087,328.863,97.087z"/>
					<path style="fill:#3C1319;" d="M267.115,189.672c-0.216,0.569,0.699,0.812,0.913,0.252c0.492-1.249,0.985-2.498,1.484-3.736
						c4.115-10.131,8.883-19.993,14.235-29.517c5.355-9.533,11.303-18.726,17.791-27.523c6.488-8.798,13.515-17.201,21.031-25.135
						c2.427-2.562,4.898-5.072,7.424-7.527c5.292-5.179,10.814-10.127,16.528-14.846c5.264-4.332,10.697-8.46,16.274-12.362
						c-0.175-0.255-0.371-0.505-0.581-0.74c-6.673,4.67-13.13,9.655-19.34,14.924c-4.493,3.818-8.859,7.779-13.07,11.891
						c-3.685,3.56-7.265,7.237-10.723,11.007c-7.384,8.059-14.292,16.564-20.648,25.457c-6.404,8.958-12.26,18.314-17.499,27.997
						C275.704,169.46,271.09,179.443,267.115,189.672z"/>
					<g>
						<path style="fill:#538243;" d="M317.924,108.373c0,0,0.166-0.46,0.449-1.198c0.877-2.311,2.923-7.392,4.8-10.136
							c2.476-3.657,5.262-7.129,7.263-11.07s3.173-8.503,2.136-12.8c-0.915-3.767-3.872-7.183-7.572-8.079
							c-0.304-0.084-0.617-0.142-0.93-0.18c-0.212-0.023-0.431-0.043-0.647-0.054c-3.386-0.143-6.653,1.866-8.573,4.674
							c-1.911,2.804-2.623,6.298-2.593,9.695c0.03,3.397,0.747,6.755,1.456,10.074c0.701,3.26,1.402,6.52,2.098,9.772
							c0.419,1.923,1.174,5.252,1.663,7.362C317.742,107.588,317.924,108.373,317.924,108.373z"/>
						<path style="fill:#3C1319;" d="M317.924,108.373c0,0,0.166-0.46,0.449-1.198c0.547-7.384,1.421-14.747,2.59-22.065
							c1.078-6.726,2.431-13.406,4.037-20.02c-0.304-0.084-0.617-0.142-0.93-0.18c-1.921,7.915-3.471,15.923-4.64,23.978
							c-0.844,5.822-1.501,11.68-1.956,17.545C317.742,107.588,317.924,108.373,317.924,108.373z"/>
					</g>
					<g>
						<path style="fill:#538243;" d="M301.27,128.419c0,0,0.103-0.478,0.286-1.247c0.561-2.407,1.913-7.715,3.408-10.685
							c1.967-3.954,4.267-7.766,5.724-11.939c1.458-4.173,2.013-8.849,0.413-12.97c-1.409-3.611-4.794-6.604-8.58-6.999
							c-0.313-0.043-0.63-0.059-0.945-0.054c-0.213,0.005-0.433,0.015-0.649,0.033c-3.375,0.309-6.345,2.735-7.874,5.773
							c-1.521,3.033-1.761,6.591-1.279,9.954c0.482,3.362,1.639,6.595,2.784,9.791c1.129,3.138,2.257,6.276,3.381,9.406
							c0.672,1.85,1.863,5.048,2.629,7.075C300.985,127.665,301.27,128.419,301.27,128.419z"/>
						<path style="fill:#3C1319;" d="M301.27,128.419c0,0,0.103-0.478,0.286-1.247c-0.441-7.391-0.555-14.805-0.371-22.214
							c0.173-6.81,0.624-13.611,1.336-20.38c-0.313-0.043-0.63-0.059-0.945-0.054c-0.85,8.101-1.32,16.244-1.406,24.382
							c-0.061,5.883,0.067,11.776,0.398,17.649C300.985,127.665,301.27,128.419,301.27,128.419z"/>
					</g>
					<g>
						<path style="fill:#538243;" d="M283.878,155.357c0,0,0.103-0.478,0.286-1.247c0.561-2.407,1.913-7.715,3.408-10.685
							c1.967-3.954,4.267-7.766,5.724-11.939c1.458-4.173,2.013-8.849,0.413-12.97c-1.409-3.611-4.794-6.604-8.58-6.999
							c-0.312-0.043-0.63-0.059-0.945-0.054c-0.213,0.005-0.433,0.015-0.649,0.033c-3.375,0.309-6.345,2.735-7.874,5.773
							c-1.521,3.033-1.762,6.591-1.279,9.954c0.482,3.363,1.64,6.595,2.784,9.791c1.129,3.138,2.257,6.276,3.381,9.406
							c0.672,1.85,1.863,5.049,2.629,7.075C283.593,154.602,283.878,155.357,283.878,155.357z"/>
						<path style="fill:#3C1319;" d="M283.878,155.357c0,0,0.103-0.478,0.286-1.247c-0.44-7.391-0.555-14.805-0.37-22.214
							c0.173-6.809,0.624-13.611,1.336-20.38c-0.312-0.043-0.63-0.059-0.945-0.054c-0.85,8.1-1.32,16.244-1.406,24.382
							c-0.061,5.883,0.067,11.776,0.397,17.649C283.593,154.602,283.878,155.357,283.878,155.357z"/>
					</g>
					<g>
						<path style="fill:#538243;" d="M320.98,104.876c0,0,0.486,0.057,1.269,0.166c2.45,0.329,7.862,1.168,10.962,2.373
							c4.124,1.58,8.137,3.506,12.43,4.559c4.293,1.053,9.001,1.159,12.951-0.826c3.46-1.747,6.116-5.402,6.149-9.209
							c0.012-0.315-0.001-0.633-0.036-0.946c-0.025-0.211-0.056-0.43-0.095-0.643c-0.629-3.33-3.328-6.055-6.498-7.287
							c-3.164-1.225-6.729-1.125-10.03-0.324c-3.301,0.801-6.408,2.261-9.48,3.705c-3.016,1.423-6.032,2.846-9.04,4.263
							c-1.778,0.845-4.848,2.336-6.792,3.292C321.703,104.52,320.98,104.876,320.98,104.876z"/>
						<path style="fill:#3C1319;" d="M320.98,104.876c0,0,0.486,0.057,1.269,0.166c7.315-1.144,14.685-1.965,22.077-2.489
							c6.795-0.478,13.608-0.677,20.414-0.615c0.012-0.315-0.001-0.633-0.036-0.946c-8.145-0.074-16.296,0.236-24.405,0.926
							c-5.862,0.501-11.716,1.191-17.531,2.08C321.703,104.52,320.98,104.876,320.98,104.876z"/>
					</g>
					<g>
						<path style="fill:#538243;" d="M302.284,127.136c0,0,0.489,0.012,1.278,0.048c2.47,0.101,7.937,0.436,11.134,1.349
							c4.252,1.192,8.427,2.739,12.799,3.39c4.372,0.651,9.07,0.322,12.819-2.02c3.284-2.06,5.59-5.944,5.271-9.738
							c-0.017-0.315-0.06-0.63-0.123-0.939c-0.045-0.208-0.096-0.423-0.154-0.631c-0.935-3.258-3.874-5.721-7.144-6.655
							c-3.264-0.927-6.805-0.498-10.017,0.605c-3.213,1.103-6.172,2.844-9.097,4.566c-2.871,1.696-5.743,3.391-8.607,5.08
							c-1.692,1.006-4.611,2.775-6.458,3.906C302.971,126.715,302.284,127.136,302.284,127.136z"/>
						<path style="fill:#3C1319;" d="M302.284,127.136c0,0,0.489,0.012,1.278,0.048c7.178-1.815,14.44-3.315,21.752-4.519
							c6.722-1.104,13.487-1.933,20.27-2.5c-0.017-0.315-0.06-0.63-0.123-0.939c-8.117,0.68-16.204,1.742-24.215,3.179
							c-5.79,1.041-11.556,2.269-17.263,3.692C302.971,126.715,302.284,127.136,302.284,127.136z"/>
					</g>
					<g>
						<path style="fill:#538243;" d="M285.449,152.429c0,0,0.484-0.07,1.268-0.166c2.452-0.313,7.898-0.896,11.203-0.531
							c4.391,0.465,8.766,1.292,13.185,1.203c4.419-0.089,8.996-1.198,12.301-4.134c2.894-2.579,4.518-6.795,3.569-10.482
							c-0.069-0.308-0.164-0.611-0.279-0.905c-0.079-0.198-0.165-0.401-0.257-0.597c-1.466-3.056-4.775-4.993-8.156-5.367
							c-3.373-0.368-6.792,0.647-9.775,2.271c-2.983,1.624-5.61,3.836-8.206,6.022c-2.547,2.152-5.095,4.303-7.637,6.447
							c-1.5,1.274-4.082,3.506-5.715,4.93C286.057,151.899,285.449,152.429,285.449,152.429z"/>
						<path style="fill:#3C1319;" d="M285.449,152.429c0,0,0.484-0.07,1.268-0.166c6.774-2.989,13.683-5.682,20.691-8.091
							c6.443-2.212,12.975-4.159,19.567-5.853c-0.069-0.308-0.164-0.611-0.279-0.905c-7.889,2.027-15.685,4.425-23.343,7.182
							c-5.535,1.993-11.014,4.168-16.404,6.525C286.057,151.899,285.449,152.429,285.449,152.429z"/>
					</g>
				</g>
				<g>
					<path style="fill:#3C1319;" d="M295.424,192.747c4.199-8.973,10.473-16.815,17.785-23.452
						c7.949-7.216,17.103-12.964,26.612-17.889c5.548-2.874,11.231-5.476,16.956-7.975c0.466-0.204,0.062-0.885-0.4-0.683
						c-10.301,4.496-20.5,9.344-29.947,15.47c-8.542,5.539-16.466,12.155-22.864,20.11c-3.474,4.319-6.481,9.009-8.832,14.033
						C294.519,192.818,295.207,193.21,295.424,192.747z"/>
					<g>
						<path style="fill:#F57445;" d="M358.68,141.855c6.354-6.846,9.471-15.993,12.615-24.788c0.559-1.565,1.144-3.162,2.202-4.444
							c1.058-1.282,2.697-2.209,4.342-1.972c1.811,0.261,3.192,1.875,3.728,3.624s0.391,3.626,0.222,5.447
							c0.779-0.64,2.133-0.186,2.771,0.594c0.638,0.78,0.716,1.906,0.438,2.874c-0.279,0.969-0.868,1.815-1.469,2.624
							c0.679-0.584,1.777-0.212,2.301,0.514c0.524,0.727,0.507,1.735,0.183,2.57c-0.324,0.835-0.912,1.536-1.49,2.22
							c1.673-0.049,3.349,0.169,4.874,0.859c0.797,0.361,1.591,0.859,1.976,1.645c0.4,0.817,0.273,1.827-0.182,2.615
							c-0.456,0.788-1.201,1.373-2.007,1.796c0.992-0.103,1.893,0.716,2.243,1.65c0.35,0.934-0.006,2.083-0.822,2.656
							c1.714,0.084,3.305,1.496,3.806,3.137c0.5,1.642-0.131,3.566-1.506,4.592c-1.73,1.29-4.138,1.069-6.233,0.552
							c-4.815-1.187-9.226-3.583-13.74-5.635C368.418,142.934,363.634,141.615,358.68,141.855z"/>
						<path style="fill:#FFB85A;" d="M356.999,145.505c-1.74-0.744-2.185-2.762-1.706-4.581c0.478-1.819,1.68-3.529,2.674-5.262
							c2.625-4.575,3.878-9.556,3.582-14.234c-0.14-2.204-0.613-4.377-0.149-6.642c0.464-2.265,2.175-4.736,4.751-5.543
							c2.966-0.929,5.801,0.794,6.67,3.118c0.869,2.324,0.287,5.051-0.3,7.658c0.197-0.727,1.27-1.378,2.084-1.686
							c0.815-0.308,1.737-0.224,2.312,0.211c1.004,0.758,0.783,2.279,0.122,3.497c-0.661,1.218-1.685,2.329-2.209,3.577
							c0.513-0.907,2.066-0.978,2.829-0.421s0.809,1.64,0.395,2.571s-1.205,1.743-1.993,2.517
							C370.615,135.629,363.172,140.789,356.999,145.505z"/>
						<path style="fill:#FFB85A;" d="M355.305,141.917c-0.532,1.816,0.744,3.442,2.452,4.229c1.708,0.787,3.792,0.946,5.762,1.28
							c5.201,0.881,9.842,3.079,13.265,6.281c1.613,1.509,2.99,3.256,5.033,4.337c2.044,1.081,5.039,1.331,7.299-0.145
							c2.603-1.699,3.074-4.983,1.832-7.131c-1.241-2.148-3.717-3.432-6.103-4.636c0.686,0.31,1.871-0.104,2.626-0.537
							c0.755-0.433,1.277-1.199,1.307-1.92c0.052-1.257-1.262-2.053-2.622-2.317c-1.361-0.263-2.869-0.179-4.166-0.568
							c1.026,0.181,2.068-0.974,2.123-1.916c0.055-0.943-0.752-1.667-1.734-1.939c-0.982-0.271-2.112-0.178-3.21-0.061
							C371.583,137.681,362.869,140.148,355.305,141.917z"/>
					</g>
					<path style="fill:#6E985F;" d="M353.49,143.57c0.538-4.396,2.916-9.355,5.912-12.608c0.478,2.819,0.214,5.855-1.011,8.438
						c1.932-0.315,3.895-0.176,5.773,0.376c-1.033,1.493-2.211,2.838-3.725,3.841c3.164,0.662,5.99,2.743,7.504,5.599
						c-5.102,0.464-9.538-0.528-13.913-4.281C353.639,144.6,353.427,144.081,353.49,143.57z"/>
					<g>
						<path style="fill:#6E985F;" d="M330.108,156.134c-0.06-0.313-0.121-0.626-0.181-0.939
							c-2.445-13.621,2.185-28.601,12.962-37.218c0.22-0.183,0.444-0.358,0.678-0.53c0.05,0.125,0.104,0.257,0.154,0.382
							c2.741,6.808,2.936,14.606,0.526,21.541c-2.414,6.946-7.425,12.955-13.816,16.576
							C330.323,156.015,330.219,156.073,330.108,156.134z"/>
						<path style="fill:#3C1319;" d="M330.108,156.134c-0.06-0.313-0.121-0.626-0.181-0.939c0.965-1.796,1.885-3.631,2.757-5.496
							c2.557-5.437,4.739-11.056,6.523-16.794c1.524-4.897,2.753-9.882,3.682-14.927c0.22-0.183,0.444-0.358,0.678-0.53
							c0.05,0.125,0.104,0.257,0.154,0.382c-0.465,2.558-1.012,5.111-1.629,7.644c-1.452,5.922-3.316,11.733-5.58,17.4
							c-1.78,4.466-3.81,8.831-6.081,13.073C330.323,156.015,330.219,156.073,330.108,156.134z"/>
					</g>
					<g>
						<path style="fill:#6E985F;" d="M318.651,164.38c0.26-0.184,0.521-0.368,0.781-0.553c11.394-7.853,26.949-9.825,39.248-3.57
							c0.257,0.125,0.51,0.256,0.763,0.399c-0.093,0.097-0.191,0.201-0.285,0.299c-5.067,5.308-12.089,8.707-19.4,9.377
							c-7.323,0.671-14.865-1.41-20.803-5.735C318.848,164.527,318.753,164.456,318.651,164.38z"/>
						<path style="fill:#3C1319;" d="M318.651,164.38c0.26-0.184,0.521-0.368,0.781-0.553c2.034,0.137,4.086,0.217,6.144,0.24
							c6.008,0.083,12.026-0.251,17.989-0.997c5.089-0.635,10.137-1.575,15.115-2.813c0.257,0.125,0.51,0.256,0.763,0.399
							c-0.093,0.097-0.191,0.201-0.285,0.299c-2.522,0.633-5.072,1.189-7.634,1.674c-5.993,1.124-12.055,1.827-18.151,2.105
							c-4.803,0.224-9.616,0.178-14.418-0.138C318.848,164.527,318.753,164.456,318.651,164.38z"/>
					</g>
				</g>
				<g>
					<path style="fill:#3C1319;" d="M212.479,186.595c-0.294-11.2-3.25-22.165-7.827-32.351
						c-4.976-11.074-11.864-21.172-19.491-30.577c-4.451-5.487-9.164-10.755-13.967-15.934c-0.391-0.422,0.336-0.945,0.724-0.527
						c8.643,9.319,17.021,18.956,24.042,29.578c6.348,9.605,11.568,20.045,14.603,31.183c1.647,6.048,2.643,12.269,2.807,18.539
						C213.385,187.078,212.494,187.173,212.479,186.595z"/>
					<g>
						<path style="fill:#F57445;" d="M169.933,105.24c-3.49-9.969-2.583-20.86-1.864-31.397c0.128-1.875,0.244-3.794-0.272-5.602
							c-0.516-1.807-1.796-3.51-3.608-4.008c-1.995-0.549-4.156,0.5-5.503,2.07c-1.347,1.57-2.045,3.581-2.693,5.546
							c-0.518-1.015-2.127-1.158-3.141-0.637c-1.014,0.52-1.604,1.651-1.754,2.781s0.079,2.273,0.336,3.384
							c-0.439-0.912-1.746-1.024-2.617-0.507c-0.871,0.516-1.31,1.569-1.352,2.581c-0.042,1.012,0.25,2.004,0.54,2.975
							c-1.712-0.808-3.547-1.339-5.44-1.314c-0.989,0.013-2.038,0.171-2.792,0.811c-0.784,0.666-1.109,1.77-0.993,2.793
							c0.116,1.022,0.624,1.967,1.267,2.77c-0.981-0.556-2.286-0.114-3.071,0.696c-0.785,0.81-0.936,2.161-0.35,3.124
							c-1.815-0.688-4.102,0.055-5.363,1.531s-1.477,3.755-0.515,5.44c1.209,2.119,3.806,2.979,6.211,3.391
							c5.527,0.947,11.183,0.459,16.79,0.374C159.354,101.954,164.908,102.751,169.933,105.24z"/>
						<path style="fill:#FFB85A;" d="M170.026,109.783c2.14,0.016,3.513-1.874,3.84-3.976c0.327-2.101-0.145-4.417-0.392-6.663
							c-0.652-5.929,0.302-11.658,2.725-16.373c1.142-2.221,2.616-4.259,3.159-6.817c0.543-2.557-0.113-5.892-2.417-7.894
							c-2.654-2.305-6.371-1.8-8.323,0.215c-1.952,2.015-2.582,5.105-3.153,8.073c0.124-0.842-0.692-2.003-1.397-2.69
							c-0.705-0.687-1.699-1.017-2.492-0.827c-1.383,0.332-1.843,2.008-1.708,3.57c0.135,1.561,0.693,3.176,0.672,4.707
							c-0.121-1.172-1.699-1.948-2.741-1.716c-1.042,0.232-1.581,1.334-1.572,2.486c0.009,1.152,0.461,2.352,0.928,3.511
							C160.38,93.39,165.76,102.104,170.026,109.783z"/>
						<path style="fill:#FFB85A;" d="M173.404,106.83c-0.27,2.122-2.328,3.231-4.454,3.274c-2.126,0.043-4.359-0.734-6.551-1.279
							c-5.789-1.439-11.593-1.26-16.59,0.511c-2.354,0.834-4.571,2.022-7.178,2.218c-2.607,0.196-5.824-0.9-7.5-3.452
							c-1.929-2.938-0.932-6.555,1.326-8.22s5.405-1.876,8.422-2.044c-0.851,0.01-1.892-0.954-2.479-1.745
							c-0.587-0.791-0.781-1.82-0.486-2.58c0.514-1.326,2.237-1.558,3.766-1.215s3.055,1.112,4.575,1.295
							c-1.145-0.277-1.703-1.944-1.334-2.946c0.37-1.002,1.534-1.388,2.674-1.225c1.14,0.162,2.269,0.771,3.355,1.389
							C158.448,95.078,166.364,101.576,173.404,106.83z"/>
					</g>
					<path style="fill:#6E985F;" d="M174.538,109.365c1.431-4.8,1.209-11.014-0.425-15.741c-1.77,2.706-2.869,5.971-2.768,9.203
						c-1.86-1.2-3.957-1.944-6.154-2.221c0.395,2.015,1.008,3.941,2.124,5.665c-3.579-0.746-7.449,0.134-10.31,2.409
						c5.079,2.788,10.124,3.766,16.356,1.855C173.917,110.365,174.372,109.923,174.538,109.365z"/>
					<g>
						<path style="fill:#6E985F;" d="M193.09,132.962c0.204-0.297,0.408-0.595,0.612-0.892c8.694-13.012,10.671-30.632,3.398-44.436
							c-0.146-0.289-0.298-0.572-0.463-0.856c-0.109,0.107-0.224,0.22-0.333,0.327c-5.919,5.816-9.649,13.811-10.287,22.089
							c-0.64,8.291,1.837,16.785,6.823,23.429C192.92,132.741,193.002,132.848,193.09,132.962z"/>
						<path style="fill:#3C1319;" d="M193.09,132.962c0.204-0.297,0.408-0.595,0.612-0.892c-0.188-2.298-0.312-4.616-0.371-6.943
							c-0.191-6.792,0.089-13.602,0.834-20.356c0.635-5.765,1.616-11.488,2.935-17.137c-0.146-0.289-0.298-0.572-0.463-0.856
							c-0.109,0.107-0.224,0.22-0.333,0.327c-0.675,2.862-1.262,5.755-1.769,8.659c-1.174,6.795-1.87,13.66-2.086,20.558
							c-0.175,5.434-0.045,10.876,0.39,16.3C192.92,132.741,193.002,132.848,193.09,132.962z"/>
					</g>
					<g>
						<path style="fill:#6E985F;" d="M201.235,146.69c-0.186-0.309-0.373-0.617-0.559-0.926
							c-8.258-13.292-23.488-22.371-39.064-21.45c-0.323,0.013-0.644,0.035-0.971,0.068c0.053,0.143,0.108,0.295,0.16,0.438
							c2.852,7.793,8.591,14.492,15.867,18.493c7.286,4.007,16.044,5.261,24.155,3.464
							C200.964,146.753,201.095,146.723,201.235,146.69z"/>
						<path style="fill:#3C1319;" d="M201.235,146.69c-0.186-0.309-0.373-0.617-0.559-0.926c-2.17-0.778-4.333-1.623-6.477-2.53
							c-6.264-2.631-12.351-5.7-18.194-9.169c-4.988-2.96-9.794-6.217-14.394-9.751c-0.323,0.013-0.644,0.035-0.971,0.068
							c0.053,0.143,0.108,0.295,0.16,0.438c2.327,1.797,4.719,3.527,7.155,5.188c5.704,3.876,11.668,7.345,17.861,10.391
							c4.877,2.404,9.886,4.534,15.006,6.378C200.964,146.753,201.095,146.723,201.235,146.69z"/>
					</g>
				</g>
			</g>
			<g>
				<g>
					
						<ellipse transform="matrix(0.0079 -1 1 0.0079 50.078 450.7151)" style="fill:#6B222C;" cx="252.175" cy="200.121" rx="18.816" ry="100.027"/>
				</g>
			</g>
			<g>
				<g>
					
						<ellipse transform="matrix(0.0703 -0.9975 0.9975 0.0703 147.4311 416.4183)" style="fill:#FFFFFF;" cx="297.107" cy="129.118" rx="9.58" ry="3.271"/>
					
						<ellipse transform="matrix(0.0703 -0.9975 0.9975 0.0703 113.7331 443.6634)" style="fill:#FFFFFF;" cx="294.874" cy="160.818" rx="9.58" ry="3.271"/>
					
						<ellipse transform="matrix(0.0703 -0.9975 0.9975 0.0703 144.2047 446.8898)" style="fill:#FFFFFF;" cx="311.841" cy="146.085" rx="3.271" ry="9.58"/>
					
						<ellipse transform="matrix(0.0703 -0.9975 0.9975 0.0703 116.9595 413.1919)" style="fill:#FFFFFF;" cx="280.141" cy="143.852" rx="3.271" ry="9.58"/>
					
						<ellipse transform="matrix(0.5596 -0.8288 0.8288 0.5596 11.7765 294.3148)" style="fill:#FFFFFF;" cx="282.823" cy="136.076" rx="3.271" ry="9.58"/>
					
						<ellipse transform="matrix(0.5596 -0.8288 0.8288 0.5596 8.6362 323.973)" style="fill:#FFFFFF;" cx="309.159" cy="153.86" rx="3.271" ry="9.58"/>
					
						<ellipse transform="matrix(0.5596 -0.8288 0.8288 0.5596 25.0355 310.7141)" style="fill:#FFFFFF;" cx="304.883" cy="131.8" rx="9.58" ry="3.271"/>
					
						<ellipse transform="matrix(0.5596 -0.8288 0.8288 0.5596 -4.6228 307.5737)" style="fill:#FFFFFF;" cx="287.099" cy="158.137" rx="9.58" ry="3.271"/>
					
						<ellipse transform="matrix(0.899 -0.4379 0.4379 0.899 -28.0407 139.7668)" style="fill:#FFFFFF;" cx="289.033" cy="130.683" rx="3.271" ry="9.58"/>
					
						<ellipse transform="matrix(0.899 -0.4379 0.4379 0.899 -39.1464 148.7458)" style="fill:#FFFFFF;" cx="302.949" cy="159.253" rx="3.271" ry="9.58"/>
					
						<ellipse transform="matrix(0.899 -0.4379 0.4379 0.899 -29.104 149.8091)" style="fill:#FFFFFF;" cx="310.276" cy="138.01" rx="9.58" ry="3.271"/>
					
						<ellipse transform="matrix(0.899 -0.4379 0.4379 0.899 -38.0831 138.7034)" style="fill:#FFFFFF;" cx="281.706" cy="151.926" rx="9.58" ry="3.271"/>
				</g>
				<circle style="fill:#FFB85A;" cx="295.991" cy="144.968" r="10.69"/>
			</g>
			<g>
				<g>
					
						<ellipse transform="matrix(0.0703 -0.9975 0.9975 0.0703 147.3886 483.5964)" style="fill:#FFFFFF;" cx="333.125" cy="162.73" rx="7.391" ry="2.524"/>
					
						<ellipse transform="matrix(0.0703 -0.9975 0.9975 0.0703 121.3903 504.6163)" style="fill:#FFFFFF;" cx="331.402" cy="187.187" rx="7.391" ry="2.524"/>
					
						<ellipse transform="matrix(0.0703 -0.9975 0.9975 0.0703 144.8994 507.1055)" style="fill:#FFFFFF;" cx="344.492" cy="175.82" rx="2.524" ry="7.391"/>
					
						<ellipse transform="matrix(0.0703 -0.9975 0.9975 0.0703 123.8795 481.1072)" style="fill:#FFFFFF;" cx="320.035" cy="174.097" rx="2.524" ry="7.391"/>
					
						<ellipse transform="matrix(0.5596 -0.8288 0.8288 0.5596 2.5369 340.9709)" style="fill:#FFFFFF;" cx="322.104" cy="168.098" rx="2.524" ry="7.391"/>
					
						<ellipse transform="matrix(0.5596 -0.8288 0.8288 0.5596 0.1141 363.8525)" style="fill:#FFFFFF;" cx="342.423" cy="181.819" rx="2.524" ry="7.391"/>
					
						<ellipse transform="matrix(0.5596 -0.8288 0.8288 0.5596 12.7663 353.6231)" style="fill:#FFFFFF;" cx="339.123" cy="164.799" rx="7.391" ry="2.524"/>
					
						<ellipse transform="matrix(0.5596 -0.8288 0.8288 0.5596 -10.1153 351.2003)" style="fill:#FFFFFF;" cx="325.403" cy="185.118" rx="7.391" ry="2.524"/>
					
						<ellipse transform="matrix(0.899 -0.4379 0.4379 0.899 -38.7797 159.705)" style="fill:#FFFFFF;" cx="326.895" cy="163.938" rx="2.524" ry="7.391"/>
					
						<ellipse transform="matrix(0.899 -0.4379 0.4379 0.899 -47.3478 166.6324)" style="fill:#FFFFFF;" cx="337.631" cy="185.979" rx="2.524" ry="7.391"/>
					
						<ellipse transform="matrix(0.899 -0.4379 0.4379 0.899 -39.6001 167.4527)" style="fill:#FFFFFF;" cx="343.284" cy="169.59" rx="7.391" ry="2.524"/>
					
						<ellipse transform="matrix(0.899 -0.4379 0.4379 0.899 -46.5275 158.8846)" style="fill:#FFFFFF;" cx="321.242" cy="180.327" rx="7.391" ry="2.524"/>
				</g>
				<circle style="fill:#FFB85A;" cx="332.263" cy="174.959" r="8.248"/>
			</g>
			<g>
				<g>
					
						<ellipse transform="matrix(0.0703 -0.9975 0.9975 0.0703 11.1593 326.5335)" style="fill:#FFFFFF;" cx="180.752" cy="157.28" rx="7.391" ry="2.524"/>
					
						<ellipse transform="matrix(0.0703 -0.9975 0.9975 0.0703 -14.839 347.5534)" style="fill:#FFFFFF;" cx="179.029" cy="181.737" rx="7.391" ry="2.524"/>
					
						<ellipse transform="matrix(0.0703 -0.9975 0.9975 0.0703 8.6701 350.0426)" style="fill:#FFFFFF;" cx="192.119" cy="170.37" rx="2.524" ry="7.391"/>
					
						<ellipse transform="matrix(0.0703 -0.9975 0.9975 0.0703 -12.3498 324.0443)" style="fill:#FFFFFF;" cx="167.662" cy="168.647" rx="2.524" ry="7.391"/>
					
						<ellipse transform="matrix(0.5596 -0.8288 0.8288 0.5596 -60.0486 212.292)" style="fill:#FFFFFF;" cx="169.731" cy="162.648" rx="2.524" ry="7.391"/>
					
						<ellipse transform="matrix(0.5596 -0.8288 0.8288 0.5596 -62.4714 235.1736)" style="fill:#FFFFFF;" cx="190.05" cy="176.369" rx="2.524" ry="7.391"/>
					
						<ellipse transform="matrix(0.5596 -0.8288 0.8288 0.5596 -49.8192 224.9442)" style="fill:#FFFFFF;" cx="186.751" cy="159.349" rx="7.391" ry="2.524"/>
					
						<ellipse transform="matrix(0.5596 -0.8288 0.8288 0.5596 -72.7008 222.5214)" style="fill:#FFFFFF;" cx="173.03" cy="179.668" rx="7.391" ry="2.524"/>
					
						<ellipse transform="matrix(0.899 -0.4379 0.4379 0.899 -51.7799 92.4292)" style="fill:#FFFFFF;" cx="174.522" cy="158.488" rx="2.524" ry="7.391"/>
					
						<ellipse transform="matrix(0.899 -0.4379 0.4379 0.899 -60.348 99.3566)" style="fill:#FFFFFF;" cx="185.259" cy="180.53" rx="2.524" ry="7.391"/>
					
						<ellipse transform="matrix(0.899 -0.4379 0.4379 0.899 -52.6003 100.177)" style="fill:#FFFFFF;" cx="190.911" cy="164.141" rx="7.391" ry="2.524"/>
					
						<ellipse transform="matrix(0.899 -0.4379 0.4379 0.899 -59.5277 91.6088)" style="fill:#FFFFFF;" cx="168.87" cy="174.877" rx="7.391" ry="2.524"/>
				</g>
				<circle style="fill:#FFB85A;" cx="179.89" cy="169.509" r="8.248"/>
			</g>
			<g>
				<g>
					
						<ellipse transform="matrix(0.9984 -0.056 0.056 0.9984 -7.1534 15.047)" style="fill:#FFFFFF;" cx="264.892" cy="135.154" rx="2.126" ry="6.226"/>
					
						<ellipse transform="matrix(0.9984 -0.056 0.056 0.9984 -8.3063 15.1442)" style="fill:#FFFFFF;" cx="266.048" cy="155.772" rx="2.126" ry="6.226"/>
					
						<ellipse transform="matrix(0.9984 -0.056 0.056 0.9984 -7.6813 15.6721)" style="fill:#FFFFFF;" cx="275.779" cy="144.885" rx="6.226" ry="2.126"/>
					
						<ellipse transform="matrix(0.9984 -0.056 0.056 0.9984 -7.7784 14.5192)" style="fill:#FFFFFF;" cx="255.161" cy="146.042" rx="6.226" ry="2.126"/>
					
						<ellipse transform="matrix(0.4507 -0.8927 0.8927 0.4507 15.0598 306.0933)" style="fill:#FFFFFF;" cx="256.253" cy="140.809" rx="2.126" ry="6.226"/>
					
						<ellipse transform="matrix(0.4507 -0.8927 0.8927 0.4507 16.8768 327.6615)" style="fill:#FFFFFF;" cx="274.687" cy="150.117" rx="2.126" ry="6.226"/>
					
						<ellipse transform="matrix(0.4507 -0.8927 0.8927 0.4507 26.7524 315.9688)" style="fill:#FFFFFF;" cx="270.124" cy="136.246" rx="6.226" ry="2.126"/>
					
						<ellipse transform="matrix(0.4507 -0.8927 0.8927 0.4507 5.1842 317.7859)" style="fill:#FFFFFF;" cx="260.816" cy="154.68" rx="6.226" ry="2.126"/>
					
						<ellipse transform="matrix(0.8367 -0.5477 0.5477 0.8367 -32.5039 164.6528)" style="fill:#FFFFFF;" cx="259.815" cy="136.824" rx="2.126" ry="6.226"/>
					
						<ellipse transform="matrix(0.8367 -0.5477 0.5477 0.8367 -40.1198 173.67)" style="fill:#FFFFFF;" cx="271.125" cy="154.102" rx="2.126" ry="6.226"/>
					
						<ellipse transform="matrix(0.8367 -0.5477 0.5477 0.8367 -31.8033 172.9693)" style="fill:#FFFFFF;" cx="274.109" cy="139.808" rx="6.226" ry="2.126"/>
					
						<ellipse transform="matrix(0.8367 -0.5477 0.5477 0.8367 -40.8204 165.3535)" style="fill:#FFFFFF;" cx="256.831" cy="151.119" rx="6.226" ry="2.126"/>
				</g>
				<circle style="fill:#FFB85A;" cx="265.47" cy="145.463" r="6.947"/>
			</g>
			<path style="fill:#3C1319;" d="M155.53,229.906c-0.132,1.014,85.882,21.379,156.196,6.727l3.642-10.647l8.332,10.094
				c0,0,20.389-1.134,32.085-7.512c0,0-3.656-15.625-19.814-30.888l-157.506-2.767C178.464,194.914,158.973,203.407,155.53,229.906z
				"/>
			<g>
				<g>
					<g>
						<path style="fill:#EF8181;" d="M347.425,206.153c-4.713,3.555-14.479,6.732-27.663,9.209c-1.06,0.206-2.121,0.39-3.227,0.574
							c-6.293,1.103-13.301,2.03-20.841,2.781c-1.407,0.141-2.836,0.282-4.289,0.4c-8.417,0.732-17.434,1.244-26.868,1.489
							c-0.438,0.002-0.876,0.026-1.338,0.029c-0.323,0.002-0.692,0.026-1.038,0.027c-2.676,0.057-5.398,0.092-8.143,0.105
							c-3.091,0.014-6.159,0.006-9.182-0.047c0.046-5.01,2.053-10.029,5.496-13.645c0.161-0.18,0.367-0.36,0.528-0.517
							c-0.463-0.356-0.88-0.734-1.251-1.157l-0.023,0c-0.139-0.134-0.278-0.267-0.394-0.423c-0.557-0.624-1.067-1.292-1.509-2.006
							c-1.929-3.033-2.823-6.763-2.793-10.386c0.03-3.556,1.236-7.051,3.299-9.9c0.894-1.279,1.973-2.402,3.214-3.37
							c0.092-0.09,0.207-0.158,0.322-0.247c-0.023-0.045-0.023-0.067-0.047-0.089c-0.487-0.646-0.906-1.36-1.279-2.096l-0.023,0
							c-0.023-0.045-0.047-0.112-0.07-0.156c-3.981-7.742-3.554-20.134,3.393-24.393l0.023,0c4.302-2.637,10.896-3.361,15.861-2.333
							c4.225,0.83,8.181,3.071,11.102,6.278c0.51,0.557,0.974,1.136,1.415,1.738c0.552-0.316,1.128-0.609,1.703-0.88
							c7.502-3.882,16.376-5.533,24.461-3.222c7.669,2.178,14.388,8.476,16.223,16.183c0.236,1.05,0.425,2.123,0.476,3.218
							c0.438-0.069,0.899-0.138,1.36-0.141c3.437-0.061,7.066,1.466,9.293,4.049c1.786,2.072,2.767,4.751,2.826,7.457
							c0,0,0,0.022,0,0.045c0.028,1.14-0.105,2.304-0.446,3.401c0.509,0.333,0.995,0.711,1.458,1.089
							c1.737,1.446,3.268,3.183,4.522,5.123c1.719,2.564,2.886,5.443,3.292,8.394C347.415,203.871,347.489,205.012,347.425,206.153z
							"/>
						<g>
							<path style="fill:#CC5050;" d="M284.543,174.939c-0.135,1.539,2.266,1.503,2.378-0.011c0.518-6.107-0.58-12.278-3.126-17.793
								c-0.569,0.267-1.139,0.558-1.684,0.873c-0.454-0.599-0.909-1.173-1.435-1.724
								C283.746,161.966,285.108,168.424,284.543,174.939z"/>
							<path style="fill:#CC5050;" d="M320.033,183.474c0.62,0.357,1.237,0.09,1.615-0.44c2.221-2.918,3.799-6.29,4.686-9.851
								c-0.475,0.002-0.927,0.052-1.378,0.127c-0.053-1.081-0.224-2.162-0.467-3.218c-0.599,4.232-2.268,8.278-4.891,11.75
								C319.22,182.348,319.533,183.188,320.033,183.474z"/>
							<path style="fill:#CC5050;" d="M331.638,199.257c3.459-2.588,6.177-6.085,7.823-10.034c-0.477-0.382-0.955-0.764-1.456-1.099
								c0.328-1.107,0.465-2.261,0.436-3.39c-1.118,4.908-3.951,9.439-8.026,12.438
								C329.208,198.091,330.406,200.152,331.638,199.257z"/>
							<path style="fill:#CC5050;" d="M307.355,191.399c-2.622,1.645-5.689,1.995-8.663,2.321c-2.698,0.303-5.695,0.653-7.878,2.407
								c-0.138,0.112-0.322,0.225-0.483,0.271c-2.722,5.067-4.332,10.889-1.632,16.222c1.49,2.968,4.037,4.857,6.995,6.095
								c-1.407,0.141-2.836,0.282-4.289,0.4c-1.134-0.777-2.176-1.69-3.081-2.759c-2.111-2.517-3.07-5.465-3.246-8.528
								c-0.232-0.178-0.417-0.445-0.465-0.825c-0.865-7.466-4.404-14.472-9.826-19.613c-1.112-1.091,0.564-2.776,1.676-1.73
								c4.472,4.251,7.657,9.603,9.369,15.5c0.544-2.038,1.319-3.987,2.28-5.758c2.127-3.946,4.994-7.448,7.653-11.084
								c2.98-3.995,5.66-8.145,6.721-13.159c0.293-1.5,2.603-0.884,2.287,0.638c-1.039,4.813-3.488,8.873-6.285,12.777
								c-1.673,2.356-3.462,4.623-5.112,6.979c-0.229,0.314-0.458,0.628-0.665,0.942c1.474-0.521,3.018-0.819,4.609-1.005
								c3.02-0.372,6.18-0.498,8.802-2.166C307.434,188.514,308.643,190.588,307.355,191.399z"/>
							<path style="fill:#CC5050;" d="M319.762,215.361c-1.06,0.206-2.121,0.39-3.227,0.574c-3.45-2.668-6.257-6.211-7.984-10.362
								c-0.56-1.429,1.698-2.065,2.304-0.637C312.652,209.244,315.852,212.874,319.762,215.361z"/>
						</g>
					</g>
					<g>
						<path style="fill:#EF8181;" d="M263.199,220.634c-0.323,0.002-0.692,0.026-1.038,0.027c-2.676,0.057-5.398,0.092-8.143,0.105
							c-3.091,0.014-6.159,0.006-9.182-0.047c-9.897-0.133-19.38-0.558-28.173-1.256c-1.477-0.105-2.908-0.232-4.339-0.36
							c-7.547-0.681-14.564-1.543-20.866-2.587c-1.108-0.174-2.17-0.348-3.232-0.544c-13.206-2.354-22.979-5.44-27.724-8.951
							c-0.075-1.14-0.011-2.281,0.123-3.422c0.378-2.954,1.518-5.844,3.214-8.424c1.214-1.951,2.728-3.703,4.474-5.165
							c0.46-0.382,0.942-0.765,1.448-1.103c-0.351-1.094-0.495-2.257-0.477-3.397c0-0.022,0-0.045,0-0.045
							c0.034-2.706,0.99-5.394,2.757-7.483c2.179-2.604,5.817-4.164,9.231-4.136c0.484-0.002,0.946,0.063,1.385,0.128
							c0.041-1.096,0.221-2.17,0.446-3.223c1.763-7.724,8.424-14.084,16.072-16.334c8.063-2.386,16.952-0.817,24.49,2.995
							c0.578,0.266,1.156,0.554,1.688,0.864c0.459-0.606,0.917-1.19,1.422-1.751c2.892-3.234,6.826-5.511,11.043-6.38
							c4.955-1.074,11.533-0.411,15.882,2.185l0.023,0c0.463,0.289,0.902,0.6,1.319,0.956c5.767,4.916,5.935,16.298,2.209,23.562
							l-0.023,0c-0.205,0.471-0.457,0.919-0.755,1.345c-0.137,0.269-0.298,0.516-0.481,0.763c-0.023,0.022-0.023,0.045-0.046,0.09
							c0.07,0.067,0.162,0.111,0.232,0.2c1.273,0.933,2.409,2.091,3.338,3.384c2.089,2.831,3.328,6.314,3.391,9.869
							c0.09,4.472-1.249,9.13-4.187,12.432c-0.161,0.18-0.321,0.382-0.505,0.539c-0.344,0.382-0.735,0.719-1.149,1.056
							c0.162,0.156,0.324,0.312,0.51,0.49l0.023,0.022C261.099,210.624,263.083,215.625,263.199,220.634z"/>
						<g>
							<path style="fill:#CC5050;" d="M223.087,175.225c0.15,1.537-2.252,1.524-2.377,0.011c-0.575-6.101,0.466-12.282,2.96-17.821
								c0.572,0.262,1.144,0.548,1.692,0.857c0.449-0.603,0.898-1.182,1.419-1.737C223.764,162.245,222.463,168.716,223.087,175.225
								z"/>
							<path style="fill:#CC5050;" d="M187.678,184.089c-0.617,0.363-1.236,0.102-1.619-0.425c-2.248-2.897-3.857-6.254-4.777-9.807
								c0.475-0.002,0.927,0.044,1.379,0.114c0.042-1.082,0.204-2.164,0.437-3.222c0.638,4.227,2.345,8.256,5,11.704
								C188.481,182.956,188.176,183.798,187.678,184.089z"/>
							<path style="fill:#CC5050;" d="M176.221,199.979c-3.483-2.555-6.234-6.027-7.916-9.961c0.474-0.387,0.948-0.773,1.445-1.112
								c-0.338-1.104-0.486-2.257-0.468-3.386c1.164,4.897,4.038,9.402,8.141,12.363
								C178.64,198.791,177.461,200.863,176.221,199.979z"/>
							<path style="fill:#CC5050;" d="M257.154,207.371c0.167,0.168,0.358,0.335,0.525,0.526c-3.433-2.051-7.503-2.897-11.495-2.398
								c-0.641,0.075-1.192-0.595-1.194-1.196c-0.003-0.697,0.542-1.132,1.183-1.207c4.372-0.549,8.847,0.463,12.638,2.681
								C258.314,206.356,257.77,206.888,257.154,207.371z"/>
							<path style="fill:#CC5050;" d="M256.702,178.284c-0.353,0.747-0.778,1.469-1.25,2.121c-4.002-1.592-8.449-1.811-12.604-0.47
								c-1.472,0.464-2.101-1.865-0.653-2.328C246.919,176.094,252.152,176.382,256.702,178.284z"/>
							<path style="fill:#CC5050;" d="M199.369,206.08c-1.711,4.19-4.462,7.759-7.91,10.436c-1.108-0.174-2.17-0.348-3.232-0.544
								c3.887-2.523,7.076-6.183,8.833-10.508C197.629,204.031,199.916,204.647,199.369,206.08z"/>
							<path style="fill:#CC5050;" d="M232.964,187.585c-5.374,5.191-8.848,12.23-9.667,19.703c-0.044,0.38-0.205,0.65-0.434,0.83
								c-0.147,3.065-1.102,6.021-3.167,8.558c-0.895,1.078-1.905,1.999-3.032,2.787c-1.477-0.105-2.908-0.232-4.339-0.36
								c2.947-1.266,5.499-3.157,6.961-6.16c2.651-5.357,0.986-11.164-1.782-16.206c-0.162-0.044-0.347-0.155-0.509-0.266
								c-2.177-1.734-5.177-2.056-7.877-2.334c-3-0.299-6.07-0.62-8.684-2.241c-1.319-0.799-0.106-2.885,1.213-2.086
								c2.637,1.643,5.798,1.74,8.822,2.084c1.593,0.172,3.139,0.455,4.618,0.963c-0.209-0.312-0.464-0.624-0.673-0.936
								c-1.672-2.34-3.505-4.591-5.177-6.931c-2.855-3.878-5.343-7.915-6.403-12.718c-0.33-1.519,1.974-2.156,2.281-0.659
								c1.108,5.004,3.826,9.129,6.82,13.096c0.023,0,0.023,0,0.023,0c2.693,3.611,5.616,7.086,7.756,11.012
								c0.977,1.762,1.77,3.704,2.334,5.737c1.657-5.912,4.792-11.294,9.224-15.586
								C232.374,184.815,234.043,186.485,232.964,187.585z"/>
						</g>
					</g>
					<path style="fill:#CC5050;" d="M264.537,220.605c-0.438,0.002-0.876,0.026-1.338,0.029c-0.323,0.002-0.692,0.026-1.038,0.027
						c0.347-4.81-1.245-9.678-4.812-12.927c-0.023-0.022-0.069-0.044-0.093-0.067c-0.532-0.378-0.79-1.182-0.216-1.788
						c0.207-0.225,0.436-0.472,0.643-0.696c1.422-1.684,2.544-3.613,3.272-5.696c1.366-3.898,1.3-8.214-0.102-12.076
						c-0.631-1.719-1.515-3.325-2.652-4.774c-0.116-0.201-0.302-0.424-0.464-0.624c-0.487-0.557-1.597-1.044-2.384-1.644
						c-0.023,0-0.023,0-0.023,0c-0.486-0.378-0.834-0.779-0.836-1.271c-0.025-0.514,0.295-0.963,0.639-1.39
						c0.206-0.269,0.413-0.516,0.55-0.763c0.549-0.987,1.029-2.018,1.416-3.071c0.774-2.151,1.248-4.412,1.353-6.693
						c0.21-4.496-0.919-9.053-3.313-12.866c-0.232-0.379-0.234-0.737-0.097-1.028c0.319-0.762,1.563-1.125,2.145-0.189
						c4.764,7.559,4.834,17.601,0.348,25.292c1.413,1.246,2.642,2.694,3.642,4.255c1.859,2.876,3.005,6.203,3.228,9.669
						c0.324,5.187-1.521,10.339-4.824,14.269C263.197,210.212,264.882,215.504,264.537,220.605z"/>
				</g>
				<g>
					<g>
						<path style="fill:none;" d="M352.231,196.746c-0.082,10.392-44.93,18.464-100.171,18.03
							c-55.241-0.434-99.957-9.21-99.876-19.602c0.082-10.392,45.331-69.565,100.573-69.13S352.312,186.355,352.231,196.746z"/>
					</g>
				</g>
			</g>
			<path style="fill:#3C1319;" d="M192.366,265.985c0,0-7.332-6.655,10.931-12.444c18.263-5.789,24.094-3.607,26.376,0.341
				c2.082,3.601-2.567,8.283-12.904,11.365C204.36,268.946,196.32,269.786,192.366,265.985z"/>
			<path style="fill:#3C1319;" d="M318.17,262.383c0,0,5.154-7.808-11.14-11.495c-16.294-3.686-20.873-0.695-22.187,3.677
				c-1.199,3.987,3.444,8.244,12.637,10.13C308.514,266.958,315.423,266.813,318.17,262.383z"/>
			<path style="fill:#3C1319;" d="M168.314,210.938c-7.659-4.065-14.236-6.558-15.543-13.686
				c-4.23,17.234-13.646,36.806-8.847,60.066c3.602,17.46,9.721,25.962,17.504,40.334
				C158.428,270.528,162.331,237.105,168.314,210.938z"/>
			<path style="fill:#3C1319;" d="M337.668,210.855c5.641-1.805,10.518-2.987,13.961-11.99c4.859,7.449,14.877,36.422,9.711,59.808
				c-3.878,17.554-10.13,26.033-18.138,40.407C346.63,271.769,343.237,237.344,337.668,210.855z"/>
			
				<line style="fill:none;stroke:#3C1319;stroke-width:1.5;stroke-linecap:round;stroke-linejoin:round;stroke-miterlimit:10;" x1="184.782" y1="509.025" x2="184.782" y2="485.47"/>
			<path style="fill:none;stroke:#3C1319;stroke-width:1.5;stroke-linecap:round;stroke-linejoin:round;stroke-miterlimit:10;" d="
				M342.113,485.47c0,0,2.202,12.999,3.005,20.68"/>
		</g>
		<g style="clip-path:url(#SVGID_00000031907916099202067910000004555141335645313202_);">
			<g>
				<path style="fill:#D67647;" d="M439.337,375.188c0,0-4.71-8.76-7.005-9.671c-2.295-0.911-12.104-1.491-14.539-2.788
					c-2.435-1.297-3.922-8.392,6.658-8.092c10.58,0.3,9.739,0.387,20.738,13.843"/>
				<path style="fill:#6E985F;" d="M393.383,329.859c-2.611,0.427-4.719,2.593-5.065,5.215c-0.243,1.845,0.331,3.519,1.391,4.768
					c0.782,0.921,1.218,2.085,1.271,3.292l0,0c0.005,0.002,0.011,0.003,0.016,0.005l-13.214,0.583l0.582,13.2
					c1.187-0.052,2.358-0.482,3.262-1.249c0.998-0.856,2.275-1.402,3.686-1.464c3.632-0.16,6.662,2.869,6.394,6.618
					c-0.206,2.64-2.176,4.924-4.754,5.5c-1.815,0.402-3.542-0.026-4.871-0.961c-0.982-0.698-2.187-1.037-3.388-0.984l0.582,13.2
					l13.215-0.583c-0.006,0.003-0.011,0.004-0.017,0.007l0,0c0.053,1.207-0.278,2.405-0.976,3.391
					c-0.946,1.337-1.371,3.055-0.966,4.872c0.575,2.582,2.866,4.554,5.504,4.749c3.741,0.277,6.774-2.758,6.613-6.391
					c-0.062-1.412-0.605-2.682-1.458-3.678c-0.78-0.911-1.201-2.074-1.254-3.272c-0.006-0.002-0.011-0.004-0.017-0.006l13.214-0.583
					l-0.583-13.212c0.003,0.005,0.004,0.009,0.007,0.014l0,0c1.207-0.053,2.405,0.278,3.391,0.976
					c1.337,0.946,3.055,1.371,4.872,0.966c2.582-0.575,4.554-2.866,4.749-5.504c0.277-3.741-2.758-6.774-6.391-6.613
					c-1.413,0.062-2.682,0.605-3.678,1.458c-0.911,0.78-2.074,1.201-3.272,1.254c-0.002,0.005-0.004,0.01-0.006,0.015l-0.583-13.213
					l-13.213,0.583c0.005-0.003,0.01-0.004,0.015-0.006c-0.053-1.198,0.264-2.394,0.961-3.37c0.762-1.067,1.19-2.379,1.128-3.792
					C400.373,332.01,397.085,329.254,393.383,329.859z"/>
				<path style="fill:#D67647;" d="M469.303,409.02c0,0-1.464-36.445-5.036-46.274c-3.572-9.828-32.996-36.766-40.196-33.168
					c-7.2,3.598,21.042,29.985,21.042,29.985s-12.175,10.103-9.314,26.08c0,0-9.924-3.381-13.182-8.742
					c0,0-0.523-15.845-3.964-20.812c-3.441-4.967-6.939,13.321-5.627,22.334c1.312,9.013,27.245,30.558,27.245,30.558l28.166,0.353"
					/>
				<path style="fill:#D67647;" d="M448.898,361.626c-8.131-10.252-18.68-18.573-30.543-24.093c-1.111-0.517-2.492-0.99-3.487-0.275
					c-1.567,1.127-0.431,3.581,0.811,5.058c9.389,11.156,19.992,21.289,31.563,30.162"/>
				<path style="fill:#D67647;" d="M465.615,368.792c0.458-13.077-2.178-26.252-7.63-38.146c-0.511-1.114-1.255-2.369-2.476-2.47
					c-1.923-0.159-2.651,2.447-2.662,4.376c-0.087,14.58,1.415,29.17,4.471,43.428"/>
				<g>
					<path style="fill:#3C1319;" d="M441.453,396.861c0.067-0.112,0.097-0.246,0.079-0.384
						c-2.741-19.138,11.337-25.412,11.48-25.472c0.296-0.125,0.433-0.47,0.306-0.769c-0.128-0.298-0.472-0.435-0.769-0.307
						c-0.149,0.066-15.043,6.705-12.176,26.714c0.046,0.321,0.343,0.543,0.663,0.497
						C441.215,397.113,441.365,397.007,441.453,396.861z"/>
				</g>
				<g>
					<path style="fill:#3C1319;" d="M451.498,366.34c0.131-0.218,0.11-0.504-0.071-0.699l-19.642-21.206
						c-0.22-0.237-0.59-0.251-0.828-0.033c-0.237,0.22-0.252,0.591-0.031,0.828l19.642,21.206c0.22,0.238,0.59,0.251,0.828,0.033
						C451.436,366.43,451.47,366.386,451.498,366.34z"/>
				</g>
				<g>
					<path style="fill:#3C1319;" d="M459.562,368.726c0.025-0.042,0.046-0.088,0.06-0.137c0.093-0.31-0.084-0.635-0.395-0.726
						c-0.597-0.176-14.672-4.264-19.302-1.448c-0.276,0.164-0.367,0.525-0.197,0.804c0.168,0.277,0.527,0.364,0.804,0.196
						c4.195-2.548,18.224,1.53,18.364,1.572C459.156,369.063,459.428,368.949,459.562,368.726z"/>
				</g>
				<g>
					<path style="fill:#3C1319;" d="M457.598,367.988c0.083-0.137,0.109-0.308,0.059-0.472c-2.475-8.123-3.153-19.179-3.159-19.291
						c-0.019-0.322-0.297-0.568-0.619-0.549c-0.321,0.019-0.569,0.292-0.55,0.619c0.006,0.112,0.692,11.307,3.209,19.562
						c0.093,0.308,0.422,0.484,0.73,0.389C457.411,368.201,457.525,368.108,457.598,367.988z"/>
				</g>
			</g>
			<path style="fill:#D67647;" d="M310.142,542.837c0,0,24.219-25.441,65.267-24.343c41.048,1.098,48.345-1.658,48.345-1.658
				s7.919-69.23,13.967-111.821l30.998-6.969c0,0,17.873,76.843,12.992,129.181c-4.882,52.338-94.543,70.021-94.543,70.021
				l-29.209-3.277L310.142,542.837z"/>
		</g>
		<g style="clip-path:url(#SVGID_00000031907916099202067910000004555141335645313202_);">
			<g>
				<path style="fill:#D67647;" d="M70.288,375.977c0,0,3.007-9.481,5.093-10.801c2.086-1.32,11.619-3.707,13.771-5.432
					c2.152-1.725,2.301-8.973-8.042-6.719c-10.342,2.254-9.499,2.184-17.816,17.444"/>
				<path style="fill:#6E985F;" d="M142.827,362.674c-0.473,2.603-2.676,4.673-5.304,4.972c-1.849,0.211-3.513-0.394-4.742-1.475
					c-0.907-0.798-2.063-1.254-3.269-1.329l0,0c-0.002-0.005-0.003-0.011-0.005-0.016l-0.817,13.201l-13.187-0.816
					c0.073-1.186,0.524-2.349,1.307-3.239c0.873-0.983,1.442-2.25,1.529-3.66c0.224-3.628-2.751-6.712-6.503-6.51
					c-2.643,0.159-4.962,2.088-5.583,4.656c-0.434,1.808-0.037,3.542,0.874,4.887c0.681,0.995,0.998,2.205,0.924,3.405
					l-13.187-0.816l0.817-13.202c-0.003,0.006-0.005,0.011-0.007,0.016l0,0c-1.206-0.075-2.409,0.236-3.408,0.916
					c-1.353,0.922-3.079,1.316-4.888,0.88c-2.571-0.621-4.502-2.946-4.651-5.587c-0.211-3.746,2.877-6.724,6.507-6.499
					c1.411,0.087,2.671,0.652,3.651,1.523c0.897,0.796,2.052,1.238,3.25,1.312c0.002,0.006,0.003,0.011,0.005,0.017l0.817-13.202
					l13.199,0.817c-0.005-0.003-0.009-0.005-0.014-0.007l0,0c0.075-1.206-0.236-2.409-0.916-3.408
					c-0.922-1.353-1.316-3.079-0.88-4.888c0.621-2.571,2.946-4.502,5.587-4.651c3.745-0.211,6.724,2.877,6.499,6.507
					c-0.087,1.411-0.652,2.671-1.523,3.651c-0.796,0.897-1.238,2.053-1.312,3.25c-0.005,0.002-0.01,0.003-0.015,0.006l13.2,0.816
					l-0.817,13.201c0.003-0.005,0.004-0.01,0.007-0.015c1.197,0.074,2.398-0.222,3.386-0.901c1.08-0.743,2.4-1.148,3.811-1.061
					C140.8,355.647,143.497,358.983,142.827,362.674z"/>
				<path style="fill:#D67647;" d="M47.105,414.772c0,0-5.309-36.086-3.62-46.406c1.69-10.319,25.617-42.24,33.359-40.038
					c7.742,2.203-15.125,33.363-15.125,33.363s13.835,7.674,13.982,23.904c0,0,9.127-5.16,11.335-11.031
					c0,0-2.42-15.667,0.041-21.186c2.462-5.518,9.286,11.806,9.666,20.905c0.379,9.1-21.115,35.075-21.115,35.075l-27.614,5.563"/>
				<path style="fill:#D67647;" d="M58.381,364.42c6.092-11.58,14.918-21.711,25.554-29.332c0.996-0.714,2.265-1.434,3.376-0.916
					c1.748,0.817,1.087,3.44,0.14,5.121c-7.161,12.702-15.704,24.623-25.432,35.485"/>
				<path style="fill:#D67647;" d="M43.28,374.557c-2.871-12.766-2.721-26.201,0.435-38.9c0.296-1.189,0.794-2.561,1.976-2.886
					c1.861-0.512,3.058,1.913,3.426,3.808c2.786,14.312,4.01,28.928,3.647,43.505"/>
				<g>
					<path style="fill:#3C1319;" d="M72.222,397.667c-0.087-0.097-0.141-0.224-0.149-0.363
						c-0.85-19.314-15.847-22.873-15.998-22.906c-0.314-0.068-0.512-0.382-0.443-0.699c0.07-0.316,0.383-0.515,0.699-0.444
						c0.159,0.038,16.025,3.804,16.912,23.997c0.014,0.324-0.237,0.597-0.559,0.611C72.503,397.87,72.335,397.794,72.222,397.667z"
						/>
				</g>
				<g>
					<path style="fill:#3C1319;" d="M56.699,369.534c-0.17-0.19-0.202-0.475-0.06-0.7l15.375-24.477
						c0.172-0.274,0.533-0.356,0.808-0.185c0.273,0.173,0.357,0.534,0.184,0.807l-15.375,24.476
						c-0.172,0.274-0.533,0.356-0.808,0.186C56.777,369.611,56.735,369.574,56.699,369.534z"/>
				</g>
				<g>
					<path style="fill:#3C1319;" d="M49.217,373.372c-0.033-0.037-0.061-0.078-0.084-0.123c-0.149-0.287-0.035-0.64,0.253-0.787
						c0.555-0.283,13.629-6.907,18.7-4.997c0.302,0.11,0.458,0.448,0.343,0.753c-0.114,0.303-0.451,0.455-0.753,0.341
						c-4.594-1.727-17.626,4.878-17.756,4.945C49.678,373.628,49.39,373.566,49.217,373.372z"/>
				</g>
				<g>
					<path style="fill:#3C1319;" d="M51.01,372.282c-0.106-0.119-0.164-0.282-0.145-0.453c0.928-8.441-0.453-19.431-0.468-19.542
						c-0.041-0.32,0.187-0.614,0.507-0.654c0.319-0.041,0.613,0.182,0.655,0.507c0.015,0.111,1.414,11.24,0.469,19.818
						c-0.035,0.32-0.325,0.553-0.646,0.517C51.233,372.458,51.103,372.387,51.01,372.282z"/>
				</g>
			</g>
			<path style="fill:#D67647;" d="M228.293,516.803c0,0-28.512-20.517-68.646-11.836s-47.816,7.322-47.816,7.322
				s-20.602-66.567-34.431-107.301l-31.753-1.109c0,0-3.335,78.823,11.154,129.352c14.489,50.529,105.874,51.304,105.874,51.304
				l28.097-8.629L228.293,516.803z"/>
		</g>
	</g>
</g>
</svg>
