<?xml version="1.0" encoding="UTF-8"?>
<!DOCTYPE svg PUBLIC "-//W3C//DTD SVG 1.1//EN" "http://www.w3.org/Graphics/SVG/1.1/DTD/svg11.dtd">
<svg xmlns="http://www.w3.org/2000/svg" version="1.1" width="1200px" height="1018px" style="shape-rendering:geometricPrecision; text-rendering:geometricPrecision; image-rendering:optimizeQuality; fill-rule:evenodd; clip-rule:evenodd" xmlns:xlink="http://www.w3.org/1999/xlink">
<g><path style="opacity:0.997" fill="#fedc4a" d="M 988.5,301.5 C 988.44,302.043 988.107,302.376 987.5,302.5C 983.511,301.893 979.511,301.227 975.5,300.5C 961.872,280.679 943.538,274.512 920.5,282C 912.986,285.752 906.653,290.919 901.5,297.5C 885.634,295.182 873.468,300.849 865,314.5C 862.91,318.599 861.744,322.933 861.5,327.5C 847.147,329.695 840.981,338.028 843,352.5C 844.722,360.556 849.556,365.723 857.5,368C 908.668,368.167 959.668,368.667 1010.5,369.5C 1041.07,510.672 1013.07,638.672 926.5,753.5C 925.833,753.5 925.5,753.833 925.5,754.5C 924.833,754.5 924.5,754.833 924.5,755.5C 923.833,755.5 923.5,755.833 923.5,756.5C 923.167,757.167 922.833,757.833 922.5,758.5C 921.833,758.5 921.5,758.833 921.5,759.5C 920.833,759.5 920.5,759.833 920.5,760.5C 919.599,761.29 918.932,762.29 918.5,763.5C 917.833,763.5 917.5,763.833 917.5,764.5C 897.072,766.643 878.072,772.976 860.5,783.5C 865.993,764.343 873.993,746.343 884.5,729.5C 898.527,729.977 904.693,723.31 903,709.5C 896.008,699.336 887.674,698.002 878,705.5C 873.31,711.999 873.476,718.333 878.5,724.5C 868.573,740.626 860.573,757.626 854.5,775.5C 852.703,774.27 850.703,773.604 848.5,773.5C 847.781,765.131 846.781,756.798 845.5,748.5C 848.203,744.56 849.036,740.227 848,735.5C 846.549,733.536 844.716,732.203 842.5,731.5C 842.073,727.176 841.739,722.842 841.5,718.5C 849.581,717.053 857.248,714.22 864.5,710C 871.615,699.786 869.115,693.286 857,690.5C 850.255,692.289 844.089,695.289 838.5,699.5C 837.927,693.489 837.26,687.489 836.5,681.5C 847.365,680.495 858.365,679.328 869.5,678C 875.947,676.861 881.447,674.028 886,669.5C 888.795,660.099 885.295,654.765 875.5,653.5C 869.43,654.532 863.763,656.699 858.5,660C 852.654,664.564 846.654,668.564 840.5,672C 846.084,661.493 852.417,651.493 859.5,642C 871.5,641.667 883.5,641.333 895.5,641C 905.659,639.162 908.826,633.662 905,624.5C 904.097,623.299 902.931,622.465 901.5,622C 897.5,621.333 893.5,621.333 889.5,622C 881.143,625.261 873.31,629.427 866,634.5C 873.454,623.722 882.954,614.888 894.5,608C 897.859,605.966 898.192,603.632 895.5,601C 893.5,600.333 891.5,600.333 889.5,601C 878.72,608.779 868.887,617.613 860,627.5C 860.312,618.847 860.312,610.18 860,601.5C 859.197,598.756 858.197,596.089 857,593.5C 855.871,591.859 854.371,590.859 852.5,590.5C 878.167,589.833 903.833,589.167 929.5,588.5C 941.92,584.887 947.42,576.554 946,563.5C 943.216,554.884 937.382,549.551 928.5,547.5C 934.292,514.577 921.292,493.077 889.5,483C 866.647,479.348 848.48,486.848 835,505.5C 827.684,501.546 819.851,499.546 811.5,499.5C 808.591,478.474 805.591,457.474 802.5,436.5C 821.283,408.647 818.117,383.647 793,361.5C 792.79,359.942 792.29,358.609 791.5,357.5C 790.447,346.132 789.114,334.799 787.5,323.5C 766.833,323.5 746.167,323.5 725.5,323.5C 727.711,318.61 730.378,313.944 733.5,309.5C 729.805,306.638 725.971,303.972 722,301.5C 721.672,298.793 722.005,296.126 723,293.5C 727.858,291.586 733.025,290.919 738.5,291.5C 738.5,285.5 738.5,279.5 738.5,273.5C 736.265,273.795 734.265,273.461 732.5,272.5C 744.203,259.886 749.036,244.886 747,227.5C 745.728,221.63 743.895,215.964 741.5,210.5C 763.899,210.968 786.233,210.468 808.5,209C 815.971,202.264 816.304,195.264 809.5,188C 806.392,186.241 803.059,185.408 799.5,185.5C 797.379,174.729 790.712,169.396 779.5,169.5C 772.502,159.339 762.836,155.172 750.5,157C 745.523,158.497 741.19,160.997 737.5,164.5C 737.5,160.5 737.5,156.5 737.5,152.5C 734.223,152.784 731.057,152.451 728,151.5C 727.319,149.471 726.986,147.471 727,145.5C 729.589,143.789 732.089,141.955 734.5,140C 732.941,136.369 730.774,133.203 728,130.5C 725.194,131.57 722.527,132.903 720,134.5C 718.315,132.983 716.815,131.316 715.5,129.5C 716.833,126.833 718.167,124.167 719.5,121.5C 716.57,119.119 713.403,117.119 710,115.5C 707.836,117.29 706.002,119.456 704.5,122C 702.5,122.667 700.5,122.667 698.5,122C 697.544,118.606 697.211,115.106 697.5,111.5C 693.167,111.5 688.833,111.5 684.5,111.5C 684.789,115.106 684.456,118.606 683.5,122C 681.421,122.808 679.421,122.641 677.5,121.5C 675.877,119.209 674.043,117.209 672,115.5C 668.597,117.119 665.43,119.119 662.5,121.5C 663.833,124.167 665.167,126.833 666.5,129.5C 665.807,130.518 665.141,131.518 664.5,132.5C 631.32,118.696 600.32,122.363 571.5,143.5C 561.193,136.014 549.86,130.68 537.5,127.5C 540.335,125.164 543.002,122.664 545.5,120C 542.634,114.436 539.634,108.936 536.5,103.5C 535.635,102.417 534.635,102.251 533.5,103C 529.061,105.303 524.561,107.47 520,109.5C 516.02,107.549 513.686,104.549 513,100.5C 514.893,95.7133 517.06,91.0466 519.5,86.5C 513.5,82.8333 507.5,79.1667 501.5,75.5C 497.974,79.8591 494.641,84.3591 491.5,89C 487.754,89.2557 484.087,88.7557 480.5,87.5C 480.64,81.4638 480.307,75.4638 479.5,69.5C 472.167,69.5 464.833,69.5 457.5,69.5C 457.034,75.491 456.701,81.491 456.5,87.5C 452.837,88.3406 449.17,88.8406 445.5,89C 442.521,84.1945 439.187,79.6945 435.5,75.5C 430.332,78.9185 424.998,82.0852 419.5,85C 420.042,90.9486 422.042,96.6153 425.5,102C 422.984,104.683 420.317,107.183 417.5,109.5C 412.169,106.99 406.836,104.824 401.5,103C 397.752,108.417 394.419,114.083 391.5,120C 395.694,123.857 400.194,127.357 405,130.5C 404.377,133.741 403.71,137.074 403,140.5C 397.259,141.475 391.425,141.808 385.5,141.5C 385.5,149.167 385.5,156.833 385.5,164.5C 391.425,164.192 397.259,164.525 403,165.5C 404.321,168.77 404.987,172.103 405,175.5C 400.378,178.888 395.878,182.388 391.5,186C 394.419,191.917 397.752,197.583 401.5,203C 404.353,202.883 407.02,202.05 409.5,200.5C 400.843,210.133 396.509,221.466 396.5,234.5C 396.737,235.791 396.404,236.791 395.5,237.5C 368.062,225.443 345.062,231.11 326.5,254.5C 299.584,243.526 279.418,250.859 266,276.5C 263.943,283.321 262.943,290.321 263,297.5C 247.631,303.583 243.297,314.249 250,329.5C 252.989,333.491 256.822,336.324 261.5,338C 292.165,338.5 322.832,338.667 353.5,338.5C 353.5,339.833 353.5,341.167 353.5,342.5C 352.886,346.135 352.552,349.802 352.5,353.5C 351.835,355.369 351.169,357.369 350.5,359.5C 324.719,378.362 319.219,402.029 334,430.5C 336.41,433.397 338.577,436.397 340.5,439.5C 331.702,501.09 323.368,562.756 315.5,624.5C 313.613,628.967 311.78,633.633 310,638.5C 308.84,643.434 308.34,648.434 308.5,653.5C 307.833,658.5 307.167,663.5 306.5,668.5C 301.112,656.724 294.445,645.724 286.5,635.5C 291.547,626.074 296.047,616.407 300,606.5C 303.209,595.068 299.042,589.568 287.5,590C 281.195,595.581 278.862,602.581 280.5,611C 280.842,616.857 281.009,622.69 281,628.5C 271.995,616.823 261.162,607.323 248.5,600C 244.023,599.835 242.523,602.002 244,606.5C 255.4,613.899 265.566,622.732 274.5,633C 268.19,630.349 261.856,627.349 255.5,624C 251.442,622.444 247.275,621.277 243,620.5C 232.205,624.391 230.705,630.557 238.5,639C 240.087,639.862 241.754,640.529 243.5,641C 256.18,641.167 268.846,641.667 281.5,642.5C 288.673,651.863 294.506,661.863 299,672.5C 291.775,666.943 284.275,661.776 276.5,657C 268.094,651.569 260.594,652.403 254,659.5C 252.392,668.761 256.225,674.595 265.5,677C 278.376,679.527 291.376,681.027 304.5,681.5C 305.747,683.323 306.414,685.323 306.5,687.5C 305.841,690.455 305.508,693.455 305.5,696.5C 304.698,697.952 304.198,699.618 304,701.5C 297.908,696.07 290.908,692.403 283,690.5C 274.456,692.041 271.123,697.041 273,705.5C 276.794,710.95 281.961,714.45 288.5,716C 292.754,717.314 297.087,718.147 301.5,718.5C 301.5,720.167 301.5,721.833 301.5,723.5C 301.5,724.833 301.5,726.167 301.5,727.5C 300.596,728.209 300.263,729.209 300.5,730.5C 293.668,732.155 290.834,736.488 292,743.5C 293.666,745.996 295.5,748.329 297.5,750.5C 296.703,757.82 296.036,765.153 295.5,772.5C 291.779,772.369 288.446,773.369 285.5,775.5C 279.717,757.604 272.05,740.604 262.5,724.5C 268.473,713.629 265.806,705.796 254.5,701C 240.163,700.673 234.663,707.506 238,721.5C 241.979,728.071 247.812,730.737 255.5,729.5C 264.159,742.488 270.993,756.488 276,771.5C 277.647,775.422 278.647,779.422 279,783.5C 262.87,774.291 245.704,767.957 227.5,764.5C 176.055,703.592 143.388,633.592 129.5,554.5C 174.835,554.667 220.168,554.5 265.5,554C 278.383,549.78 283.883,540.947 282,527.5C 278.795,519.463 272.961,514.463 264.5,512.5C 270.292,479.578 257.292,458.078 225.5,448C 202.687,444.247 184.687,451.747 171.5,470.5C 159.205,463.697 146.538,462.864 133.5,468C 129.606,470.446 125.606,472.612 121.5,474.5C 125.004,334.014 179.67,218.18 285.5,127C 399.615,36.9753 528.281,6.3086 671.5,35C 804.089,67.83 903.589,143.663 970,262.5C 976.726,275.284 982.893,288.284 988.5,301.5 Z"/></g>
<g><path style="opacity:1" fill="#fffefd" d="M 537.5,127.5 C 513.757,121.516 491.424,124.849 470.5,137.5C 464.198,135.878 459.031,137.878 455,143.5C 453.833,145.833 452.667,148.167 451.5,150.5C 451.624,151.107 451.957,151.44 452.5,151.5C 443.489,161.507 436.489,172.841 431.5,185.5C 423.073,188.932 415.74,193.932 409.5,200.5C 407.02,202.05 404.353,202.883 401.5,203C 397.752,197.583 394.419,191.917 391.5,186C 395.878,182.388 400.378,178.888 405,175.5C 404.987,172.103 404.321,168.77 403,165.5C 397.259,164.525 391.425,164.192 385.5,164.5C 385.5,156.833 385.5,149.167 385.5,141.5C 391.425,141.808 397.259,141.475 403,140.5C 403.71,137.074 404.377,133.741 405,130.5C 400.194,127.357 395.694,123.857 391.5,120C 394.419,114.083 397.752,108.417 401.5,103C 406.836,104.824 412.169,106.99 417.5,109.5C 420.317,107.183 422.984,104.683 425.5,102C 422.042,96.6153 420.042,90.9486 419.5,85C 424.998,82.0852 430.332,78.9185 435.5,75.5C 439.187,79.6945 442.521,84.1945 445.5,89C 449.17,88.8406 452.837,88.3406 456.5,87.5C 456.701,81.491 457.034,75.491 457.5,69.5C 464.833,69.5 472.167,69.5 479.5,69.5C 480.307,75.4638 480.64,81.4638 480.5,87.5C 484.087,88.7557 487.754,89.2557 491.5,89C 494.641,84.3591 497.974,79.8591 501.5,75.5C 507.5,79.1667 513.5,82.8333 519.5,86.5C 517.06,91.0466 514.893,95.7133 513,100.5C 513.686,104.549 516.02,107.549 520,109.5C 524.561,107.47 529.061,105.303 533.5,103C 534.635,102.251 535.635,102.417 536.5,103.5C 539.634,108.936 542.634,114.436 545.5,120C 543.002,122.664 540.335,125.164 537.5,127.5 Z"/></g>
<g><path style="opacity:1" fill="#fffefd" d="M 737.5,164.5 C 741.19,160.997 745.523,158.497 750.5,157C 762.836,155.172 772.502,159.339 779.5,169.5C 790.712,169.396 797.379,174.729 799.5,185.5C 803.059,185.408 806.392,186.241 809.5,188C 816.304,195.264 815.971,202.264 808.5,209C 786.233,210.468 763.899,210.968 741.5,210.5C 734.178,198.326 723.845,189.659 710.5,184.5C 707.334,176.835 703.667,169.501 699.5,162.5C 701.311,153.639 697.644,149.306 688.5,149.5C 681.032,143.024 673.032,137.357 664.5,132.5C 665.141,131.518 665.807,130.518 666.5,129.5C 665.167,126.833 663.833,124.167 662.5,121.5C 665.43,119.119 668.597,117.119 672,115.5C 674.043,117.209 675.877,119.209 677.5,121.5C 679.421,122.641 681.421,122.808 683.5,122C 684.456,118.606 684.789,115.106 684.5,111.5C 688.833,111.5 693.167,111.5 697.5,111.5C 697.211,115.106 697.544,118.606 698.5,122C 700.5,122.667 702.5,122.667 704.5,122C 706.002,119.456 707.836,117.29 710,115.5C 713.403,117.119 716.57,119.119 719.5,121.5C 718.167,124.167 716.833,126.833 715.5,129.5C 716.815,131.316 718.315,132.983 720,134.5C 722.527,132.903 725.194,131.57 728,130.5C 730.774,133.203 732.941,136.369 734.5,140C 732.089,141.955 729.589,143.789 727,145.5C 726.986,147.471 727.319,149.471 728,151.5C 731.057,152.451 734.223,152.784 737.5,152.5C 737.5,156.5 737.5,160.5 737.5,164.5 Z"/></g>
<g><path style="opacity:1" fill="#fea1cc" d="M 537.5,127.5 C 549.86,130.68 561.193,136.014 571.5,143.5C 600.32,122.363 631.32,118.696 664.5,132.5C 673.032,137.357 681.032,143.024 688.5,149.5C 691.939,154.059 695.606,158.392 699.5,162.5C 703.667,169.501 707.334,176.835 710.5,184.5C 723.845,189.659 734.178,198.326 741.5,210.5C 743.895,215.964 745.728,221.63 747,227.5C 749.036,244.886 744.203,259.886 732.5,272.5C 729.5,272.5 726.5,272.5 723.5,272.5C 723.065,269.404 722.565,266.404 722,263.5C 725.922,260.789 729.756,257.955 733.5,255C 730.696,249.881 727.529,245.047 724,240.5C 719.669,242.218 715.503,244.218 711.5,246.5C 707.655,244.535 705.821,241.535 706,237.5C 707.636,234.394 709.136,231.227 710.5,228C 706.575,223.937 701.908,220.77 696.5,218.5C 693.364,221.429 690.697,224.762 688.5,228.5C 685.549,229.224 682.549,229.057 679.5,228C 678.833,223 678.167,218 677.5,213C 671.509,212.501 665.509,212.334 659.5,212.5C 659.528,217.862 659.194,223.195 658.5,228.5C 655.475,228.877 652.475,229.044 649.5,229C 647.35,224.86 644.517,221.36 641,218.5C 635.936,220.948 631.103,223.782 626.5,227C 628.948,231.367 630.782,235.867 632,240.5C 629.982,242.35 628.149,244.35 626.5,246.5C 622.394,244.364 618.228,242.364 614,240.5C 610.467,245.045 607.3,249.878 604.5,255C 608.244,257.955 612.078,260.789 616,263.5C 615.684,266.454 615.184,269.454 614.5,272.5C 609.463,272.413 604.463,272.746 599.5,273.5C 599.5,279.5 599.5,285.5 599.5,291.5C 604.575,291.593 609.575,292.259 614.5,293.5C 615.106,295.709 615.773,297.876 616.5,300C 616.272,300.399 615.938,300.565 615.5,300.5C 598.996,298.912 584.329,292.912 571.5,282.5C 548.993,299.112 523.993,304.779 496.5,299.5C 501.356,285.517 496.356,278.684 481.5,279C 479.023,280.643 476.69,282.476 474.5,284.5C 470.746,276.934 464.746,274.434 456.5,277C 451.433,279.635 448.766,283.801 448.5,289.5C 439.159,289.608 430.493,287.274 422.5,282.5C 418.524,279.531 414.524,276.531 410.5,273.5C 412.208,271.784 413.542,269.784 414.5,267.5C 418.962,271.446 423.462,271.446 428,267.5C 431.911,261.63 431.077,256.63 425.5,252.5C 430.253,249.427 431.753,245.094 430,239.5C 425.449,233.768 420.282,233.102 414.5,237.5C 409.803,229.327 403.803,228.327 396.5,234.5C 396.509,221.466 400.843,210.133 409.5,200.5C 415.74,193.932 423.073,188.932 431.5,185.5C 436.489,172.841 443.489,161.507 452.5,151.5C 457.776,145.867 463.776,141.2 470.5,137.5C 491.424,124.849 513.757,121.516 537.5,127.5 Z"/></g>
<g><path style="opacity:1" fill="#fd468d" d="M 637.5,135.5 C 643.804,134.652 648.471,136.985 651.5,142.5C 662.511,138.086 667.345,141.752 666,153.5C 665.215,155.286 664.049,156.786 662.5,158C 668.291,164.457 667.625,170.124 660.5,175C 657.084,175.893 653.917,175.393 651,173.5C 647.96,179.603 643.126,181.769 636.5,180C 631.973,176.969 630.64,172.969 632.5,168C 624.2,166.573 621.034,161.74 623,153.5C 625.169,149.81 628.336,148.143 632.5,148.5C 632.336,145.813 632.503,143.146 633,140.5C 634.707,138.963 636.207,137.296 637.5,135.5 Z"/></g>
<g><path style="opacity:1" fill="#ffdb4b" d="M 470.5,137.5 C 463.776,141.2 457.776,145.867 452.5,151.5C 451.957,151.44 451.624,151.107 451.5,150.5C 452.667,148.167 453.833,145.833 455,143.5C 459.031,137.878 464.198,135.878 470.5,137.5 Z"/></g>
<g><path style="opacity:1" fill="#fff9fb" d="M 642.5,148.5 C 653.609,149.079 657.109,154.413 653,164.5C 646.891,169.055 641.558,168.388 637,162.5C 635.025,156.177 636.858,151.51 642.5,148.5 Z"/></g>
<g><path style="opacity:1" fill="#ffdc4a" d="M 688.5,149.5 C 697.644,149.306 701.311,153.639 699.5,162.5C 695.606,158.392 691.939,154.059 688.5,149.5 Z"/></g>
<g><path style="opacity:1" fill="#4b2e89" d="M 577.5,148.5 C 583.526,148.183 585.86,150.849 584.5,156.5C 585.48,157.981 586.647,159.315 588,160.5C 589.167,165.835 587,168.169 581.5,167.5C 581.597,171.642 579.597,173.976 575.5,174.5C 571.928,171.464 568.095,168.797 564,166.5C 563.014,163.258 563.848,160.592 566.5,158.5C 564.969,150.54 567.802,148.54 575,152.5C 575.662,151.016 576.496,149.683 577.5,148.5 Z"/></g>
<g><path style="opacity:1" fill="#f0eef5" d="M 572.5,155.5 C 579.745,155.555 581.745,158.722 578.5,165C 570.424,165.805 568.424,162.638 572.5,155.5 Z"/></g>
<g><path style="opacity:1" fill="#ffda46" d="M 737.5,164.5 C 737.047,165.458 736.381,166.292 735.5,167C 732.773,167.818 730.106,167.652 727.5,166.5C 730.821,165.67 734.154,165.003 737.5,164.5 Z"/></g>
<g><path style="opacity:1" fill="#ffdc4b" d="M 483.5,180.5 C 491.059,179.73 494.726,183.063 494.5,190.5C 503.556,190.043 506.723,194.043 504,202.5C 502.414,203.376 500.914,204.376 499.5,205.5C 500.359,214.7 496.359,218.533 487.5,217C 485.981,215.649 484.648,214.149 483.5,212.5C 480.722,215.307 477.389,216.14 473.5,215C 468.687,210.959 468.354,206.625 472.5,202C 468.139,199.774 466.639,196.274 468,191.5C 470.9,187.884 474.734,186.551 479.5,187.5C 479.961,184.697 481.295,182.363 483.5,180.5 Z"/></g>
<g><path style="opacity:1" fill="#fd468d" d="M 481.5,191.5 C 485.839,190.846 489.673,191.846 493,194.5C 495.506,199.62 494.339,203.786 489.5,207C 480.833,208.663 477,205.163 478,196.5C 478.997,194.677 480.164,193.01 481.5,191.5 Z"/></g>
<g><path style="opacity:1" fill="#fffcfd" d="M 560.5,198.5 C 563.5,198.5 566.5,198.5 569.5,198.5C 569.981,206.583 572.314,207.25 576.5,200.5C 579.133,201.3 581.133,202.8 582.5,205C 579.661,208.074 579.994,210.574 583.5,212.5C 588.14,209.215 591.14,210.382 592.5,216C 585.621,220.416 586.287,222.916 594.5,223.5C 594.5,226.167 594.5,228.833 594.5,231.5C 592.208,231.244 590.041,231.577 588,232.5C 587.333,233.833 587.333,235.167 588,236.5C 593.252,239.142 593.252,242.142 588,245.5C 581.5,242.667 579.667,244.5 582.5,251C 579.277,256.045 576.277,256.212 573.5,251.5C 572.277,250.386 570.944,250.219 569.5,251C 568.577,253.041 568.244,255.208 568.5,257.5C 565.833,257.5 563.167,257.5 560.5,257.5C 559.916,249.287 557.416,248.621 553,255.5C 551.581,254.54 550.081,253.707 548.5,253C 547.941,252.275 547.608,251.442 547.5,250.5C 550.432,247.661 550.099,245.327 546.5,243.5C 541.577,246.853 538.577,245.52 537.5,239.5C 544.527,234.916 543.861,232.583 535.5,232.5C 535.5,229.5 535.5,226.5 535.5,223.5C 538.604,224.029 540.937,223.029 542.5,220.5C 540.64,219.061 538.973,217.395 537.5,215.5C 538.556,213.354 540.056,211.688 542,210.5C 545.074,213.339 547.574,213.006 549.5,209.5C 546.287,205.139 547.287,202.139 552.5,200.5C 554.361,201.528 555.695,203.028 556.5,205C 557.549,205.492 558.549,205.326 559.5,204.5C 560.466,202.604 560.799,200.604 560.5,198.5 Z"/></g>
<g><path style="opacity:1" fill="#ffdd4b" d="M 710.5,192.5 C 713.808,191.974 715.974,193.307 717,196.5C 722.188,195.02 724.188,197.02 723,202.5C 721.354,203.941 721.187,205.608 722.5,207.5C 721.092,211.463 718.425,212.463 714.5,210.5C 709.234,214.053 706.401,212.719 706,206.5C 704.437,205.275 703.27,203.775 702.5,202C 705.364,198.972 708.031,195.805 710.5,192.5 Z"/></g>
<g><path style="opacity:1" fill="#fd498d" d="M 711.5,198.5 C 717.488,198.664 718.821,201.164 715.5,206C 709.403,206.147 708.07,203.647 711.5,198.5 Z"/></g>
<g><path style="opacity:1" fill="#ffa0cb" d="M 559.5,213.5 C 568.264,211.802 574.764,214.802 579,222.5C 580.5,237 574,243.5 559.5,242C 549.811,235.641 547.977,227.474 554,217.5C 556.015,216.303 557.849,214.97 559.5,213.5 Z"/></g>
<g><path style="opacity:1" fill="#fefefe" d="M 732.5,272.5 C 734.265,273.461 736.265,273.795 738.5,273.5C 738.5,279.5 738.5,285.5 738.5,291.5C 733.025,290.919 727.858,291.586 723,293.5C 722.005,296.126 721.672,298.793 722,301.5C 725.971,303.972 729.805,306.638 733.5,309.5C 730.378,313.944 727.711,318.61 725.5,323.5C 723.833,323.5 722.167,323.5 720.5,323.5C 717.724,321.608 714.724,319.941 711.5,318.5C 709.479,319.855 707.812,321.521 706.5,323.5C 681.5,323.5 656.5,323.5 631.5,323.5C 630.188,321.521 628.521,319.855 626.5,318.5C 622.827,319.67 619.493,321.337 616.5,323.5C 615.167,323.5 613.833,323.5 612.5,323.5C 609.845,318.861 607.179,314.194 604.5,309.5C 608.545,306.772 612.212,303.772 615.5,300.5C 615.938,300.565 616.272,300.399 616.5,300C 615.773,297.876 615.106,295.709 614.5,293.5C 609.575,292.259 604.575,291.593 599.5,291.5C 599.5,285.5 599.5,279.5 599.5,273.5C 604.463,272.746 609.463,272.413 614.5,272.5C 615.184,269.454 615.684,266.454 616,263.5C 612.078,260.789 608.244,257.955 604.5,255C 607.3,249.878 610.467,245.045 614,240.5C 618.228,242.364 622.394,244.364 626.5,246.5C 628.149,244.35 629.982,242.35 632,240.5C 630.782,235.867 628.948,231.367 626.5,227C 631.103,223.782 635.936,220.948 641,218.5C 644.517,221.36 647.35,224.86 649.5,229C 652.475,229.044 655.475,228.877 658.5,228.5C 659.194,223.195 659.528,217.862 659.5,212.5C 665.509,212.334 671.509,212.501 677.5,213C 678.167,218 678.833,223 679.5,228C 682.549,229.057 685.549,229.224 688.5,228.5C 690.697,224.762 693.364,221.429 696.5,218.5C 701.908,220.77 706.575,223.937 710.5,228C 709.136,231.227 707.636,234.394 706,237.5C 705.821,241.535 707.655,244.535 711.5,246.5C 715.503,244.218 719.669,242.218 724,240.5C 727.529,245.047 730.696,249.881 733.5,255C 729.756,257.955 725.922,260.789 722,263.5C 722.565,266.404 723.065,269.404 723.5,272.5C 726.5,272.5 729.5,272.5 732.5,272.5 Z"/></g>
<g><path style="opacity:1" fill="#fefefe" d="M 395.5,237.5 C 395.357,239.262 395.691,240.929 396.5,242.5C 388.116,243.596 384.95,248.263 387,256.5C 389.071,260.125 392.238,262.125 396.5,262.5C 394.318,269.802 396.985,274.135 404.5,275.5C 406.714,275.389 408.714,274.722 410.5,273.5C 414.524,276.531 418.524,279.531 422.5,282.5C 421.623,286.322 420.956,290.322 420.5,294.5C 420.833,295.5 421.167,296.5 421.5,297.5C 433.94,301.703 439.274,310.37 437.5,323.5C 434.833,323.5 432.167,323.5 429.5,323.5C 404.833,323.5 380.167,323.5 355.5,323.5C 355.303,330.026 354.636,336.359 353.5,342.5C 353.5,341.167 353.5,339.833 353.5,338.5C 322.832,338.667 292.165,338.5 261.5,338C 256.822,336.324 252.989,333.491 250,329.5C 243.297,314.249 247.631,303.583 263,297.5C 262.943,290.321 263.943,283.321 266,276.5C 279.418,250.859 299.584,243.526 326.5,254.5C 345.062,231.11 368.062,225.443 395.5,237.5 Z"/></g>
<g><path style="opacity:1" fill="#fd468d" d="M 410.5,273.5 C 408.714,274.722 406.714,275.389 404.5,275.5C 396.985,274.135 394.318,269.802 396.5,262.5C 392.238,262.125 389.071,260.125 387,256.5C 384.95,248.263 388.116,243.596 396.5,242.5C 395.691,240.929 395.357,239.262 395.5,237.5C 396.404,236.791 396.737,235.791 396.5,234.5C 403.803,228.327 409.803,229.327 414.5,237.5C 420.282,233.102 425.449,233.768 430,239.5C 431.753,245.094 430.253,249.427 425.5,252.5C 431.077,256.63 431.911,261.63 428,267.5C 423.462,271.446 418.962,271.446 414.5,267.5C 413.542,269.784 412.208,271.784 410.5,273.5 Z"/></g>
<g><path style="opacity:1" fill="#fffafc" d="M 405.5,243.5 C 414.036,243.2 417.87,247.2 417,255.5C 415.471,258.934 412.804,260.6 409,260.5C 401.875,259.602 399.208,255.602 401,248.5C 402.707,246.963 404.207,245.296 405.5,243.5 Z"/></g>
<g><path style="opacity:1" fill="#472c87" d="M 506.5,247.5 C 510.155,247.472 512.822,249.139 514.5,252.5C 521.45,249.954 524.283,252.287 523,259.5C 520.699,260.676 520.366,262.01 522,263.5C 523.796,271.206 520.963,273.872 513.5,271.5C 506.086,277.952 502.086,276.286 501.5,266.5C 498.15,266.349 496.484,264.515 496.5,261C 497.075,257.59 499.075,255.757 502.5,255.5C 501.774,251.693 503.107,249.026 506.5,247.5 Z"/></g>
<g><path style="opacity:1" fill="#f9f8fb" d="M 507.5,255.5 C 514.665,254.497 517.498,257.497 516,264.5C 512.333,268.5 508.667,268.5 505,264.5C 503.927,260.9 504.76,257.9 507.5,255.5 Z"/></g>
<g><path style="opacity:1" fill="#ffa0cc" d="M 681.5,287.5 C 679.131,287.149 676.797,286.982 674.5,287C 670.604,289.775 666.604,292.275 662.5,294.5C 655.885,290.292 653.719,284.292 656,276.5C 662.76,267.093 670.593,266.093 679.5,273.5C 682.572,277.814 683.239,282.481 681.5,287.5 Z"/></g>
<g><path style="opacity:1" fill="#fd458c" d="M 496.5,299.5 C 495.188,300.145 494.188,301.145 493.5,302.5C 501.605,307.35 503.605,314.017 499.5,322.5C 484.578,323.483 469.578,323.816 454.5,323.5C 441.261,322.366 436.428,315.366 440,302.5C 442.593,298.788 446.093,296.455 450.5,295.5C 449.628,293.55 448.961,291.55 448.5,289.5C 448.766,283.801 451.433,279.635 456.5,277C 464.746,274.434 470.746,276.934 474.5,284.5C 476.69,282.476 479.023,280.643 481.5,279C 496.356,278.684 501.356,285.517 496.5,299.5 Z"/></g>
<g><path style="opacity:0.995" fill="#fffefe" d="M 988.5,301.5 C 1000.91,305.33 1007.91,313.664 1009.5,326.5C 1020.51,325.919 1028.34,330.586 1033,340.5C 1035.8,358.194 1028.3,367.861 1010.5,369.5C 959.668,368.667 908.668,368.167 857.5,368C 849.556,365.723 844.722,360.556 843,352.5C 840.981,338.028 847.147,329.695 861.5,327.5C 861.744,322.933 862.91,318.599 865,314.5C 873.468,300.849 885.634,295.182 901.5,297.5C 906.653,290.919 912.986,285.752 920.5,282C 943.538,274.512 961.872,280.679 975.5,300.5C 979.511,301.227 983.511,301.893 987.5,302.5C 988.107,302.376 988.44,302.043 988.5,301.5 Z"/></g>
<g><path style="opacity:1" fill="#fedc4b" d="M 422.5,282.5 C 430.493,287.274 439.159,289.608 448.5,289.5C 448.961,291.55 449.628,293.55 450.5,295.5C 446.093,296.455 442.593,298.788 440,302.5C 436.428,315.366 441.261,322.366 454.5,323.5C 448.833,323.5 443.167,323.5 437.5,323.5C 439.274,310.37 433.94,301.703 421.5,297.5C 421.167,296.5 420.833,295.5 420.5,294.5C 420.956,290.322 421.623,286.322 422.5,282.5 Z"/></g>
<g><path style="opacity:1" fill="#fedb4a" d="M 615.5,300.5 C 612.212,303.772 608.545,306.772 604.5,309.5C 607.179,314.194 609.845,318.861 612.5,323.5C 574.663,323.832 536.996,323.498 499.5,322.5C 503.605,314.017 501.605,307.35 493.5,302.5C 494.188,301.145 495.188,300.145 496.5,299.5C 523.993,304.779 548.993,299.112 571.5,282.5C 584.329,292.912 598.996,298.912 615.5,300.5 Z"/></g>
<g><path style="opacity:1" fill="#ffdb4e" d="M 681.5,287.5 C 677.183,295.603 670.85,297.937 662.5,294.5C 666.604,292.275 670.604,289.775 674.5,287C 676.797,286.982 679.131,287.149 681.5,287.5 Z"/></g>
<g><path style="opacity:1" fill="#fffbfc" d="M 465.5,291.5 C 481.024,291.594 486.524,298.927 482,313.5C 474.266,322.277 466.266,322.61 458,314.5C 452.742,304.166 455.242,296.499 465.5,291.5 Z"/></g>
<g><path style="opacity:1" fill="#fbd852" d="M 631.5,323.5 C 626.5,323.5 621.5,323.5 616.5,323.5C 619.493,321.337 622.827,319.67 626.5,318.5C 628.521,319.855 630.188,321.521 631.5,323.5 Z"/></g>
<g><path style="opacity:1" fill="#fbd94a" d="M 720.5,323.5 C 717.167,323.5 713.833,323.5 710.5,323.5C 709.167,323.5 707.833,323.5 706.5,323.5C 707.812,321.521 709.479,319.855 711.5,318.5C 714.724,319.941 717.724,321.608 720.5,323.5 Z"/></g>
<g><path style="opacity:1" fill="#feb5af" d="M 499.5,322.5 C 536.996,323.498 574.663,323.832 612.5,323.5C 613.833,323.5 615.167,323.5 616.5,323.5C 621.5,323.5 626.5,323.5 631.5,323.5C 656.5,323.5 681.5,323.5 706.5,323.5C 707.833,323.5 709.167,323.5 710.5,323.5C 710.169,352.671 710.502,381.671 711.5,410.5C 716.362,428.264 727.362,433.764 744.5,427C 749.186,423.635 752.353,419.135 754,413.5C 754.5,391.836 754.667,370.169 754.5,348.5C 767.945,348.815 780.111,352.815 791,360.5C 791.483,359.552 791.649,358.552 791.5,357.5C 792.29,358.609 792.79,359.942 793,361.5C 818.117,383.647 821.283,408.647 802.5,436.5C 784.291,454.471 762.624,460.804 737.5,455.5C 736.83,457.291 736.163,458.958 735.5,460.5C 710.497,436.809 683.497,434.309 654.5,453C 634.702,469.44 627.535,490.274 633,515.5C 638.592,533.585 649.759,546.918 666.5,555.5C 663.777,557.281 660.943,558.948 658,560.5C 660.335,607.181 663.335,653.847 667,700.5C 668.011,701.337 669.178,701.67 670.5,701.5C 666.644,705.515 662.311,709.015 657.5,712C 637.361,723.701 615.694,731.034 592.5,734C 584.996,750.517 577.496,767.017 570,783.5C 562.886,766.776 555.386,750.276 547.5,734C 524.629,731.043 503.296,723.71 483.5,712C 478.689,709.015 474.356,705.515 470.5,701.5C 471.5,701.5 472.5,701.5 473.5,701.5C 476.726,654.449 479.726,607.449 482.5,560.5C 479.769,558.808 477.102,557.142 474.5,555.5C 501.988,540.185 513.155,516.852 508,485.5C 498.854,457.352 479.52,442.352 450,440.5C 432.344,441.081 417.51,447.748 405.5,460.5C 404.935,458.614 403.935,456.947 402.5,455.5C 378.976,460.988 358.309,455.655 340.5,439.5C 338.577,436.397 336.41,433.397 334,430.5C 319.219,402.029 324.719,378.362 350.5,359.5C 351.169,357.369 351.835,355.369 352.5,353.5C 352.238,354.978 352.571,356.311 353.5,357.5C 363.68,351.439 374.68,348.439 386.5,348.5C 386.333,370.169 386.5,391.836 387,413.5C 393.093,427.964 403.593,432.797 418.5,428C 423.877,424.957 427.377,420.457 429,414.5C 429.5,384.168 429.667,353.835 429.5,323.5C 432.167,323.5 434.833,323.5 437.5,323.5C 443.167,323.5 448.833,323.5 454.5,323.5C 469.578,323.816 484.578,323.483 499.5,322.5 Z"/></g>
<g><path style="opacity:1" fill="#462c87" d="M 429.5,323.5 C 429.667,353.835 429.5,384.168 429,414.5C 427.377,420.457 423.877,424.957 418.5,428C 403.593,432.797 393.093,427.964 387,413.5C 386.5,391.836 386.333,370.169 386.5,348.5C 374.68,348.439 363.68,351.439 353.5,357.5C 352.571,356.311 352.238,354.978 352.5,353.5C 352.552,349.802 352.886,346.135 353.5,342.5C 354.636,336.359 355.303,330.026 355.5,323.5C 380.167,323.5 404.833,323.5 429.5,323.5 Z"/></g>
<g><path style="opacity:1" fill="#492e88" d="M 710.5,323.5 C 713.833,323.5 717.167,323.5 720.5,323.5C 722.167,323.5 723.833,323.5 725.5,323.5C 746.167,323.5 766.833,323.5 787.5,323.5C 789.114,334.799 790.447,346.132 791.5,357.5C 791.649,358.552 791.483,359.552 791,360.5C 780.111,352.815 767.945,348.815 754.5,348.5C 754.667,370.169 754.5,391.836 754,413.5C 752.353,419.135 749.186,423.635 744.5,427C 727.362,433.764 716.362,428.264 711.5,410.5C 710.502,381.671 710.169,352.671 710.5,323.5 Z"/></g>
<g><path style="opacity:1" fill="#301b85" d="M 711.5,410.5 C 711.5,381.833 711.5,353.167 711.5,324.5C 736.509,324.167 761.509,324.5 786.5,325.5C 762.109,325.517 737.443,325.517 712.5,325.5C 712.831,354.005 712.498,382.338 711.5,410.5 Z"/></g>
<g><path style="opacity:1" fill="#462c87" d="M 442.5,381.5 C 469.502,381.333 496.502,381.5 523.5,382C 528.738,385.274 529.904,389.774 527,395.5C 526.097,396.701 524.931,397.535 523.5,398C 496.833,398.667 470.167,398.667 443.5,398C 438.845,395.103 437.345,390.937 439,385.5C 440.376,384.295 441.542,382.962 442.5,381.5 Z"/></g>
<g><path style="opacity:1" fill="#462c87" d="M 616.5,381.5 C 643.502,381.333 670.502,381.5 697.5,382C 702.535,385.013 703.702,389.18 701,394.5C 699.786,396.049 698.286,397.215 696.5,398C 669.833,398.667 643.167,398.667 616.5,398C 609.868,392.423 609.868,386.923 616.5,381.5 Z"/></g>
<g><path style="opacity:1" fill="#472d88" d="M 802.5,436.5 C 805.591,457.474 808.591,478.474 811.5,499.5C 815.5,529.164 819.5,558.831 823.5,588.5C 823.198,591.059 823.532,593.393 824.5,595.5C 826.447,608.461 828.113,621.461 829.5,634.5C 827.901,630.491 825.235,627.325 821.5,625C 814.661,622.788 809.827,624.955 807,631.5C 806.333,634.167 806.333,636.833 807,639.5C 812.755,652.849 819.922,665.349 828.5,677C 823.743,687.764 819.076,698.597 814.5,709.5C 813.551,701.804 812.384,694.137 811,686.5C 809.969,678.832 806.469,672.666 800.5,668C 789,666.167 784.167,671 786,682.5C 787.139,685.583 788.472,688.583 790,691.5C 796.667,700.167 803.333,708.833 810,717.5C 809.577,722.618 808.41,727.618 806.5,732.5C 803.25,736.022 800.25,739.689 797.5,743.5C 796,735.33 793.333,727.663 789.5,720.5C 789.519,711.179 784.852,705.846 775.5,704.5C 772.512,704.717 769.845,705.717 767.5,707.5C 767.167,707.167 766.833,706.833 766.5,706.5C 771.481,698.892 773.815,690.559 773.5,681.5C 784.977,658.542 794.811,634.875 803,610.5C 809.593,587.276 812.593,563.609 812,539.5C 811.171,527.324 806.671,516.824 798.5,508C 791.376,504.224 784.709,504.891 778.5,510C 765.336,523.143 755.836,538.643 750,556.5C 736.561,596.529 727.394,637.529 722.5,679.5C 714.726,678.468 709.226,681.468 706,688.5C 705.333,692.833 705.333,697.167 706,701.5C 707.182,705.188 708.348,708.855 709.5,712.5C 704.056,710.687 698.722,708.687 693.5,706.5C 685.862,704.706 678.195,703.039 670.5,701.5C 669.178,701.67 668.011,701.337 667,700.5C 663.335,653.847 660.335,607.181 658,560.5C 660.943,558.948 663.777,557.281 666.5,555.5C 702.193,533.128 725.193,501.461 735.5,460.5C 736.163,458.958 736.83,457.291 737.5,455.5C 762.624,460.804 784.291,454.471 802.5,436.5 Z"/></g>
<g><path style="opacity:1" fill="#fb8dae" d="M 474.5,555.5 C 438.828,533.143 415.828,501.477 405.5,460.5C 417.51,447.748 432.344,441.081 450,440.5C 479.52,442.352 498.854,457.352 508,485.5C 513.155,516.852 501.988,540.185 474.5,555.5 Z"/></g>
<g><path style="opacity:1" fill="#fb8dae" d="M 735.5,460.5 C 725.193,501.461 702.193,533.128 666.5,555.5C 649.759,546.918 638.592,533.585 633,515.5C 627.535,490.274 634.702,469.44 654.5,453C 683.497,434.309 710.497,436.809 735.5,460.5 Z"/></g>
<g><path style="opacity:1" fill="#472c87" d="M 340.5,439.5 C 358.309,455.655 378.976,460.988 402.5,455.5C 403.935,456.947 404.935,458.614 405.5,460.5C 415.828,501.477 438.828,533.143 474.5,555.5C 477.102,557.142 479.769,558.808 482.5,560.5C 479.726,607.449 476.726,654.449 473.5,701.5C 472.5,701.5 471.5,701.5 470.5,701.5C 462.615,702.283 454.949,703.949 447.5,706.5C 442.065,707.812 436.899,709.812 432,712.5C 431.601,712.272 431.435,711.938 431.5,711.5C 434.319,703.759 435.153,695.759 434,687.5C 430.474,680.928 424.974,678.261 417.5,679.5C 413.073,637.125 403.907,595.792 390,555.5C 384.726,540.945 377.393,527.612 368,515.5C 353.716,500.658 342.05,502.324 333,520.5C 329.236,530.154 327.736,540.154 328.5,550.5C 328.933,578.831 334.433,606.165 345,632.5C 351.729,648.952 359.229,664.952 367.5,680.5C 366.42,689.915 368.42,698.582 373.5,706.5C 366.065,702.817 359.231,704.15 353,710.5C 351.241,713.608 350.408,716.941 350.5,720.5C 346.298,728.641 343.964,737.307 343.5,746.5C 341.025,741.563 338.025,736.897 334.5,732.5C 332.94,727.99 331.273,723.49 329.5,719C 337.037,709.794 344.203,700.294 351,690.5C 354.209,684.886 355.209,678.886 354,672.5C 347.741,665.894 341.407,665.894 335,672.5C 332.027,677.079 330.027,682.079 329,687.5C 328,694.833 327,702.167 326,709.5C 321.457,698.707 316.624,688.041 311.5,677.5C 317.53,668.635 323.364,659.635 329,650.5C 332.56,644.262 333.893,637.596 333,630.5C 329.723,624.891 324.89,623.058 318.5,625C 316.443,628.3 315.443,628.133 315.5,624.5C 323.368,562.756 331.702,501.09 340.5,439.5 Z"/></g>
<g><path style="opacity:0.996" fill="#fffefd" d="M 129.5,554.5 C 120.75,554.91 112.084,554.41 103.5,553C 92.0969,547.025 88.2636,537.858 92,525.5C 95.0907,519.244 99.924,514.91 106.5,512.5C 106.419,497.727 111.419,485.06 121.5,474.5C 125.606,472.612 129.606,470.446 133.5,468C 146.538,462.864 159.205,463.697 171.5,470.5C 184.687,451.747 202.687,444.247 225.5,448C 257.292,458.078 270.292,479.578 264.5,512.5C 272.961,514.463 278.795,519.463 282,527.5C 283.883,540.947 278.383,549.78 265.5,554C 220.168,554.5 174.835,554.667 129.5,554.5 Z"/></g>
<g><path style="opacity:1" fill="#472c87" d="M 545.5,475.5 C 547.857,475.337 550.19,475.503 552.5,476C 555.956,479.451 559.956,482.118 564.5,484C 568.167,484.667 571.833,484.667 575.5,484C 580.647,481.012 585.814,478.179 591,475.5C 598.332,476.833 600.332,480.833 597,487.5C 578.595,503.768 560.595,503.435 543,486.5C 541.812,482.259 542.645,478.592 545.5,475.5 Z"/></g>
<g><path style="opacity:1" fill="#fefefe" d="M 929.5,588.5 C 894.167,588.5 858.833,588.5 823.5,588.5C 819.5,558.831 815.5,529.164 811.5,499.5C 819.851,499.546 827.684,501.546 835,505.5C 848.48,486.848 866.647,479.348 889.5,483C 921.292,493.077 934.292,514.577 928.5,547.5C 937.382,549.551 943.216,554.884 946,563.5C 947.42,576.554 941.92,584.887 929.5,588.5 Z"/></g>
<g><path style="opacity:1" fill="#018d84" d="M 417.5,679.5 C 412.061,682.277 408.394,686.61 406.5,692.5C 405.376,688.255 403.71,684.255 401.5,680.5C 402.371,667.511 403.038,654.511 403.5,641.5C 401.856,641.286 400.356,641.62 399,642.5C 398.376,653.005 397.542,663.338 396.5,673.5C 396.167,673.5 395.833,673.5 395.5,673.5C 392.773,658.261 388.94,643.261 384,628.5C 383.667,611.833 383.333,595.167 383,578.5C 381.667,577.167 380.333,577.167 379,578.5C 378.667,588.167 378.333,597.833 378,607.5C 372.427,589.779 366.26,572.279 359.5,555C 358.207,554.51 356.873,554.343 355.5,554.5C 362.532,575.757 369.032,597.09 375,618.5C 364.5,606.667 354,594.833 343.5,583C 339.29,582.911 338.457,584.744 341,588.5C 353.667,602.5 366.333,616.5 379,630.5C 383.359,643.626 386.859,656.626 389.5,669.5C 379.396,667.885 372.062,671.552 367.5,680.5C 359.229,664.952 351.729,648.952 345,632.5C 334.433,606.165 328.933,578.831 328.5,550.5C 327.736,540.154 329.236,530.154 333,520.5C 342.05,502.324 353.716,500.658 368,515.5C 377.393,527.612 384.726,540.945 390,555.5C 403.907,595.792 413.073,637.125 417.5,679.5 Z"/></g>
<g><path style="opacity:1" fill="#028d84" d="M 773.5,681.5 C 771.114,677.603 768.114,674.103 764.5,671C 759.934,669.691 755.267,669.191 750.5,669.5C 753.808,656.8 757.308,644.134 761,631.5C 774,616.833 787,602.167 800,587.5C 800.667,586.167 800.667,584.833 800,583.5C 799.282,582.549 798.449,582.383 797.5,583C 786.631,594.2 776.131,605.7 766,617.5C 765.833,617.167 765.667,616.833 765.5,616.5C 771.909,595.796 778.243,575.129 784.5,554.5C 782.856,554.286 781.356,554.62 780,555.5C 773.938,572.352 768.271,589.352 763,606.5C 762.667,597.5 762.333,588.5 762,579.5C 760.451,576.997 758.784,576.997 757,579.5C 756.667,596.167 756.333,612.833 756,629.5C 751.791,643.791 747.791,658.124 744,672.5C 743.3,662.468 742.3,652.468 741,642.5C 738.524,640.937 737.024,641.604 736.5,644.5C 737.964,656.448 738.631,668.448 738.5,680.5C 736.729,684.379 735.229,688.379 734,692.5C 732.356,686.033 728.522,681.7 722.5,679.5C 727.394,637.529 736.561,596.529 750,556.5C 755.836,538.643 765.336,523.143 778.5,510C 784.709,504.891 791.376,504.224 798.5,508C 806.671,516.824 811.171,527.324 812,539.5C 812.593,563.609 809.593,587.276 803,610.5C 794.811,634.875 784.977,658.542 773.5,681.5 Z"/></g>
<g><path style="opacity:1" fill="#01aea3" d="M 395.5,673.5 C 393.463,672.154 391.463,670.82 389.5,669.5C 386.859,656.626 383.359,643.626 379,630.5C 366.333,616.5 353.667,602.5 341,588.5C 338.457,584.744 339.29,582.911 343.5,583C 354,594.833 364.5,606.667 375,618.5C 369.032,597.09 362.532,575.757 355.5,554.5C 356.873,554.343 358.207,554.51 359.5,555C 366.26,572.279 372.427,589.779 378,607.5C 378.333,597.833 378.667,588.167 379,578.5C 380.333,577.167 381.667,577.167 383,578.5C 383.333,595.167 383.667,611.833 384,628.5C 388.94,643.261 392.773,658.261 395.5,673.5 Z"/></g>
<g><path style="opacity:1" fill="#01aea3" d="M 750.5,669.5 C 745.874,672.458 741.874,676.124 738.5,680.5C 738.631,668.448 737.964,656.448 736.5,644.5C 737.024,641.604 738.524,640.937 741,642.5C 742.3,652.468 743.3,662.468 744,672.5C 747.791,658.124 751.791,643.791 756,629.5C 756.333,612.833 756.667,596.167 757,579.5C 758.784,576.997 760.451,576.997 762,579.5C 762.333,588.5 762.667,597.5 763,606.5C 768.271,589.352 773.938,572.352 780,555.5C 781.356,554.62 782.856,554.286 784.5,554.5C 778.243,575.129 771.909,595.796 765.5,616.5C 765.667,616.833 765.833,617.167 766,617.5C 776.131,605.7 786.631,594.2 797.5,583C 798.449,582.383 799.282,582.549 800,583.5C 800.667,584.833 800.667,586.167 800,587.5C 787,602.167 774,616.833 761,631.5C 757.308,644.134 753.808,656.8 750.5,669.5 Z"/></g>
<g><path style="opacity:1" fill="#fd938f" d="M 499.5,568.5 C 521.324,577.137 543.991,580.804 567.5,579.5C 592.901,580.324 617.568,576.824 641.5,569C 625.18,595.671 601.18,609.171 569.5,609.5C 546.294,608.975 526.461,600.641 510,584.5C 505.858,579.537 502.358,574.204 499.5,568.5 Z"/></g>
<g><path style="opacity:1" fill="#faecb4" d="M 823.5,588.5 C 858.833,588.5 894.167,588.5 929.5,588.5C 903.833,589.167 878.167,589.833 852.5,590.5C 850.283,589.631 847.95,589.298 845.5,589.5C 838.5,589.5 831.5,589.5 824.5,589.5C 824.5,591.5 824.5,593.5 824.5,595.5C 823.532,593.393 823.198,591.059 823.5,588.5 Z"/></g>
<g><path style="opacity:1" fill="#fcdb49" d="M 845.5,589.5 C 839.85,593.327 838.016,598.66 840,605.5C 843.374,615.293 847.707,624.626 853,633.5C 853.667,634.5 853.667,635.5 853,636.5C 846.167,646.162 839.834,656.162 834,666.5C 832.663,655.801 831.163,645.135 829.5,634.5C 828.113,621.461 826.447,608.461 824.5,595.5C 824.5,593.5 824.5,591.5 824.5,589.5C 831.5,589.5 838.5,589.5 845.5,589.5 Z"/></g>
<g><path style="opacity:1" fill="#10aea3" d="M 306.5,668.5 C 306.56,669.043 306.893,669.376 307.5,669.5C 308.495,664.208 308.828,658.875 308.5,653.5C 308.34,648.434 308.84,643.434 310,638.5C 311.78,633.633 313.613,628.967 315.5,624.5C 315.443,628.133 316.443,628.3 318.5,625C 324.89,623.058 329.723,624.891 333,630.5C 333.893,637.596 332.56,644.262 329,650.5C 323.364,659.635 317.53,668.635 311.5,677.5C 316.624,688.041 321.457,698.707 326,709.5C 327,702.167 328,694.833 329,687.5C 330.027,682.079 332.027,677.079 335,672.5C 341.407,665.894 347.741,665.894 354,672.5C 355.209,678.886 354.209,684.886 351,690.5C 344.203,700.294 337.037,709.794 329.5,719C 331.273,723.49 332.94,727.99 334.5,732.5C 331.241,730.039 327.574,728.372 323.5,727.5C 323.131,725.559 322.464,723.725 321.5,722C 315.167,721.084 308.834,720.25 302.5,719.5C 302.768,721.099 302.434,722.432 301.5,723.5C 301.5,721.833 301.5,720.167 301.5,718.5C 297.087,718.147 292.754,717.314 288.5,716C 281.961,714.45 276.794,710.95 273,705.5C 271.123,697.041 274.456,692.041 283,690.5C 290.908,692.403 297.908,696.07 304,701.5C 304.198,699.618 304.698,697.952 305.5,696.5C 305.337,698.857 305.503,701.19 306,703.5C 309.981,706.647 313.814,709.98 317.5,713.5C 317.833,713.167 318.167,712.833 318.5,712.5C 315.243,703.684 311.243,695.351 306.5,687.5C 306.414,685.323 305.747,683.323 304.5,681.5C 291.376,681.027 278.376,679.527 265.5,677C 256.225,674.595 252.392,668.761 254,659.5C 260.594,652.403 268.094,651.569 276.5,657C 284.275,661.776 291.775,666.943 299,672.5C 294.506,661.863 288.673,651.863 281.5,642.5C 268.846,641.667 256.18,641.167 243.5,641C 241.754,640.529 240.087,639.862 238.5,639C 230.705,630.557 232.205,624.391 243,620.5C 247.275,621.277 251.442,622.444 255.5,624C 261.856,627.349 268.19,630.349 274.5,633C 265.566,622.732 255.4,613.899 244,606.5C 242.523,602.002 244.023,599.835 248.5,600C 261.162,607.323 271.995,616.823 281,628.5C 281.009,622.69 280.842,616.857 280.5,611C 278.862,602.581 281.195,595.581 287.5,590C 299.042,589.568 303.209,595.068 300,606.5C 296.047,616.407 291.547,626.074 286.5,635.5C 294.445,645.724 301.112,656.724 306.5,668.5 Z"/></g>
<g><path style="opacity:1" fill="#11aea3" d="M 845.5,589.5 C 847.95,589.298 850.283,589.631 852.5,590.5C 854.371,590.859 855.871,591.859 857,593.5C 858.197,596.089 859.197,598.756 860,601.5C 860.312,610.18 860.312,618.847 860,627.5C 868.887,617.613 878.72,608.779 889.5,601C 891.5,600.333 893.5,600.333 895.5,601C 898.192,603.632 897.859,605.966 894.5,608C 882.954,614.888 873.454,623.722 866,634.5C 873.31,629.427 881.143,625.261 889.5,622C 893.5,621.333 897.5,621.333 901.5,622C 902.931,622.465 904.097,623.299 905,624.5C 908.826,633.662 905.659,639.162 895.5,641C 883.5,641.333 871.5,641.667 859.5,642C 852.417,651.493 846.084,661.493 840.5,672C 846.654,668.564 852.654,664.564 858.5,660C 863.763,656.699 869.43,654.532 875.5,653.5C 885.295,654.765 888.795,660.099 886,669.5C 881.447,674.028 875.947,676.861 869.5,678C 858.365,679.328 847.365,680.495 836.5,681.5C 831.186,691.234 826.519,701.401 822.5,712C 822.667,712.5 822.833,713 823,713.5C 828.362,708.968 833.528,704.301 838.5,699.5C 844.089,695.289 850.255,692.289 857,690.5C 869.115,693.286 871.615,699.786 864.5,710C 857.248,714.22 849.581,717.053 841.5,718.5C 833.704,719.077 826.038,720.41 818.5,722.5C 817.826,724.195 817.159,725.862 816.5,727.5C 812.619,728.107 809.286,729.774 806.5,732.5C 808.41,727.618 809.577,722.618 810,717.5C 803.333,708.833 796.667,700.167 790,691.5C 788.472,688.583 787.139,685.583 786,682.5C 784.167,671 789,666.167 800.5,668C 806.469,672.666 809.969,678.832 811,686.5C 812.384,694.137 813.551,701.804 814.5,709.5C 819.076,698.597 823.743,687.764 828.5,677C 819.922,665.349 812.755,652.849 807,639.5C 806.333,636.833 806.333,634.167 807,631.5C 809.827,624.955 814.661,622.788 821.5,625C 825.235,627.325 827.901,630.491 829.5,634.5C 831.163,645.135 832.663,655.801 834,666.5C 839.834,656.162 846.167,646.162 853,636.5C 853.667,635.5 853.667,634.5 853,633.5C 847.707,624.626 843.374,615.293 840,605.5C 838.016,598.66 839.85,593.327 845.5,589.5 Z"/></g>
<g><path style="opacity:1" fill="#0cafa3" d="M 401.5,680.5 C 399.478,678.469 397.811,676.135 396.5,673.5C 397.542,663.338 398.376,653.005 399,642.5C 400.356,641.62 401.856,641.286 403.5,641.5C 403.038,654.511 402.371,667.511 401.5,680.5 Z"/></g>
<g><path style="opacity:1" fill="#99c96e" d="M 308.5,653.5 C 308.828,658.875 308.495,664.208 307.5,669.5C 306.893,669.376 306.56,669.043 306.5,668.5C 307.167,663.5 307.833,658.5 308.5,653.5 Z"/></g>
<g><path style="opacity:1" fill="#fcbc55" d="M 389.5,669.5 C 391.463,670.82 393.463,672.154 395.5,673.5C 395.833,673.5 396.167,673.5 396.5,673.5C 397.811,676.135 399.478,678.469 401.5,680.5C 403.71,684.255 405.376,688.255 406.5,692.5C 408.394,686.61 412.061,682.277 417.5,679.5C 424.974,678.261 430.474,680.928 434,687.5C 435.153,695.759 434.319,703.759 431.5,711.5C 414.463,720.009 398.463,730.009 383.5,741.5C 377.38,740.237 371.38,738.571 365.5,736.5C 361.645,733.64 357.812,730.64 354,727.5C 352.787,725.075 351.621,722.741 350.5,720.5C 350.408,716.941 351.241,713.608 353,710.5C 359.231,704.15 366.065,702.817 373.5,706.5C 368.42,698.582 366.42,689.915 367.5,680.5C 372.062,671.552 379.396,667.885 389.5,669.5 Z"/></g>
<g><path style="opacity:1" fill="#fcbc55" d="M 750.5,669.5 C 755.267,669.191 759.934,669.691 764.5,671C 768.114,674.103 771.114,677.603 773.5,681.5C 773.815,690.559 771.481,698.892 766.5,706.5C 766.833,706.833 767.167,707.167 767.5,707.5C 769.845,705.717 772.512,704.717 775.5,704.5C 784.852,705.846 789.519,711.179 789.5,720.5C 788.678,722.389 787.845,724.389 787,726.5C 782.88,730.468 778.38,733.801 773.5,736.5C 768.155,738.171 762.822,739.837 757.5,741.5C 750.064,736.578 742.731,731.411 735.5,726C 727.247,720.707 718.58,716.207 709.5,712.5C 708.348,708.855 707.182,705.188 706,701.5C 705.333,697.167 705.333,692.833 706,688.5C 709.226,681.468 714.726,678.468 722.5,679.5C 728.522,681.7 732.356,686.033 734,692.5C 735.229,688.379 736.729,684.379 738.5,680.5C 741.874,676.124 745.874,672.458 750.5,669.5 Z"/></g>
<g><path style="opacity:1" fill="#4b2f87" d="M 836.5,681.5 C 837.26,687.489 837.927,693.489 838.5,699.5C 833.528,704.301 828.362,708.968 823,713.5C 822.833,713 822.667,712.5 822.5,712C 826.519,701.401 831.186,691.234 836.5,681.5 Z"/></g>
<g><path style="opacity:1" fill="#492e88" d="M 306.5,687.5 C 311.243,695.351 315.243,703.684 318.5,712.5C 318.167,712.833 317.833,713.167 317.5,713.5C 313.814,709.98 309.981,706.647 306,703.5C 305.503,701.19 305.337,698.857 305.5,696.5C 305.508,693.455 305.841,690.455 306.5,687.5 Z"/></g>
<g><path style="opacity:1" fill="#fc468c" d="M 262.5,724.5 C 259.953,725.934 257.619,727.6 255.5,729.5C 247.812,730.737 241.979,728.071 238,721.5C 234.663,707.506 240.163,700.673 254.5,701C 265.806,705.796 268.473,713.629 262.5,724.5 Z"/></g>
<g><path style="opacity:1" fill="#fdfdfe" d="M 470.5,701.5 C 474.356,705.515 478.689,709.015 483.5,712C 503.296,723.71 524.629,731.043 547.5,734C 555.386,750.276 562.886,766.776 570,783.5C 577.496,767.017 584.996,750.517 592.5,734C 615.694,731.034 637.361,723.701 657.5,712C 662.311,709.015 666.644,705.515 670.5,701.5C 678.195,703.039 685.862,704.706 693.5,706.5C 693.611,707.117 693.944,707.617 694.5,708C 679.314,723.1 661.647,734.433 641.5,742C 631.701,745.378 621.868,748.544 612,751.5C 598.423,779.654 584.589,807.654 570.5,835.5C 555.428,807.693 540.595,779.693 526,751.5C 499.699,744.599 475.866,732.766 454.5,716C 451.833,713.333 449.167,710.667 446.5,708C 447.056,707.617 447.389,707.117 447.5,706.5C 454.949,703.949 462.615,702.283 470.5,701.5 Z"/></g>
<g><path style="opacity:1" fill="#fc458d" d="M 884.5,729.5 C 882.54,727.844 880.54,726.177 878.5,724.5C 873.476,718.333 873.31,711.999 878,705.5C 887.674,698.002 896.008,699.336 903,709.5C 904.693,723.31 898.527,729.977 884.5,729.5 Z"/></g>
<g><path style="opacity:1" fill="#a6aefe" d="M 447.5,706.5 C 447.389,707.117 447.056,707.617 446.5,708C 449.167,710.667 451.833,713.333 454.5,716C 475.866,732.766 499.699,744.599 526,751.5C 540.595,779.693 555.428,807.693 570.5,835.5C 584.589,807.654 598.423,779.654 612,751.5C 621.868,748.544 631.701,745.378 641.5,742C 661.647,734.433 679.314,723.1 694.5,708C 693.944,707.617 693.611,707.117 693.5,706.5C 698.722,708.687 704.056,710.687 709.5,712.5C 718.58,716.207 727.247,720.707 735.5,726C 742.731,731.411 750.064,736.578 757.5,741.5C 767.936,753.258 777.936,765.258 787.5,777.5C 790.304,784.442 793.638,791.109 797.5,797.5C 797.263,798.791 797.596,799.791 798.5,800.5C 800.364,804.76 802.031,809.093 803.5,813.5C 803.557,814.609 803.89,815.609 804.5,816.5C 809.646,836.792 812.146,857.459 812,878.5C 812.05,882.157 812.883,885.49 814.5,888.5C 813.509,895.313 813.175,902.313 813.5,909.5C 651.167,909.5 488.833,909.5 326.5,909.5C 327.038,902.178 327.371,894.845 327.5,887.5C 328.466,871.976 329.633,856.309 331,840.5C 331.897,832.914 333.73,825.58 336.5,818.5C 336.137,817.817 335.804,817.15 335.5,816.5C 336.401,815.71 337.068,814.71 337.5,813.5C 339.121,809.257 340.454,804.924 341.5,800.5C 343.481,799.895 343.815,798.895 342.5,797.5C 346.404,791.366 350.071,785.032 353.5,778.5C 356.978,773.566 360.478,768.566 364,763.5C 370.73,756.276 377.23,748.942 383.5,741.5C 398.463,730.009 414.463,720.009 431.5,711.5C 431.435,711.938 431.601,712.272 432,712.5C 436.899,709.812 442.065,707.812 447.5,706.5 Z"/></g>
<g><path style="opacity:1" fill="#482e88" d="M 841.5,718.5 C 841.739,722.842 842.073,727.176 842.5,731.5C 838.605,730.059 834.939,730.393 831.5,732.5C 827.532,728.041 822.532,726.375 816.5,727.5C 817.159,725.862 817.826,724.195 818.5,722.5C 826.038,720.41 833.704,719.077 841.5,718.5 Z"/></g>
<g><path style="opacity:1" fill="#462b88" d="M 323.5,727.5 C 317.468,726.375 312.468,728.041 308.5,732.5C 306.412,731.061 304.079,730.394 301.5,730.5C 301.5,729.5 301.5,728.5 301.5,727.5C 301.5,726.167 301.5,724.833 301.5,723.5C 302.434,722.432 302.768,721.099 302.5,719.5C 308.834,720.25 315.167,721.084 321.5,722C 322.464,723.725 323.131,725.559 323.5,727.5 Z"/></g>
<g><path style="opacity:1" fill="#13ada3" d="M 789.5,720.5 C 793.333,727.663 796,735.33 797.5,743.5C 796.63,748.223 794.964,752.556 792.5,756.5C 786.792,749.128 780.459,742.462 773.5,736.5C 778.38,733.801 782.88,730.468 787,726.5C 787.845,724.389 788.678,722.389 789.5,720.5 Z"/></g>
<g><path style="opacity:1" fill="#0eaea3" d="M 350.5,720.5 C 351.621,722.741 352.787,725.075 354,727.5C 357.812,730.64 361.645,733.64 365.5,736.5C 360.173,743.827 353.839,750.161 346.5,755.5C 345.698,752.426 344.698,749.426 343.5,746.5C 343.964,737.307 346.298,728.641 350.5,720.5 Z"/></g>
<g><path style="opacity:1" fill="#fb448c" d="M 323.5,727.5 C 327.574,728.372 331.241,730.039 334.5,732.5C 338.025,736.897 341.025,741.563 343.5,746.5C 344.698,749.426 345.698,752.426 346.5,755.5C 349.462,762.981 351.796,770.648 353.5,778.5C 350.071,785.032 346.404,791.366 342.5,797.5C 333.473,789.14 324.806,780.473 316.5,771.5C 311.973,765.985 308.307,759.985 305.5,753.5C 303.408,745.953 304.408,738.953 308.5,732.5C 312.468,728.041 317.468,726.375 323.5,727.5 Z"/></g>
<g><path style="opacity:1" fill="#fb448c" d="M 816.5,727.5 C 822.532,726.375 827.532,728.041 831.5,732.5C 836.362,738.381 837.695,745.048 835.5,752.5C 832.356,759.324 828.356,765.657 823.5,771.5C 815.167,780.5 806.5,789.167 797.5,797.5C 793.638,791.109 790.304,784.442 787.5,777.5C 788.85,770.383 790.517,763.383 792.5,756.5C 794.964,752.556 796.63,748.223 797.5,743.5C 800.25,739.689 803.25,736.022 806.5,732.5C 809.286,729.774 812.619,728.107 816.5,727.5 Z"/></g>
<g><path style="opacity:1" fill="#1baea4" d="M 878.5,724.5 C 880.54,726.177 882.54,727.844 884.5,729.5C 873.993,746.343 865.993,764.343 860.5,783.5C 858.916,780.574 856.916,777.908 854.5,775.5C 860.573,757.626 868.573,740.626 878.5,724.5 Z"/></g>
<g><path style="opacity:1" fill="#12aea3" d="M 842.5,731.5 C 844.716,732.203 846.549,733.536 848,735.5C 849.036,740.227 848.203,744.56 845.5,748.5C 842.716,750.396 839.716,752.063 836.5,753.5C 835.893,753.376 835.56,753.043 835.5,752.5C 837.695,745.048 836.362,738.381 831.5,732.5C 834.939,730.393 838.605,730.059 842.5,731.5 Z"/></g>
<g><path style="opacity:1" fill="#25aea2" d="M 301.5,727.5 C 301.5,728.5 301.5,729.5 301.5,730.5C 304.079,730.394 306.412,731.061 308.5,732.5C 304.408,738.953 303.408,745.953 305.5,753.5C 302.645,752.883 299.978,751.883 297.5,750.5C 295.5,748.329 293.666,745.996 292,743.5C 290.834,736.488 293.668,732.155 300.5,730.5C 300.263,729.209 300.596,728.209 301.5,727.5 Z"/></g>
<g><path style="opacity:1" fill="#472c87" d="M 773.5,736.5 C 780.459,742.462 786.792,749.128 792.5,756.5C 790.517,763.383 788.85,770.383 787.5,777.5C 777.936,765.258 767.936,753.258 757.5,741.5C 762.822,739.837 768.155,738.171 773.5,736.5 Z"/></g>
<g><path style="opacity:1" fill="#472c87" d="M 365.5,736.5 C 371.38,738.571 377.38,740.237 383.5,741.5C 377.23,748.942 370.73,756.276 364,763.5C 360.478,768.566 356.978,773.566 353.5,778.5C 351.796,770.648 349.462,762.981 346.5,755.5C 353.839,750.161 360.173,743.827 365.5,736.5 Z"/></g>
<g><path style="opacity:1" fill="#4b2e87" d="M 845.5,748.5 C 846.781,756.798 847.781,765.131 848.5,773.5C 843.308,773.091 838.308,773.758 833.5,775.5C 830.9,772.54 827.567,771.206 823.5,771.5C 828.356,765.657 832.356,759.324 835.5,752.5C 835.56,753.043 835.893,753.376 836.5,753.5C 839.716,752.063 842.716,750.396 845.5,748.5 Z"/></g>
<g><path style="opacity:0.976" fill="#fc458d" d="M 220.5,763.5 C 220.632,766.57 220.299,769.57 219.5,772.5C 217.208,778.585 212.708,781.919 206,782.5C 196.833,781.333 191.667,776.167 190.5,767C 191.667,757.833 196.833,752.667 206,751.5C 213.748,752.107 218.581,756.107 220.5,763.5 Z"/></g>
<g><path style="opacity:0.973" fill="#fc448c" d="M 920.5,772.5 C 920.5,769.5 920.5,766.5 920.5,763.5C 920.5,762.5 920.5,761.5 920.5,760.5C 921.167,760.5 921.5,760.167 921.5,759.5C 922.167,759.5 922.5,759.167 922.5,758.5C 922.833,757.833 923.167,757.167 923.5,756.5C 924.167,756.5 924.5,756.167 924.5,755.5C 925.167,755.5 925.5,755.167 925.5,754.5C 926.167,754.5 926.5,754.167 926.5,753.5C 936.754,749.605 944.254,752.605 949,762.5C 950.564,773.773 945.731,780.44 934.5,782.5C 927.869,781.862 923.202,778.529 920.5,772.5 Z"/></g>
<g><path style="opacity:1" fill="#492c88" d="M 297.5,750.5 C 299.978,751.883 302.645,752.883 305.5,753.5C 308.307,759.985 311.973,765.985 316.5,771.5C 312.584,770.961 309.584,772.294 307.5,775.5C 303.443,774.312 299.443,773.312 295.5,772.5C 296.036,765.153 296.703,757.82 297.5,750.5 Z"/></g>
<g><path style="opacity:0.97" fill="#15aea3" d="M 262.5,724.5 C 272.05,740.604 279.717,757.604 285.5,775.5C 280.93,780.167 279.263,785.834 280.5,792.5C 275.867,790.225 271.2,787.892 266.5,785.5C 262.435,788.19 258.435,790.857 254.5,793.5C 240.984,801.422 227.984,810.089 215.5,819.5C 213.167,817.833 211.167,815.833 209.5,813.5C 221.815,804.009 234.482,795.009 247.5,786.5C 251.187,785.824 254.52,784.324 257.5,782C 251.11,778.925 244.443,776.759 237.5,775.5C 231.606,773.943 225.606,772.943 219.5,772.5C 220.299,769.57 220.632,766.57 220.5,763.5C 222.861,763.674 225.194,764.007 227.5,764.5C 245.704,767.957 262.87,774.291 279,783.5C 278.647,779.422 277.647,775.422 276,771.5C 270.993,756.488 264.159,742.488 255.5,729.5C 257.619,727.6 259.953,725.934 262.5,724.5 Z"/></g>
<g><path style="opacity:0.981" fill="#16aea3" d="M 918.5,763.5 C 919.167,763.5 919.833,763.5 920.5,763.5C 920.5,766.5 920.5,769.5 920.5,772.5C 916.418,772.892 912.418,773.558 908.5,774.5C 899.914,774.903 891.581,777.236 883.5,781.5C 887.021,784.695 891.021,787.028 895.5,788.5C 907.812,796.328 919.812,804.661 931.5,813.5C 929.167,815.167 927.167,817.167 925.5,819.5C 913.678,810.753 901.345,802.753 888.5,795.5C 884.082,791.446 879.082,788.113 873.5,785.5C 869.299,788.1 864.966,790.434 860.5,792.5C 860.5,789.5 860.5,786.5 860.5,783.5C 878.072,772.976 897.072,766.643 917.5,764.5C 918.167,764.5 918.5,764.167 918.5,763.5 Z"/></g>
<g><path style="opacity:1" fill="#fb458c" d="M 295.5,772.5 C 299.443,773.312 303.443,774.312 307.5,775.5C 319.372,783.029 330.705,791.363 341.5,800.5C 340.454,804.924 339.121,809.257 337.5,813.5C 331.484,812.963 325.484,812.297 319.5,811.5C 309.782,809.48 300.115,807.147 290.5,804.5C 288.877,802.049 286.711,800.049 284,798.5C 282.606,796.612 281.44,794.612 280.5,792.5C 279.263,785.834 280.93,780.167 285.5,775.5C 288.446,773.369 291.779,772.369 295.5,772.5 Z"/></g>
<g><path style="opacity:1" fill="#1dafa4" d="M 316.5,771.5 C 324.806,780.473 333.473,789.14 342.5,797.5C 343.815,798.895 343.481,799.895 341.5,800.5C 330.705,791.363 319.372,783.029 307.5,775.5C 309.584,772.294 312.584,770.961 316.5,771.5 Z"/></g>
<g><path style="opacity:1" fill="#22aea4" d="M 823.5,771.5 C 827.567,771.206 830.9,772.54 833.5,775.5C 820.998,782.669 809.331,791.003 798.5,800.5C 797.596,799.791 797.263,798.791 797.5,797.5C 806.5,789.167 815.167,780.5 823.5,771.5 Z"/></g>
<g><path style="opacity:1" fill="#fb458c" d="M 848.5,773.5 C 850.703,773.604 852.703,774.27 854.5,775.5C 856.916,777.908 858.916,780.574 860.5,783.5C 860.5,786.5 860.5,789.5 860.5,792.5C 858.538,796.064 855.871,799.064 852.5,801.5C 850.77,802.026 849.436,803.026 848.5,804.5C 839.297,807.44 829.964,809.773 820.5,811.5C 814.833,812.167 809.167,812.833 803.5,813.5C 802.031,809.093 800.364,804.76 798.5,800.5C 809.331,791.003 820.998,782.669 833.5,775.5C 838.308,773.758 843.308,773.091 848.5,773.5 Z"/></g>
<g><path style="opacity:0.962" fill="#f8dc4a" d="M 908.5,774.5 C 904.195,779.141 899.861,783.807 895.5,788.5C 891.021,787.028 887.021,784.695 883.5,781.5C 891.581,777.236 899.914,774.903 908.5,774.5 Z"/></g>
<g><path style="opacity:0.956" fill="#fbdd48" d="M 237.5,775.5 C 244.443,776.759 251.11,778.925 257.5,782C 254.52,784.324 251.187,785.824 247.5,786.5C 244.195,782.859 240.862,779.192 237.5,775.5 Z"/></g>
<g><path style="opacity:0.987" fill="#fcdc49" d="M 888.5,795.5 C 883.833,799.5 879.5,803.833 875.5,808.5C 868.095,805.87 860.428,804.536 852.5,804.5C 852.5,803.5 852.5,802.5 852.5,801.5C 855.871,799.064 858.538,796.064 860.5,792.5C 864.966,790.434 869.299,788.1 873.5,785.5C 879.082,788.113 884.082,791.446 888.5,795.5 Z"/></g>
<g><path style="opacity:0.983" fill="#fddc49" d="M 280.5,792.5 C 281.44,794.612 282.606,796.612 284,798.5C 286.711,800.049 288.877,802.049 290.5,804.5C 282.899,803.897 275.565,804.897 268.5,807.5C 263.527,803.194 258.86,798.527 254.5,793.5C 258.435,790.857 262.435,788.19 266.5,785.5C 271.2,787.892 275.867,790.225 280.5,792.5 Z"/></g>
<g><path style="opacity:1" fill="#452288" d="M 852.5,801.5 C 852.5,802.5 852.5,803.5 852.5,804.5C 851.167,804.5 849.833,804.5 848.5,804.5C 849.436,803.026 850.77,802.026 852.5,801.5 Z"/></g>
<g><path style="opacity:0.985" fill="#0eaea3" d="M 290.5,804.5 C 300.115,807.147 309.782,809.48 319.5,811.5C 320.945,813.063 322.611,814.396 324.5,815.5C 322.54,817.156 320.54,818.823 318.5,820.5C 313.852,816.857 309.185,813.19 304.5,809.5C 299.852,814.482 294.519,818.482 288.5,821.5C 286.833,822.167 285.167,822.833 283.5,823.5C 282.833,823.5 282.5,823.833 282.5,824.5C 273.73,826.021 265.063,825.521 256.5,823C 253.888,822.361 251.554,821.194 249.5,819.5C 255.046,814.229 261.379,810.229 268.5,807.5C 275.565,804.897 282.899,803.897 290.5,804.5 Z"/></g>
<g><path style="opacity:0.987" fill="#0daea3" d="M 848.5,804.5 C 849.833,804.5 851.167,804.5 852.5,804.5C 860.428,804.536 868.095,805.87 875.5,808.5C 881.041,811.436 886.041,815.103 890.5,819.5C 885.711,822.597 880.378,824.431 874.5,825C 869.146,825.529 863.813,825.362 858.5,824.5C 858.158,823.662 857.492,823.328 856.5,823.5C 856.167,823.5 855.833,823.5 855.5,823.5C 848.088,820.277 841.588,815.61 836,809.5C 831.561,813.295 827.061,816.961 822.5,820.5C 819.953,819.066 817.619,817.4 815.5,815.5C 817.749,814.92 819.415,813.587 820.5,811.5C 829.964,809.773 839.297,807.44 848.5,804.5 Z"/></g>
<g><path style="opacity:0.962" fill="#fc458c" d="M 209.5,813.5 C 211.167,815.833 213.167,817.833 215.5,819.5C 218.85,831.819 214.35,839.152 202,841.5C 192.456,841.111 187.289,836.111 186.5,826.5C 189.382,813.561 197.049,809.228 209.5,813.5 Z"/></g>
<g><path style="opacity:1" fill="#482c87" d="M 318.5,820.5 C 315.963,824.712 314.797,829.379 315,834.5C 307.947,825.887 299.113,821.554 288.5,821.5C 294.519,818.482 299.852,814.482 304.5,809.5C 309.185,813.19 313.852,816.857 318.5,820.5 Z"/></g>
<g><path style="opacity:1" fill="#4c2e87" d="M 855.5,823.5 C 850.552,822.441 845.552,822.274 840.5,823C 834.402,826.274 829.068,830.441 824.5,835.5C 824.545,831.769 824.379,827.769 824,823.5C 822.961,822.756 822.461,821.756 822.5,820.5C 827.061,816.961 831.561,813.295 836,809.5C 841.588,815.61 848.088,820.277 855.5,823.5 Z"/></g>
<g><path style="opacity:0.968" fill="#fc448d" d="M 925.5,819.5 C 927.167,817.167 929.167,815.167 931.5,813.5C 938.933,810.078 945.433,811.411 951,817.5C 956.223,827.872 953.723,835.705 943.5,841C 927.481,842.106 921.481,834.939 925.5,819.5 Z"/></g>
<g><path style="opacity:1" fill="#492a87" d="M 319.5,811.5 C 325.484,812.297 331.484,812.963 337.5,813.5C 337.068,814.71 336.401,815.71 335.5,816.5C 331.881,815.756 328.215,815.423 324.5,815.5C 322.611,814.396 320.945,813.063 319.5,811.5 Z"/></g>
<g><path style="opacity:1" fill="#412987" d="M 820.5,811.5 C 819.415,813.587 817.749,814.92 815.5,815.5C 811.766,815.323 808.099,815.656 804.5,816.5C 803.89,815.609 803.557,814.609 803.5,813.5C 809.167,812.833 814.833,812.167 820.5,811.5 Z"/></g>
<g><path style="opacity:0.994" fill="#fcbc55" d="M 324.5,815.5 C 328.215,815.423 331.881,815.756 335.5,816.5C 335.804,817.15 336.137,817.817 336.5,818.5C 333.73,825.58 331.897,832.914 331,840.5C 329.633,856.309 328.466,871.976 327.5,887.5C 317.721,889.213 307.888,890.546 298,891.5C 290.857,891.923 284.357,890.257 278.5,886.5C 272.246,877.541 273.579,869.874 282.5,863.5C 282.435,863.938 282.601,864.272 283,864.5C 285.596,862.98 288.429,862.147 291.5,862C 288.669,859.999 286.003,857.833 283.5,855.5C 274.747,847.449 273.247,838.116 279,827.5C 280.145,826.364 281.312,825.364 282.5,824.5C 283.167,824.5 283.5,824.167 283.5,823.5C 285.167,822.833 286.833,822.167 288.5,821.5C 299.113,821.554 307.947,825.887 315,834.5C 314.797,829.379 315.963,824.712 318.5,820.5C 320.54,818.823 322.54,817.156 324.5,815.5 Z"/></g>
<g><path style="opacity:0.996" fill="#fcbc55" d="M 815.5,815.5 C 817.619,817.4 819.953,819.066 822.5,820.5C 822.461,821.756 822.961,822.756 824,823.5C 824.379,827.769 824.545,831.769 824.5,835.5C 829.068,830.441 834.402,826.274 840.5,823C 845.552,822.274 850.552,822.441 855.5,823.5C 855.833,823.5 856.167,823.5 856.5,823.5C 856.842,824.338 857.508,824.672 858.5,824.5C 866.991,833.27 867.657,842.604 860.5,852.5C 856.706,855.779 852.706,858.946 848.5,862C 853.243,862.374 857.576,863.874 861.5,866.5C 866.474,871.433 867.474,877.1 864.5,883.5C 860.601,888.116 855.601,890.616 849.5,891C 843.167,891.667 836.833,891.667 830.5,891C 825.245,889.624 819.912,888.791 814.5,888.5C 812.883,885.49 812.05,882.157 812,878.5C 812.146,857.459 809.646,836.792 804.5,816.5C 808.099,815.656 811.766,815.323 815.5,815.5 Z"/></g>
<g><path style="opacity:0.899" fill="#482b89" d="M 860.5,852.5 C 860.998,857.152 861.331,861.819 861.5,866.5C 857.576,863.874 853.243,862.374 848.5,862C 852.706,858.946 856.706,855.779 860.5,852.5 Z"/></g>
<g><path style="opacity:0.873" fill="#442989" d="M 283.5,855.5 C 286.003,857.833 288.669,859.999 291.5,862C 288.429,862.147 285.596,862.98 283,864.5C 282.601,864.272 282.435,863.938 282.5,863.5C 282.279,860.721 282.612,858.054 283.5,855.5 Z"/></g>
<g><path style="opacity:0.97" fill="#462c88" d="M 864.5,883.5 C 865.664,892.146 866.664,900.813 867.5,909.5C 863.958,909.187 860.625,909.521 857.5,910.5C 848.167,910.5 838.833,910.5 829.5,910.5C 824.36,909.512 819.026,909.179 813.5,909.5C 813.175,902.313 813.509,895.313 814.5,888.5C 819.912,888.791 825.245,889.624 830.5,891C 836.833,891.667 843.167,891.667 849.5,891C 855.601,890.616 860.601,888.116 864.5,883.5 Z"/></g>
<g><path style="opacity:0.991" fill="#472c88" d="M 278.5,886.5 C 284.357,890.257 290.857,891.923 298,891.5C 307.888,890.546 317.721,889.213 327.5,887.5C 327.371,894.845 327.038,902.178 326.5,909.5C 309.5,909.5 292.5,909.5 275.5,909.5C 276.78,901.875 277.78,894.208 278.5,886.5 Z"/></g>
<g><path style="opacity:0.996" fill="#382044" d="M 275.5,909.5 C 292.5,909.5 309.5,909.5 326.5,909.5C 488.833,909.5 651.167,909.5 813.5,909.5C 819.026,909.179 824.36,909.512 829.5,910.5C 832.84,914.052 833.34,918.052 831,922.5C 830.25,923.126 829.416,923.626 828.5,924C 633.5,924.667 438.5,924.667 243.5,924C 238.115,918.889 238.448,914.223 244.5,910C 254.828,909.5 265.161,909.334 275.5,909.5 Z"/></g>
<g><path style="opacity:0.981" fill="#371f43" d="M 867.5,909.5 C 878.505,909.333 889.505,909.5 900.5,910C 905.812,914.761 905.812,919.428 900.5,924C 886.5,924.667 872.5,924.667 858.5,924C 854.788,921.487 853.622,917.987 855,913.5C 856.045,912.627 856.878,911.627 857.5,910.5C 860.625,909.521 863.958,909.187 867.5,909.5 Z"/></g>
</svg>
