 <!DOCTYPE svg PUBLIC "-//W3C//DTD SVG 1.1//EN" "http://www.w3.org/Graphics/SVG/1.1/DTD/svg11.dtd">
<svg xmlns="http://www.w3.org/2000/svg" width="865.76" height="682.89" viewBox="0 0 865.76 682.89">
<defs>
<style xmlns="http://www.w3.org/1999/xhtml">*, ::after, ::before { box-sizing: border-box; }
img, svg { vertical-align: middle; }
</style>
<style xmlns="http://www.w3.org/1999/xhtml">*, body, html { -webkit-font-smoothing: antialiased; }
img, svg { max-width: 100%; }
</style>
</defs>
<path d="M185,664.5s-49.1,3.4-48.25-58.45c0,0,1.91-51.64,19.72-98.17,0,0,10.17-23.27-8.91-64.13,0,0-70.58-119.73-44.83-172.5,0,0,123-235.49,302.36-245.14,0,0,204.11-27.24,318.57,20.43,0,0,80.11,20.43,26.7,134.48,0,0-77.55,114.06-28.61,183,0,0,116.36,150.73-38.15,300.5Z" fill="#412f3b" data-primary="true"/>
<path d="M721.73,364s116.36,150.73-38.15,300.5l-498.6,0s-49.1,3.4-48.25-58.45c0,0,1.91-51.64,19.72-98.17,0,0,10.17-23.27-8.91-64.12,0,0-70.58-119.74-44.82-172.51,0,0,119.77-229.23,295.19-244.63q3.55-.32,7.16-.51S528.8,9.6,637.61,24.78c30.95,4.32,60.69,11.2,86,21.76,0,0,80.11,20.43,26.7,134.49C750.34,181,672.79,295.08,721.73,364Z" fill="#fff" opacity="0.7"/>
<ellipse cx="450.64" cy="611.21" rx="187.39" ry="38.62" fill="#fff" opacity="0.7"/>
<path d="M476.14,168.17s-9.1,7.2-17.36-16.93c0,0-8.88-31.32,16.93-35.76,0,0,27.94-8.89,25.61,35.76,0,0-4,18.63,18,14,0,0,35.34-18.62,53.75-43,0,0,8.47-23.91,4-55.87,0,0-4.65-10.15-10.58-16.93,0,0,2.33-3.38,7.2,3.39a60.74,60.74,0,0,0-5.31-19.66,1.16,1.16,0,0,1,.78-1.62l1.24-.29a1.15,1.15,0,0,1,1.33.68,105.47,105.47,0,0,1,4.92,14.54s-2.5-10.35-3.73-14.66a1.17,1.17,0,0,1,.68-1.39l.13-.05a1.15,1.15,0,0,1,1.48.59c1.16,2.51,4.11,9.25,4.61,13.82,0,0-.85-8.15-2.39-12.89a1.15,1.15,0,0,1,1.1-1.5h.52a1.15,1.15,0,0,1,1.07.73A43.37,43.37,0,0,1,583,44.8a28.47,28.47,0,0,0-.36-9.64,1.16,1.16,0,0,1,1.14-1.37h0a1.15,1.15,0,0,1,1.12.89,282.34,282.34,0,0,1,5.5,31.92s19.47,68.35-5.5,85.07l-19.85,20.27s-25.65,20.57-9.78,60.57c0,0,28.79,73.43,26,136.49l.85,97.14-26.88-3.6s-11-90.78-26.24-114.7l-23.63,51.07a54.92,54.92,0,0,0-4.64,30l6.69,52.49-28.36,2.11-6.69-84.28a54.16,54.16,0,0,1,.44-12.53L485,306a75.23,75.23,0,0,0-2.91-34.71A159,159,0,0,0,445,210.08l-50.37-29.21s-17.35-7.19-14-35.13c0,0,7.4-41.05,15.23-59.68,0,0,2.75-24.35,9.39-31.81a1,1,0,0,1,1.5,0h0A1,1,0,0,1,407,55.4c-.95,1.87-3.44,7.24-2.4,10.35,0,0,2.59-11.65,5.86-14a1,1,0,0,1,1.2,0l.14.09a1,1,0,0,1,.25,1.42c-1.28,1.87-4.14,6.67-3.64,11.46l6-12.52a1,1,0,0,1,1.61-.34l.14.12a1,1,0,0,1,.29,1.13l-5.26,14.36,8.52-15.25a1,1,0,0,1,1.53-.31l1.06.82a1,1,0,0,1,.25,1.36l-4.89,8a21.33,21.33,0,0,0-3.08,9.42h0l3.09-2.81a1.9,1.9,0,0,1,2.81.28h0a1.9,1.9,0,0,1-.31,2.57,41.38,41.38,0,0,0-14.21,27,11.23,11.23,0,0,0-.05,1.42c.13,5.53,1.08,41.36,4,48.38,0,0,36.19,30.48,65.6,23.92C475.5,172.2,478.68,171.14,476.14,168.17Z" fill="#412f3b" opacity="0.32" data-primary="true"/>
<polygon points="233.8 559.22 234.07 569.27 248.19 575.25 249.55 571.99 250.37 557.87 233.8 559.22" fill="#f9b499"/>
<path d="M211,339.79s3,12.77,15.48,14.94C226.47,354.73,224.7,343.46,211,339.79Z" fill="#412f3b" data-primary="true"/>
<path d="M211,339.79s3,12.77,15.48,14.94C226.47,354.73,224.7,343.46,211,339.79Z" opacity="0.3"/>
<path d="M328,329.47c-1.36,19-4.89,22.27-4.89,22.27a120.11,120.11,0,0,1-32.7,6.34c-25.34,1-37.37-8.78-37.37-8.78l-2.17-11.41-24.44,16.84c-3.8-11.41-15.48-14.94-15.48-14.94l32.86-26.34-9-34.22c-2.72-15.75,15.2-25.8,15.2-25.8l21.59-10.91,8.18-4.14c2.34,5,16.13,2.29,16.13,2.29,22.54-3.26,44.27,26.88,44.27,26.88l22.26,28.79C371.49,324,328,329.47,328,329.47Z" fill="#412f3b" data-primary="true"/>
<path d="M299.52,315.35c7.1-4.3,15.11-9.05,22.28-13.24l7.46-4.37,0,.44c-9.57-7.22-20-15.1-29.44-22.48,9.7,7,20.17,14.86,29.76,22.06l.33.24-.35.2c-9.69,5.61-20.25,11.71-30,17.15Z" opacity="0.2"/>
<path d="M300.06,283.31a71.36,71.36,0,0,1,8.88-.73,71.36,71.36,0,0,1-8.88.73Z" opacity="0.2"/>
<path d="M338.9,296.88c-3-.62-7-1.07-9.41,1.18l-.07-.22a17.26,17.26,0,0,1,7.58,3.39,19.55,19.55,0,0,0-7.88-3.18c2.45-2.53,6.69-2.05,9.78-1.17Z" opacity="0.2"/>
<path d="M302.51,315.35c3.44,2.19,5.29,6.15,6.33,10,.11.47.36,1.52.44,2s.24,1.55.3,2c.09.89.15,1.78.22,2.68l0,2.68-.34-.27c5.88-1.63,12.62-3.45,18.54-4.9-4.22,1.34-9.51,2.88-13.79,4.11l-4.61,1.31-.34.1c0-.13,0-2.79,0-3-.29-5.84-1.82-13-6.76-16.63Z" opacity="0.2"/>
<path d="M309.57,334.9s-8.69-4.88-10.05-19.55C299.52,315.35,308.75,317.8,309.57,334.9Z" fill="#412f3b" data-primary="true"/>
<path d="M309.57,334.9s-8.69-4.88-10.05-19.55C299.52,315.35,308.75,317.8,309.57,334.9Z" opacity="0.3"/>
<path d="M290.45,358.08c-25.39,1-37.43-8.78-37.43-8.78l-2.18-11.41-24.48,16.84c-3.81-11.41-15.51-14.94-15.51-14.94l32.92-26.34-9-34.22c-2.72-15.75,15.23-25.8,15.23-25.8l21.63-10.91a7.67,7.67,0,0,1,4.29,3.44c2.82,4.83,4.3,13.18-10.41,21.32,0,0-19,7.34-11.7,21.73,0,0,2.87,4.94,2.23,24.78,0,.74-.08,1.47-.16,2.21-.48,4.4-2,23.34,6.76,30.15a9.3,9.3,0,0,0,4,1.78C271.2,348.81,285.59,353.26,290.45,358.08Z" opacity="0.2"/>
<path d="M214,341.15s-27.16,17.38-19.83,26.07a2.55,2.55,0,0,0,1.9,3.53s.27,2.45,3.26,1.9a2.49,2.49,0,0,0,2.85.94,2.78,2.78,0,0,0,1.74-1.92c.89-3.25,4.18-13.54,10.35-14.22l.44,5.59a.83.83,0,0,0,1.34.59c1.1-.89,2.61-3.06,3.1-8.36,0,0,0-5.88,4.23-6.47C223.36,348.8,217.78,342.24,214,341.15Z" fill="#f9b499"/>
<path d="M194.15,367.22s2.72-9.23,6.25-12" fill="none" stroke="#f7a48b" stroke-miterlimit="10"/>
<path d="M196.05,370.75s3.53-10.05,7.06-14.12" fill="none" stroke="#f7a48b" stroke-miterlimit="10"/>
<path d="M199.31,372.65s2.72-8.42,5.7-12.49" fill="none" stroke="#f7a48b" stroke-miterlimit="10"/>
<path d="M284.55,241.15c-1.09,6.25-4.62,11.86-8.84,16.5a49.73,49.73,0,0,1-15.3,11,71.09,71.09,0,0,0,7.91-5.1c7.43-5.61,13.89-13.23,16.23-22.39Z" opacity="0.2"/>
<path d="M246.29,255.61c1,4.08,2.46,8.48,6,11a10.08,10.08,0,0,0,1.61.9,6.88,6.88,0,0,1-1.75-.67c-3.83-2.21-5.58-7.06-5.86-11.27Z" opacity="0.2"/>
<path d="M249.28,285.21a189.37,189.37,0,0,1,5.43-19.83,189.37,189.37,0,0,1-5.43,19.83Z" opacity="0.2"/>
<path d="M262.59,263.75a26.58,26.58,0,0,0,0,4.72,105.06,105.06,0,0,0,1.54,11.69c.14.77.29,1.55.41,2.33-1.67-5.42-3.18-13.16-1.9-18.74Z" opacity="0.2"/>
<path d="M236.79,284.39A43,43,0,0,1,243,292a43.39,43.39,0,0,1-6.24-7.61Z" opacity="0.2"/>
<path d="M246.84,298.51A37.5,37.5,0,0,1,250.36,313c0,.72,0,1.76,0,2.49.27,7.46.48,14.94.5,22.4q-.33-5-.55-9.95c-.2-4.95-.47-10-.52-14.93a42.48,42.48,0,0,0-3-14.5Z" opacity="0.2"/>
<path d="M217.78,336.53c6.68,1.65,13.08,7,13.85,14.13a18.7,18.7,0,0,0-.79-2.47c-2.21-5.68-7.52-9.53-13.06-11.66Z" opacity="0.2"/>
<path d="M303.41,329.23a37.68,37.68,0,0,1-7.67,4.22,10.34,10.34,0,0,0-3.08,2l-6.3,5.91a1.55,1.55,0,0,1-2,.09h0a1.54,1.54,0,0,1-.12-2.33l4.81-4.64a.94.94,0,0,0-.42-1.6h0a.94.94,0,0,0-.89.24l-7.6,7.37a1.29,1.29,0,0,1-1.88-.09h0a1.29,1.29,0,0,1,0-1.7l6.08-6.73a1,1,0,0,0-.19-1.48h0a1,1,0,0,0-1.25.12l-7.69,7.7a1.75,1.75,0,0,1-2.47,0h0a1.75,1.75,0,0,1,0-2.45l5-5.21a1,1,0,0,0-.17-1.57h0a1,1,0,0,0-1.19,0l-5.9,4.47a1.45,1.45,0,0,1-2.18-.51h0a1.45,1.45,0,0,1,.49-1.86L281.05,323a4.58,4.58,0,0,1-4.89-3.26s7.11.49,11.08-1.09c.52-.21,1-.41,1.58-.58a98.19,98.19,0,0,1,9.64-2.51,2.76,2.76,0,0,1,2.05.43,12.79,12.79,0,0,1,5.16,6.48A6.12,6.12,0,0,1,303.41,329.23Z" fill="#f9b499"/>
<path d="M373.66,569.54c-11.14,6.52-28.79,5.16-28.79,5.16-13.85-22.81-31.23-94-31.23-94C301.8,456.83,287.78,421,284,411.11a.9.9,0,0,0-1.7.08c-4.59,15.87-21.19,48.38-26.31,58.23a10.43,10.43,0,0,0-1.08,6.11c5.64,45-3.69,87.22-3.69,87.22h-25l-8.42-88.53c-4.62-35,23.9-89.62,23.9-89.62a252.24,252.24,0,0,0,11.4-35.3s22.27,18.19,70.07,2.44c14.66,19,27.7,112.16,27.7,112.16Z" fill="#000000" data-secondary="true"/>
<g opacity="0.2">
<path d="M279.15,399.27c-3.56,17-10.84,33.06-18.18,48.76l-3.88,7.78-4,7.72a28,28,0,0,0-1.31,5.78,59.21,59.21,0,0,0,.11,13.89c.05,1,.19,3.69.23,4.75a433,433,0,0,1-.62,50.31c-.43,5.58-1.35,13.21-2.28,18.74-.39,2.06-.83,4.11-1.24,6.16a215.76,215.76,0,0,0,2.43-25c.76-16.7.54-33.45-.21-50.16-.06-1-.2-3.66-.26-4.66a55.28,55.28,0,0,1-.06-14.31,27.62,27.62,0,0,1,1.56-6.41L255.5,455l3.93-7.72c7.57-15.47,15.24-31.32,19.72-48Z"/>
</g>
<g opacity="0.2">
<path d="M270.73,393.56c6.84,1.14,12.16,7.87,11.9,14.77a17,17,0,0,1-.37,2.86c-.27-.94-.36-1.87-.61-2.76-1.35-6.32-5.5-11.42-10.92-14.87Z"/>
</g>
<g opacity="0.2">
<path d="M252.17,354.13a98.07,98.07,0,0,0,64.53,3.42c1.42-.42,2.84-.81,4.27-1.19-2.73,1.11-5.45,2.36-8.27,3.25a81.43,81.43,0,0,1-13,3c-1.54.15-5.18.66-6.68.65-14.05.71-28.63-2-40.83-9.17Z"/>
</g>
<g opacity="0.2">
<path d="M306.17,356.46c2.67,6.8,7.77,13,14.79,15.51a24.93,24.93,0,0,0,9.05,1q2.75,11.71,5.36,23.46c5.09,22.87,9.95,45.79,14.12,68.85-3.93-15.12-7.51-30.32-11-45.56s-6.76-30.49-9.89-45.79l.81.61c-11.34.69-20.17-7.66-23.27-18.06Z"/>
</g>
<path d="M251.08,581.68c.25-3.84.37-11.88-3.16-11l-8.69-3.26s-4.59-3.43-8.15,1.9c-.52.79-14.7,10.17-22.52,14.73a3.54,3.54,0,0,0-1.69,2.19c-.58,2.39,1.25,6,21.23,2.36,0,0,12.6-3.73,20.93-4.71A2.33,2.33,0,0,0,251.08,581.68Z" fill="#412f3b" data-primary="true"/>
<path d="M357.05,574.52s2.49,7.52,7.65,3.71c0,0,3.26-5.7,7.33-5.43l-.7-1.92S366.23,573.26,357.05,574.52Z" fill="#f9b499"/>
<path d="M357.05,574.52s-2.4,11.59,1.67,14.58c0,0,8.15,3.53,12.5,7.33,0,0,9.77,12.76,25,6.25,0,0,2.17-1.36-1.63-6a74.45,74.45,0,0,1-19.28-22.27A3,3,0,0,0,372,572.8s-3-.81-7.33,5.43C364.7,578.23,360.26,582.49,357.05,574.52Z" fill="#412f3b" data-primary="true"/>
<rect x="241.17" y="198.51" width="33.07" height="53.81" rx="12.89" transform="translate(-83.56 197.88) rotate(-36.56)" fill="#f9b499"/>
<path d="M241.13,212.43s8.55,11.63,7.13,21.16l-1.35,8.85s2.1,2.3,2.1,4.75c0,0-1.36,2.44-4.35-1.09,0,0-1.08-3-8.69-4.89,0,0-14.93-6.79-6.24-19.55,0,0-5.71-15.48,7.33-17.92,0,0,8.15-1.36,9.78-8.15,0,0,6.24-11.14,10.59,3,0,0,11-4.39,9.29,11.11l-3-3.9s-3.76-3.61-7.62-4.6C256.13,201.19,251.45,210.52,241.13,212.43Z" fill="#000000" data-secondary="true"/>
<path d="M246.91,242.44s3.73,3.12,3.18,11l6.79,11.14s9.27-7.28,13.6-15.86c0,0-10.94,5.95-19.87-5.12l-3-4.27Z" fill="#f9b499"/>
<path d="M248.92,241.3s3.83,11.84,14.32,17.28c0,0,5.08-5.37,7.24-9.87C270.48,248.71,257.79,255.24,248.92,241.3Z" fill="#f7a48b"/>
<ellipse cx="244.12" cy="236.19" rx="4.89" ry="7.2" transform="matrix(0.85, -0.53, 0.53, 0.85, -88.25, 166.1)" fill="#f9b499"/>
<path d="M638,611.21c-23,42.68-192,38.32-192,38.32-184-3-182.78-38.32-182.78-38.32l70.68-306.54a27.89,27.89,0,0,1,19.68-10.37s20.74,1.7,16.29-12.48c0,0-1.27-14.18-31.11-6.56L397.91,26.62q3.55-.32,7.16-.51S528.8,9.6,637.61,24.78V180.66s-13.76-76.39-71.32-88.25c0,0-25.4-8-51.64-.42,0,0,12.07-1.27,16.93.42,0,0-18.2,1.06-21.37,5.51,0,0,19.89-4.24,27.72.63,0,0-5.88.21-8,2.53.69-.17,22.39-5.53,34.26,5.09,0,0,27.3,21.16,34.29,52.69,0,0,12.17,40.74.4,44.41a5.08,5.08,0,0,1-6.22-3.13C588.77,189.8,573,155,544.49,181.72c0,0-19.6,24.42,14.51,39.15a43.28,43.28,0,0,0,19.21,3.37c5.27-.25,11.49,1.66,7.13,13.56,0,0-69.2,48.46-117.46,43.59,0,0-24.54,2.33-35.12-9.31l-11.43-17.14a11.57,11.57,0,0,0,0,9.95s-8-1.06-19.26-11.64c0,0-3.17,3.81.85,6.56,0,0-3.39,1.27,1.69,6.77,0,0-3.81,3.6,1.27,6.56,0,0-1.69,3.39,7.62,8,0,0,61,38,151.94,15.53a51.51,51.51,0,0,1,56.3,22.86c7.94,12.91,14,31.85,14.17,59.59Z" fill="#fff" opacity="0.7"/>
</svg>